%TF.GenerationSoftware,KiCad,Pcbnew,(5.99.0-12972-g3d2ffc12c1)*%
%TF.CreationDate,2021-12-01T23:42:46+01:00*%
%TF.ProjectId,ESP32_CP2102,45535033-325f-4435-9032-3130322e6b69,rev?*%
%TF.SameCoordinates,Original*%
%TF.FileFunction,Soldermask,Top*%
%TF.FilePolarity,Negative*%
%FSLAX46Y46*%
G04 Gerber Fmt 4.6, Leading zero omitted, Abs format (unit mm)*
G04 Created by KiCad (PCBNEW (5.99.0-12972-g3d2ffc12c1)) date 2021-12-01 23:42:46*
%MOMM*%
%LPD*%
G01*
G04 APERTURE LIST*
G04 Aperture macros list*
%AMRoundRect*
0 Rectangle with rounded corners*
0 $1 Rounding radius*
0 $2 $3 $4 $5 $6 $7 $8 $9 X,Y pos of 4 corners*
0 Add a 4 corners polygon primitive as box body*
4,1,4,$2,$3,$4,$5,$6,$7,$8,$9,$2,$3,0*
0 Add four circle primitives for the rounded corners*
1,1,$1+$1,$2,$3*
1,1,$1+$1,$4,$5*
1,1,$1+$1,$6,$7*
1,1,$1+$1,$8,$9*
0 Add four rect primitives between the rounded corners*
20,1,$1+$1,$2,$3,$4,$5,0*
20,1,$1+$1,$4,$5,$6,$7,0*
20,1,$1+$1,$6,$7,$8,$9,0*
20,1,$1+$1,$8,$9,$2,$3,0*%
G04 Aperture macros list end*
%ADD10RoundRect,0.062500X0.062500X-0.337500X0.062500X0.337500X-0.062500X0.337500X-0.062500X-0.337500X0*%
%ADD11RoundRect,0.062500X0.337500X-0.062500X0.337500X0.062500X-0.337500X0.062500X-0.337500X-0.062500X0*%
%ADD12RoundRect,0.250000X1.425000X-1.425000X1.425000X1.425000X-1.425000X1.425000X-1.425000X-1.425000X0*%
%ADD13RoundRect,0.218750X-0.218750X-0.256250X0.218750X-0.256250X0.218750X0.256250X-0.218750X0.256250X0*%
%ADD14R,0.900000X0.800000*%
%ADD15RoundRect,0.218750X-0.256250X0.218750X-0.256250X-0.218750X0.256250X-0.218750X0.256250X0.218750X0*%
%ADD16R,1.700000X1.700000*%
%ADD17O,1.700000X1.700000*%
%ADD18R,1.500000X2.000000*%
%ADD19R,3.800000X2.000000*%
%ADD20RoundRect,0.218750X0.218750X0.256250X-0.218750X0.256250X-0.218750X-0.256250X0.218750X-0.256250X0*%
%ADD21RoundRect,0.218750X0.256250X-0.218750X0.256250X0.218750X-0.256250X0.218750X-0.256250X-0.218750X0*%
%ADD22R,0.508000X1.193800*%
%ADD23RoundRect,0.243750X0.243750X0.456250X-0.243750X0.456250X-0.243750X-0.456250X0.243750X-0.456250X0*%
%ADD24RoundRect,0.243750X-0.456250X0.243750X-0.456250X-0.243750X0.456250X-0.243750X0.456250X0.243750X0*%
%ADD25RoundRect,0.237500X-0.287500X-0.237500X0.287500X-0.237500X0.287500X0.237500X-0.287500X0.237500X0*%
%ADD26R,1.500000X0.900000*%
%ADD27R,0.900000X1.500000*%
%ADD28R,1.050000X1.050000*%
%ADD29C,0.670000*%
%ADD30R,0.300000X1.450000*%
%ADD31R,0.250000X1.450000*%
%ADD32RoundRect,0.500000X0.000000X-0.300000X0.000000X-0.300000X0.000000X0.300000X0.000000X0.300000X0*%
%ADD33RoundRect,0.500000X0.000000X-0.600000X0.000000X-0.600000X0.000000X0.600000X0.000000X0.600000X0*%
%ADD34RoundRect,0.237500X0.287500X0.237500X-0.287500X0.237500X-0.287500X-0.237500X0.287500X-0.237500X0*%
G04 APERTURE END LIST*
D10*
%TO.C,U103*%
X106958000Y-111924000D03*
X107458000Y-111924000D03*
X107958000Y-111924000D03*
X108458000Y-111924000D03*
X108958000Y-111924000D03*
X109458000Y-111924000D03*
X109958000Y-111924000D03*
D11*
X110908000Y-110974000D03*
X110908000Y-110474000D03*
X110908000Y-109974000D03*
X110908000Y-109474000D03*
X110908000Y-108974000D03*
X110908000Y-108474000D03*
X110908000Y-107974000D03*
D10*
X109958000Y-107024000D03*
X109458000Y-107024000D03*
X108958000Y-107024000D03*
X108458000Y-107024000D03*
X107958000Y-107024000D03*
X107458000Y-107024000D03*
X106958000Y-107024000D03*
D11*
X106008000Y-107974000D03*
X106008000Y-108474000D03*
X106008000Y-108974000D03*
X106008000Y-109474000D03*
X106008000Y-109974000D03*
X106008000Y-110474000D03*
X106008000Y-110974000D03*
D12*
X108458000Y-109474000D03*
%TD*%
D13*
%TO.C,R105*%
X101562500Y-117700000D03*
X103137500Y-117700000D03*
%TD*%
D14*
%TO.C,Q102*%
X101546600Y-106715600D03*
X101546600Y-104815600D03*
X99546600Y-105765600D03*
%TD*%
D13*
%TO.C,R106*%
X107812500Y-121100000D03*
X109387500Y-121100000D03*
%TD*%
D15*
%TO.C,R112*%
X106172000Y-102336500D03*
X106172000Y-103911500D03*
%TD*%
D16*
%TO.C,J103*%
X114300000Y-83820000D03*
D17*
X114300000Y-86360000D03*
X114300000Y-88900000D03*
X114300000Y-91440000D03*
X114300000Y-93980000D03*
X114300000Y-96520000D03*
X114300000Y-99060000D03*
X114300000Y-101600000D03*
X114300000Y-104140000D03*
X114300000Y-106680000D03*
X114300000Y-109220000D03*
X114300000Y-111760000D03*
X114300000Y-114300000D03*
X114300000Y-116840000D03*
%TD*%
D18*
%TO.C,U101*%
X92315000Y-112370000D03*
D19*
X94615000Y-106070000D03*
D18*
X94615000Y-112370000D03*
X96915000Y-112370000D03*
%TD*%
D20*
%TO.C,C104*%
X110437500Y-125874000D03*
X108862500Y-125874000D03*
%TD*%
D21*
%TO.C,D102*%
X93345000Y-116992500D03*
X93345000Y-115417500D03*
%TD*%
D22*
%TO.C,EN101*%
X89095000Y-122583400D03*
X89095000Y-126596600D03*
X90705000Y-122583400D03*
X90705000Y-126596600D03*
%TD*%
D13*
%TO.C,R111*%
X97162500Y-103000000D03*
X98737500Y-103000000D03*
%TD*%
%TO.C,R104*%
X101562500Y-119600000D03*
X103137500Y-119600000D03*
%TD*%
%TO.C,R110*%
X102336500Y-108966000D03*
X103911500Y-108966000D03*
%TD*%
D23*
%TO.C,C101*%
X91361500Y-119888000D03*
X89486500Y-119888000D03*
%TD*%
D24*
%TO.C,C106*%
X110250000Y-113762500D03*
X110250000Y-115637500D03*
%TD*%
D15*
%TO.C,R108*%
X103225600Y-104978100D03*
X103225600Y-106553100D03*
%TD*%
D22*
%TO.C,BOOT101*%
X112845000Y-126356600D03*
X112845000Y-122343400D03*
X114455000Y-122343400D03*
X114455000Y-126356600D03*
%TD*%
D25*
%TO.C,R114*%
X94949117Y-123347094D03*
X93199117Y-123347094D03*
%TD*%
D26*
%TO.C,U102*%
X92850000Y-81890000D03*
X92850000Y-83160000D03*
X92850000Y-84430000D03*
X92850000Y-85700000D03*
X92850000Y-86970000D03*
X92850000Y-88240000D03*
X92850000Y-89510000D03*
X92850000Y-90780000D03*
X92850000Y-92050000D03*
X92850000Y-93320000D03*
X92850000Y-94590000D03*
X92850000Y-95860000D03*
X92850000Y-97130000D03*
X92850000Y-98400000D03*
D27*
X95880000Y-99650000D03*
X97150000Y-99650000D03*
X98420000Y-99650000D03*
X99690000Y-99650000D03*
X100960000Y-99650000D03*
X102230000Y-99650000D03*
X103500000Y-99650000D03*
X104770000Y-99650000D03*
X106040000Y-99650000D03*
X107310000Y-99650000D03*
D26*
X110350000Y-98400000D03*
X110350000Y-97130000D03*
X110350000Y-95860000D03*
X110350000Y-94590000D03*
X110350000Y-93320000D03*
X110350000Y-92050000D03*
X110350000Y-90780000D03*
X110350000Y-89510000D03*
X110350000Y-88240000D03*
X110350000Y-86970000D03*
X110350000Y-85700000D03*
X110350000Y-84430000D03*
X110350000Y-83160000D03*
X110350000Y-81890000D03*
D28*
X100920000Y-89230000D03*
X100920000Y-87705000D03*
X102445000Y-87705000D03*
X100920000Y-90755000D03*
X102445000Y-90755000D03*
X102445000Y-89230000D03*
X99395000Y-89230000D03*
X99395000Y-87705000D03*
X99395000Y-90755000D03*
%TD*%
D21*
%TO.C,R101*%
X98850000Y-119287500D03*
X98850000Y-117712500D03*
%TD*%
D13*
%TO.C,C102*%
X93446500Y-119634000D03*
X95021500Y-119634000D03*
%TD*%
D15*
%TO.C,R103*%
X95060000Y-115417500D03*
X95060000Y-116992500D03*
%TD*%
D29*
%TO.C,J101*%
X104500000Y-123350000D03*
X98700000Y-123350000D03*
D30*
X98200000Y-121900000D03*
X99000000Y-121900000D03*
D31*
X100350000Y-121900000D03*
X101350000Y-121900000D03*
X101850000Y-121900000D03*
X102850000Y-121900000D03*
D30*
X104200000Y-121900000D03*
X105000000Y-121900000D03*
X104700000Y-121900000D03*
X103900000Y-121900000D03*
D31*
X103350000Y-121900000D03*
X102350000Y-121900000D03*
X100850000Y-121900000D03*
X99850000Y-121900000D03*
D30*
X99300000Y-121900000D03*
X98500000Y-121900000D03*
D32*
X105920000Y-127000000D03*
X97280000Y-127000000D03*
D33*
X97280000Y-122820000D03*
X105920000Y-122820000D03*
%TD*%
D14*
%TO.C,Q101*%
X101634800Y-114894400D03*
X101634800Y-112994400D03*
X99634800Y-113944400D03*
%TD*%
D13*
%TO.C,C107*%
X93446500Y-103124000D03*
X95021500Y-103124000D03*
%TD*%
D16*
%TO.C,J102*%
X88900000Y-83820000D03*
D17*
X88900000Y-86360000D03*
X88900000Y-88900000D03*
X88900000Y-91440000D03*
X88900000Y-93980000D03*
X88900000Y-96520000D03*
X88900000Y-99060000D03*
X88900000Y-101600000D03*
X88900000Y-104140000D03*
X88900000Y-106680000D03*
X88900000Y-109220000D03*
X88900000Y-111760000D03*
X88900000Y-114300000D03*
X88900000Y-116840000D03*
%TD*%
D13*
%TO.C,R109*%
X102336500Y-110490000D03*
X103911500Y-110490000D03*
%TD*%
%TO.C,R102*%
X105212500Y-119250000D03*
X106787500Y-119250000D03*
%TD*%
D34*
%TO.C,R113*%
X110525000Y-123080000D03*
X108775000Y-123080000D03*
%TD*%
D13*
%TO.C,C105*%
X94900000Y-126114000D03*
X93325000Y-126114000D03*
%TD*%
D20*
%TO.C,C103*%
X90787500Y-81200000D03*
X89212500Y-81200000D03*
%TD*%
D15*
%TO.C,R107*%
X103313800Y-113156900D03*
X103313800Y-114731900D03*
%TD*%
M02*
