M48
; DRILL file {KiCad (5.99.0-12972-g3d2ffc12c1)} date 2021 December 01, Wednesday 23:42:48
; FORMAT={-:-/ absolute / metric / decimal}
; #@! TF.CreationDate,2021-12-01T23:42:48+01:00
; #@! TF.GenerationSoftware,Kicad,Pcbnew,(5.99.0-12972-g3d2ffc12c1)
; #@! TF.FileFunction,Plated,1,2,PTH
FMAT,2
METRIC
; #@! TA.AperFunction,Plated,PTH,ViaDrill
T1C0.250
; #@! TA.AperFunction,Plated,PTH,ComponentDrill
T2C0.600
; #@! TA.AperFunction,Plated,PTH,ComponentDrill
T3C1.000
%
G90
G05
T1
X89.55Y-124.45
X92.1Y-117.85
X92.45Y-114.45
X93.1Y-101.25
X93.199Y-124.701
X93.2Y-107.95
X93.825Y-110.397
X94.5Y-94.55
X94.85Y-83.15
X94.9Y-122.0
X95.55Y-107.95
X95.85Y-121.1
X96.9Y-110.6
X96.9Y-114.2
X97.162Y-101.387
X99.72Y-123.495
X100.0Y-102.6
X100.75Y-112.0
X101.05Y-109.7
X101.3Y-108.274
X101.6Y-126.25
X101.652Y-103.612
X102.35Y-95.1
X103.436Y-123.52
X103.55Y-111.75
X103.7Y-94.95
X104.179Y-105.838
X104.325Y-107.641
X104.95Y-103.85
X105.35Y-113.45
X106.2Y-106.8
X108.6Y-93.35
X108.65Y-121.85
X111.2Y-102.25
X111.65Y-113.05
X111.85Y-111.5
X114.95Y-119.25
T3
X88.9Y-83.82
X88.9Y-86.36
X88.9Y-88.9
X88.9Y-91.44
X88.9Y-93.98
X88.9Y-96.52
X88.9Y-99.06
X88.9Y-101.6
X88.9Y-104.14
X88.9Y-106.68
X88.9Y-109.22
X88.9Y-111.76
X88.9Y-114.3
X88.9Y-116.84
X114.3Y-83.82
X114.3Y-86.36
X114.3Y-88.9
X114.3Y-91.44
X114.3Y-93.98
X114.3Y-96.52
X114.3Y-99.06
X114.3Y-101.6
X114.3Y-104.14
X114.3Y-106.68
X114.3Y-109.22
X114.3Y-111.76
X114.3Y-114.3
X114.3Y-116.84
T2
G00X97.28Y-122.27
M15
G01X97.28Y-123.37
M16
G05
G00X97.28Y-126.7
M15
G01X97.28Y-127.3
M16
G05
G00X105.92Y-122.27
M15
G01X105.92Y-123.37
M16
G05
G00X105.92Y-126.7
M15
G01X105.92Y-127.3
M16
G05
T0
M30
