%TF.GenerationSoftware,KiCad,Pcbnew,(5.99.0-12972-g3d2ffc12c1)*%
%TF.CreationDate,2021-12-01T23:42:45+01:00*%
%TF.ProjectId,ESP32_CP2102,45535033-325f-4435-9032-3130322e6b69,rev?*%
%TF.SameCoordinates,Original*%
%TF.FileFunction,Legend,Top*%
%TF.FilePolarity,Positive*%
%FSLAX46Y46*%
G04 Gerber Fmt 4.6, Leading zero omitted, Abs format (unit mm)*
G04 Created by KiCad (PCBNEW (5.99.0-12972-g3d2ffc12c1)) date 2021-12-01 23:42:45*
%MOMM*%
%LPD*%
G01*
G04 APERTURE LIST*
%ADD10C,0.100000*%
%ADD11C,0.150000*%
%ADD12C,0.120000*%
%ADD13C,0.152400*%
%ADD14C,0.020000*%
G04 APERTURE END LIST*
D10*
%TO.C,U103*%
X107258000Y-105788666D02*
X107258000Y-106355333D01*
X107291333Y-106422000D01*
X107324666Y-106455333D01*
X107391333Y-106488666D01*
X107524666Y-106488666D01*
X107591333Y-106455333D01*
X107624666Y-106422000D01*
X107658000Y-106355333D01*
X107658000Y-105788666D01*
X108358000Y-106488666D02*
X107958000Y-106488666D01*
X108158000Y-106488666D02*
X108158000Y-105788666D01*
X108091333Y-105888666D01*
X108024666Y-105955333D01*
X107958000Y-105988666D01*
X108791333Y-105788666D02*
X108858000Y-105788666D01*
X108924666Y-105822000D01*
X108958000Y-105855333D01*
X108991333Y-105922000D01*
X109024666Y-106055333D01*
X109024666Y-106222000D01*
X108991333Y-106355333D01*
X108958000Y-106422000D01*
X108924666Y-106455333D01*
X108858000Y-106488666D01*
X108791333Y-106488666D01*
X108724666Y-106455333D01*
X108691333Y-106422000D01*
X108658000Y-106355333D01*
X108624666Y-106222000D01*
X108624666Y-106055333D01*
X108658000Y-105922000D01*
X108691333Y-105855333D01*
X108724666Y-105822000D01*
X108791333Y-105788666D01*
X109258000Y-105788666D02*
X109691333Y-105788666D01*
X109458000Y-106055333D01*
X109558000Y-106055333D01*
X109624666Y-106088666D01*
X109658000Y-106122000D01*
X109691333Y-106188666D01*
X109691333Y-106355333D01*
X109658000Y-106422000D01*
X109624666Y-106455333D01*
X109558000Y-106488666D01*
X109358000Y-106488666D01*
X109291333Y-106455333D01*
X109258000Y-106422000D01*
%TO.C,R105*%
X101566666Y-116797466D02*
X101333333Y-116464133D01*
X101166666Y-116797466D02*
X101166666Y-116097466D01*
X101433333Y-116097466D01*
X101500000Y-116130800D01*
X101533333Y-116164133D01*
X101566666Y-116230800D01*
X101566666Y-116330800D01*
X101533333Y-116397466D01*
X101500000Y-116430800D01*
X101433333Y-116464133D01*
X101166666Y-116464133D01*
X102233333Y-116797466D02*
X101833333Y-116797466D01*
X102033333Y-116797466D02*
X102033333Y-116097466D01*
X101966666Y-116197466D01*
X101900000Y-116264133D01*
X101833333Y-116297466D01*
X102666666Y-116097466D02*
X102733333Y-116097466D01*
X102800000Y-116130800D01*
X102833333Y-116164133D01*
X102866666Y-116230800D01*
X102900000Y-116364133D01*
X102900000Y-116530800D01*
X102866666Y-116664133D01*
X102833333Y-116730800D01*
X102800000Y-116764133D01*
X102733333Y-116797466D01*
X102666666Y-116797466D01*
X102600000Y-116764133D01*
X102566666Y-116730800D01*
X102533333Y-116664133D01*
X102500000Y-116530800D01*
X102500000Y-116364133D01*
X102533333Y-116230800D01*
X102566666Y-116164133D01*
X102600000Y-116130800D01*
X102666666Y-116097466D01*
X103533333Y-116097466D02*
X103200000Y-116097466D01*
X103166666Y-116430800D01*
X103200000Y-116397466D01*
X103266666Y-116364133D01*
X103433333Y-116364133D01*
X103500000Y-116397466D01*
X103533333Y-116430800D01*
X103566666Y-116497466D01*
X103566666Y-116664133D01*
X103533333Y-116730800D01*
X103500000Y-116764133D01*
X103433333Y-116797466D01*
X103266666Y-116797466D01*
X103200000Y-116764133D01*
X103166666Y-116730800D01*
%TO.C,Q102*%
X100929933Y-106498933D02*
X100896600Y-106565600D01*
X100829933Y-106632266D01*
X100729933Y-106732266D01*
X100696600Y-106798933D01*
X100696600Y-106865600D01*
X100863266Y-106832266D02*
X100829933Y-106898933D01*
X100763266Y-106965600D01*
X100629933Y-106998933D01*
X100396600Y-106998933D01*
X100263266Y-106965600D01*
X100196600Y-106898933D01*
X100163266Y-106832266D01*
X100163266Y-106698933D01*
X100196600Y-106632266D01*
X100263266Y-106565600D01*
X100396600Y-106532266D01*
X100629933Y-106532266D01*
X100763266Y-106565600D01*
X100829933Y-106632266D01*
X100863266Y-106698933D01*
X100863266Y-106832266D01*
X100863266Y-105865600D02*
X100863266Y-106265600D01*
X100863266Y-106065600D02*
X100163266Y-106065600D01*
X100263266Y-106132266D01*
X100329933Y-106198933D01*
X100363266Y-106265600D01*
X100163266Y-105432266D02*
X100163266Y-105365600D01*
X100196600Y-105298933D01*
X100229933Y-105265600D01*
X100296600Y-105232266D01*
X100429933Y-105198933D01*
X100596600Y-105198933D01*
X100729933Y-105232266D01*
X100796600Y-105265600D01*
X100829933Y-105298933D01*
X100863266Y-105365600D01*
X100863266Y-105432266D01*
X100829933Y-105498933D01*
X100796600Y-105532266D01*
X100729933Y-105565600D01*
X100596600Y-105598933D01*
X100429933Y-105598933D01*
X100296600Y-105565600D01*
X100229933Y-105532266D01*
X100196600Y-105498933D01*
X100163266Y-105432266D01*
X100229933Y-104932266D02*
X100196600Y-104898933D01*
X100163266Y-104832266D01*
X100163266Y-104665600D01*
X100196600Y-104598933D01*
X100229933Y-104565600D01*
X100296600Y-104532266D01*
X100363266Y-104532266D01*
X100463266Y-104565600D01*
X100863266Y-104965600D01*
X100863266Y-104532266D01*
%TO.C,R106*%
X108266666Y-120116666D02*
X108033333Y-119783333D01*
X107866666Y-120116666D02*
X107866666Y-119416666D01*
X108133333Y-119416666D01*
X108200000Y-119450000D01*
X108233333Y-119483333D01*
X108266666Y-119550000D01*
X108266666Y-119650000D01*
X108233333Y-119716666D01*
X108200000Y-119750000D01*
X108133333Y-119783333D01*
X107866666Y-119783333D01*
X108933333Y-120116666D02*
X108533333Y-120116666D01*
X108733333Y-120116666D02*
X108733333Y-119416666D01*
X108666666Y-119516666D01*
X108600000Y-119583333D01*
X108533333Y-119616666D01*
X109366666Y-119416666D02*
X109433333Y-119416666D01*
X109500000Y-119450000D01*
X109533333Y-119483333D01*
X109566666Y-119550000D01*
X109600000Y-119683333D01*
X109600000Y-119850000D01*
X109566666Y-119983333D01*
X109533333Y-120050000D01*
X109500000Y-120083333D01*
X109433333Y-120116666D01*
X109366666Y-120116666D01*
X109300000Y-120083333D01*
X109266666Y-120050000D01*
X109233333Y-119983333D01*
X109200000Y-119850000D01*
X109200000Y-119683333D01*
X109233333Y-119550000D01*
X109266666Y-119483333D01*
X109300000Y-119450000D01*
X109366666Y-119416666D01*
X110200000Y-119416666D02*
X110066666Y-119416666D01*
X110000000Y-119450000D01*
X109966666Y-119483333D01*
X109900000Y-119583333D01*
X109866666Y-119716666D01*
X109866666Y-119983333D01*
X109900000Y-120050000D01*
X109933333Y-120083333D01*
X110000000Y-120116666D01*
X110133333Y-120116666D01*
X110200000Y-120083333D01*
X110233333Y-120050000D01*
X110266666Y-119983333D01*
X110266666Y-119816666D01*
X110233333Y-119750000D01*
X110200000Y-119716666D01*
X110133333Y-119683333D01*
X110000000Y-119683333D01*
X109933333Y-119716666D01*
X109900000Y-119750000D01*
X109866666Y-119816666D01*
%TO.C,R112*%
X105218666Y-103399333D02*
X104885333Y-103632666D01*
X105218666Y-103799333D02*
X104518666Y-103799333D01*
X104518666Y-103532666D01*
X104552000Y-103466000D01*
X104585333Y-103432666D01*
X104652000Y-103399333D01*
X104752000Y-103399333D01*
X104818666Y-103432666D01*
X104852000Y-103466000D01*
X104885333Y-103532666D01*
X104885333Y-103799333D01*
X105218666Y-102732666D02*
X105218666Y-103132666D01*
X105218666Y-102932666D02*
X104518666Y-102932666D01*
X104618666Y-102999333D01*
X104685333Y-103066000D01*
X104718666Y-103132666D01*
X105218666Y-102066000D02*
X105218666Y-102466000D01*
X105218666Y-102266000D02*
X104518666Y-102266000D01*
X104618666Y-102332666D01*
X104685333Y-102399333D01*
X104718666Y-102466000D01*
X104585333Y-101799333D02*
X104552000Y-101766000D01*
X104518666Y-101699333D01*
X104518666Y-101532666D01*
X104552000Y-101466000D01*
X104585333Y-101432666D01*
X104652000Y-101399333D01*
X104718666Y-101399333D01*
X104818666Y-101432666D01*
X105218666Y-101832666D01*
X105218666Y-101399333D01*
%TO.C,J103*%
X113400000Y-80666666D02*
X113400000Y-81166666D01*
X113366666Y-81266666D01*
X113300000Y-81333333D01*
X113200000Y-81366666D01*
X113133333Y-81366666D01*
X114100000Y-81366666D02*
X113700000Y-81366666D01*
X113900000Y-81366666D02*
X113900000Y-80666666D01*
X113833333Y-80766666D01*
X113766666Y-80833333D01*
X113700000Y-80866666D01*
X114533333Y-80666666D02*
X114600000Y-80666666D01*
X114666666Y-80700000D01*
X114700000Y-80733333D01*
X114733333Y-80800000D01*
X114766666Y-80933333D01*
X114766666Y-81100000D01*
X114733333Y-81233333D01*
X114700000Y-81300000D01*
X114666666Y-81333333D01*
X114600000Y-81366666D01*
X114533333Y-81366666D01*
X114466666Y-81333333D01*
X114433333Y-81300000D01*
X114400000Y-81233333D01*
X114366666Y-81100000D01*
X114366666Y-80933333D01*
X114400000Y-80800000D01*
X114433333Y-80733333D01*
X114466666Y-80700000D01*
X114533333Y-80666666D01*
X115000000Y-80666666D02*
X115433333Y-80666666D01*
X115200000Y-80933333D01*
X115300000Y-80933333D01*
X115366666Y-80966666D01*
X115400000Y-81000000D01*
X115433333Y-81066666D01*
X115433333Y-81233333D01*
X115400000Y-81300000D01*
X115366666Y-81333333D01*
X115300000Y-81366666D01*
X115100000Y-81366666D01*
X115033333Y-81333333D01*
X115000000Y-81300000D01*
%TO.C,U101*%
X93415000Y-108836666D02*
X93415000Y-109403333D01*
X93448333Y-109470000D01*
X93481666Y-109503333D01*
X93548333Y-109536666D01*
X93681666Y-109536666D01*
X93748333Y-109503333D01*
X93781666Y-109470000D01*
X93815000Y-109403333D01*
X93815000Y-108836666D01*
X94515000Y-109536666D02*
X94115000Y-109536666D01*
X94315000Y-109536666D02*
X94315000Y-108836666D01*
X94248333Y-108936666D01*
X94181666Y-109003333D01*
X94115000Y-109036666D01*
X94948333Y-108836666D02*
X95015000Y-108836666D01*
X95081666Y-108870000D01*
X95115000Y-108903333D01*
X95148333Y-108970000D01*
X95181666Y-109103333D01*
X95181666Y-109270000D01*
X95148333Y-109403333D01*
X95115000Y-109470000D01*
X95081666Y-109503333D01*
X95015000Y-109536666D01*
X94948333Y-109536666D01*
X94881666Y-109503333D01*
X94848333Y-109470000D01*
X94815000Y-109403333D01*
X94781666Y-109270000D01*
X94781666Y-109103333D01*
X94815000Y-108970000D01*
X94848333Y-108903333D01*
X94881666Y-108870000D01*
X94948333Y-108836666D01*
X95848333Y-109536666D02*
X95448333Y-109536666D01*
X95648333Y-109536666D02*
X95648333Y-108836666D01*
X95581666Y-108936666D01*
X95515000Y-109003333D01*
X95448333Y-109036666D01*
%TO.C,C104*%
X108966666Y-127400000D02*
X108933333Y-127433333D01*
X108833333Y-127466666D01*
X108766666Y-127466666D01*
X108666666Y-127433333D01*
X108600000Y-127366666D01*
X108566666Y-127300000D01*
X108533333Y-127166666D01*
X108533333Y-127066666D01*
X108566666Y-126933333D01*
X108600000Y-126866666D01*
X108666666Y-126800000D01*
X108766666Y-126766666D01*
X108833333Y-126766666D01*
X108933333Y-126800000D01*
X108966666Y-126833333D01*
X109633333Y-127466666D02*
X109233333Y-127466666D01*
X109433333Y-127466666D02*
X109433333Y-126766666D01*
X109366666Y-126866666D01*
X109300000Y-126933333D01*
X109233333Y-126966666D01*
X110066666Y-126766666D02*
X110133333Y-126766666D01*
X110200000Y-126800000D01*
X110233333Y-126833333D01*
X110266666Y-126900000D01*
X110300000Y-127033333D01*
X110300000Y-127200000D01*
X110266666Y-127333333D01*
X110233333Y-127400000D01*
X110200000Y-127433333D01*
X110133333Y-127466666D01*
X110066666Y-127466666D01*
X110000000Y-127433333D01*
X109966666Y-127400000D01*
X109933333Y-127333333D01*
X109900000Y-127200000D01*
X109900000Y-127033333D01*
X109933333Y-126900000D01*
X109966666Y-126833333D01*
X110000000Y-126800000D01*
X110066666Y-126766666D01*
X110900000Y-127000000D02*
X110900000Y-127466666D01*
X110733333Y-126733333D02*
X110566666Y-127233333D01*
X111000000Y-127233333D01*
%TO.C,D102*%
X92231666Y-117388333D02*
X91531666Y-117388333D01*
X91531666Y-117221666D01*
X91565000Y-117121666D01*
X91631666Y-117055000D01*
X91698333Y-117021666D01*
X91831666Y-116988333D01*
X91931666Y-116988333D01*
X92065000Y-117021666D01*
X92131666Y-117055000D01*
X92198333Y-117121666D01*
X92231666Y-117221666D01*
X92231666Y-117388333D01*
X92231666Y-116321666D02*
X92231666Y-116721666D01*
X92231666Y-116521666D02*
X91531666Y-116521666D01*
X91631666Y-116588333D01*
X91698333Y-116655000D01*
X91731666Y-116721666D01*
X91531666Y-115888333D02*
X91531666Y-115821666D01*
X91565000Y-115755000D01*
X91598333Y-115721666D01*
X91665000Y-115688333D01*
X91798333Y-115655000D01*
X91965000Y-115655000D01*
X92098333Y-115688333D01*
X92165000Y-115721666D01*
X92198333Y-115755000D01*
X92231666Y-115821666D01*
X92231666Y-115888333D01*
X92198333Y-115955000D01*
X92165000Y-115988333D01*
X92098333Y-116021666D01*
X91965000Y-116055000D01*
X91798333Y-116055000D01*
X91665000Y-116021666D01*
X91598333Y-115988333D01*
X91565000Y-115955000D01*
X91531666Y-115888333D01*
X91598333Y-115388333D02*
X91565000Y-115355000D01*
X91531666Y-115288333D01*
X91531666Y-115121666D01*
X91565000Y-115055000D01*
X91598333Y-115021666D01*
X91665000Y-114988333D01*
X91731666Y-114988333D01*
X91831666Y-115021666D01*
X92231666Y-115421666D01*
X92231666Y-114988333D01*
%TO.C,EN101*%
X87450000Y-125866666D02*
X87450000Y-125633333D01*
X87816666Y-125533333D02*
X87816666Y-125866666D01*
X87116666Y-125866666D01*
X87116666Y-125533333D01*
X87816666Y-125233333D02*
X87116666Y-125233333D01*
X87816666Y-124833333D01*
X87116666Y-124833333D01*
X87816666Y-124133333D02*
X87816666Y-124533333D01*
X87816666Y-124333333D02*
X87116666Y-124333333D01*
X87216666Y-124400000D01*
X87283333Y-124466666D01*
X87316666Y-124533333D01*
X87116666Y-123700000D02*
X87116666Y-123633333D01*
X87150000Y-123566666D01*
X87183333Y-123533333D01*
X87250000Y-123500000D01*
X87383333Y-123466666D01*
X87550000Y-123466666D01*
X87683333Y-123500000D01*
X87750000Y-123533333D01*
X87783333Y-123566666D01*
X87816666Y-123633333D01*
X87816666Y-123700000D01*
X87783333Y-123766666D01*
X87750000Y-123800000D01*
X87683333Y-123833333D01*
X87550000Y-123866666D01*
X87383333Y-123866666D01*
X87250000Y-123833333D01*
X87183333Y-123800000D01*
X87150000Y-123766666D01*
X87116666Y-123700000D01*
X87816666Y-122800000D02*
X87816666Y-123200000D01*
X87816666Y-123000000D02*
X87116666Y-123000000D01*
X87216666Y-123066666D01*
X87283333Y-123133333D01*
X87316666Y-123200000D01*
D11*
X89352380Y-124590000D02*
X89590476Y-124590000D01*
X89495238Y-124828095D02*
X89590476Y-124590000D01*
X89495238Y-124351904D01*
X89780952Y-124732857D02*
X89590476Y-124590000D01*
X89780952Y-124447142D01*
D10*
%TO.C,R111*%
X97166666Y-101886666D02*
X96933333Y-101553333D01*
X96766666Y-101886666D02*
X96766666Y-101186666D01*
X97033333Y-101186666D01*
X97100000Y-101220000D01*
X97133333Y-101253333D01*
X97166666Y-101320000D01*
X97166666Y-101420000D01*
X97133333Y-101486666D01*
X97100000Y-101520000D01*
X97033333Y-101553333D01*
X96766666Y-101553333D01*
X97833333Y-101886666D02*
X97433333Y-101886666D01*
X97633333Y-101886666D02*
X97633333Y-101186666D01*
X97566666Y-101286666D01*
X97500000Y-101353333D01*
X97433333Y-101386666D01*
X98500000Y-101886666D02*
X98100000Y-101886666D01*
X98300000Y-101886666D02*
X98300000Y-101186666D01*
X98233333Y-101286666D01*
X98166666Y-101353333D01*
X98100000Y-101386666D01*
X99166666Y-101886666D02*
X98766666Y-101886666D01*
X98966666Y-101886666D02*
X98966666Y-101186666D01*
X98900000Y-101286666D01*
X98833333Y-101353333D01*
X98766666Y-101386666D01*
%TO.C,R104*%
X100416666Y-120183333D02*
X100083333Y-120416666D01*
X100416666Y-120583333D02*
X99716666Y-120583333D01*
X99716666Y-120316666D01*
X99750000Y-120250000D01*
X99783333Y-120216666D01*
X99850000Y-120183333D01*
X99950000Y-120183333D01*
X100016666Y-120216666D01*
X100050000Y-120250000D01*
X100083333Y-120316666D01*
X100083333Y-120583333D01*
X100416666Y-119516666D02*
X100416666Y-119916666D01*
X100416666Y-119716666D02*
X99716666Y-119716666D01*
X99816666Y-119783333D01*
X99883333Y-119850000D01*
X99916666Y-119916666D01*
X99716666Y-119083333D02*
X99716666Y-119016666D01*
X99750000Y-118950000D01*
X99783333Y-118916666D01*
X99850000Y-118883333D01*
X99983333Y-118850000D01*
X100150000Y-118850000D01*
X100283333Y-118883333D01*
X100350000Y-118916666D01*
X100383333Y-118950000D01*
X100416666Y-119016666D01*
X100416666Y-119083333D01*
X100383333Y-119150000D01*
X100350000Y-119183333D01*
X100283333Y-119216666D01*
X100150000Y-119250000D01*
X99983333Y-119250000D01*
X99850000Y-119216666D01*
X99783333Y-119183333D01*
X99750000Y-119150000D01*
X99716666Y-119083333D01*
X99950000Y-118250000D02*
X100416666Y-118250000D01*
X99683333Y-118416666D02*
X100183333Y-118583333D01*
X100183333Y-118150000D01*
%TO.C,R110*%
X99546666Y-109282666D02*
X99313333Y-108949333D01*
X99146666Y-109282666D02*
X99146666Y-108582666D01*
X99413333Y-108582666D01*
X99480000Y-108616000D01*
X99513333Y-108649333D01*
X99546666Y-108716000D01*
X99546666Y-108816000D01*
X99513333Y-108882666D01*
X99480000Y-108916000D01*
X99413333Y-108949333D01*
X99146666Y-108949333D01*
X100213333Y-109282666D02*
X99813333Y-109282666D01*
X100013333Y-109282666D02*
X100013333Y-108582666D01*
X99946666Y-108682666D01*
X99880000Y-108749333D01*
X99813333Y-108782666D01*
X100880000Y-109282666D02*
X100480000Y-109282666D01*
X100680000Y-109282666D02*
X100680000Y-108582666D01*
X100613333Y-108682666D01*
X100546666Y-108749333D01*
X100480000Y-108782666D01*
X101313333Y-108582666D02*
X101380000Y-108582666D01*
X101446666Y-108616000D01*
X101480000Y-108649333D01*
X101513333Y-108716000D01*
X101546666Y-108849333D01*
X101546666Y-109016000D01*
X101513333Y-109149333D01*
X101480000Y-109216000D01*
X101446666Y-109249333D01*
X101380000Y-109282666D01*
X101313333Y-109282666D01*
X101246666Y-109249333D01*
X101213333Y-109216000D01*
X101180000Y-109149333D01*
X101146666Y-109016000D01*
X101146666Y-108849333D01*
X101180000Y-108716000D01*
X101213333Y-108649333D01*
X101246666Y-108616000D01*
X101313333Y-108582666D01*
%TO.C,C101*%
X88250000Y-120783333D02*
X88283333Y-120816666D01*
X88316666Y-120916666D01*
X88316666Y-120983333D01*
X88283333Y-121083333D01*
X88216666Y-121150000D01*
X88150000Y-121183333D01*
X88016666Y-121216666D01*
X87916666Y-121216666D01*
X87783333Y-121183333D01*
X87716666Y-121150000D01*
X87650000Y-121083333D01*
X87616666Y-120983333D01*
X87616666Y-120916666D01*
X87650000Y-120816666D01*
X87683333Y-120783333D01*
X88316666Y-120116666D02*
X88316666Y-120516666D01*
X88316666Y-120316666D02*
X87616666Y-120316666D01*
X87716666Y-120383333D01*
X87783333Y-120450000D01*
X87816666Y-120516666D01*
X87616666Y-119683333D02*
X87616666Y-119616666D01*
X87650000Y-119550000D01*
X87683333Y-119516666D01*
X87750000Y-119483333D01*
X87883333Y-119450000D01*
X88050000Y-119450000D01*
X88183333Y-119483333D01*
X88250000Y-119516666D01*
X88283333Y-119550000D01*
X88316666Y-119616666D01*
X88316666Y-119683333D01*
X88283333Y-119750000D01*
X88250000Y-119783333D01*
X88183333Y-119816666D01*
X88050000Y-119850000D01*
X87883333Y-119850000D01*
X87750000Y-119816666D01*
X87683333Y-119783333D01*
X87650000Y-119750000D01*
X87616666Y-119683333D01*
X88316666Y-118783333D02*
X88316666Y-119183333D01*
X88316666Y-118983333D02*
X87616666Y-118983333D01*
X87716666Y-119050000D01*
X87783333Y-119116666D01*
X87816666Y-119183333D01*
%TO.C,C106*%
X112150000Y-115483333D02*
X112183333Y-115516666D01*
X112216666Y-115616666D01*
X112216666Y-115683333D01*
X112183333Y-115783333D01*
X112116666Y-115850000D01*
X112050000Y-115883333D01*
X111916666Y-115916666D01*
X111816666Y-115916666D01*
X111683333Y-115883333D01*
X111616666Y-115850000D01*
X111550000Y-115783333D01*
X111516666Y-115683333D01*
X111516666Y-115616666D01*
X111550000Y-115516666D01*
X111583333Y-115483333D01*
X112216666Y-114816666D02*
X112216666Y-115216666D01*
X112216666Y-115016666D02*
X111516666Y-115016666D01*
X111616666Y-115083333D01*
X111683333Y-115150000D01*
X111716666Y-115216666D01*
X111516666Y-114383333D02*
X111516666Y-114316666D01*
X111550000Y-114250000D01*
X111583333Y-114216666D01*
X111650000Y-114183333D01*
X111783333Y-114150000D01*
X111950000Y-114150000D01*
X112083333Y-114183333D01*
X112150000Y-114216666D01*
X112183333Y-114250000D01*
X112216666Y-114316666D01*
X112216666Y-114383333D01*
X112183333Y-114450000D01*
X112150000Y-114483333D01*
X112083333Y-114516666D01*
X111950000Y-114550000D01*
X111783333Y-114550000D01*
X111650000Y-114516666D01*
X111583333Y-114483333D01*
X111550000Y-114450000D01*
X111516666Y-114383333D01*
X111516666Y-113550000D02*
X111516666Y-113683333D01*
X111550000Y-113750000D01*
X111583333Y-113783333D01*
X111683333Y-113850000D01*
X111816666Y-113883333D01*
X112083333Y-113883333D01*
X112150000Y-113850000D01*
X112183333Y-113816666D01*
X112216666Y-113750000D01*
X112216666Y-113616666D01*
X112183333Y-113550000D01*
X112150000Y-113516666D01*
X112083333Y-113483333D01*
X111916666Y-113483333D01*
X111850000Y-113516666D01*
X111816666Y-113550000D01*
X111783333Y-113616666D01*
X111783333Y-113750000D01*
X111816666Y-113816666D01*
X111850000Y-113850000D01*
X111916666Y-113883333D01*
%TO.C,R108*%
X104972266Y-106548933D02*
X104638933Y-106782266D01*
X104972266Y-106948933D02*
X104272266Y-106948933D01*
X104272266Y-106682266D01*
X104305600Y-106615600D01*
X104338933Y-106582266D01*
X104405600Y-106548933D01*
X104505600Y-106548933D01*
X104572266Y-106582266D01*
X104605600Y-106615600D01*
X104638933Y-106682266D01*
X104638933Y-106948933D01*
X104972266Y-105882266D02*
X104972266Y-106282266D01*
X104972266Y-106082266D02*
X104272266Y-106082266D01*
X104372266Y-106148933D01*
X104438933Y-106215600D01*
X104472266Y-106282266D01*
X104272266Y-105448933D02*
X104272266Y-105382266D01*
X104305600Y-105315600D01*
X104338933Y-105282266D01*
X104405600Y-105248933D01*
X104538933Y-105215600D01*
X104705600Y-105215600D01*
X104838933Y-105248933D01*
X104905600Y-105282266D01*
X104938933Y-105315600D01*
X104972266Y-105382266D01*
X104972266Y-105448933D01*
X104938933Y-105515600D01*
X104905600Y-105548933D01*
X104838933Y-105582266D01*
X104705600Y-105615600D01*
X104538933Y-105615600D01*
X104405600Y-105582266D01*
X104338933Y-105548933D01*
X104305600Y-105515600D01*
X104272266Y-105448933D01*
X104572266Y-104815600D02*
X104538933Y-104882266D01*
X104505600Y-104915600D01*
X104438933Y-104948933D01*
X104405600Y-104948933D01*
X104338933Y-104915600D01*
X104305600Y-104882266D01*
X104272266Y-104815600D01*
X104272266Y-104682266D01*
X104305600Y-104615600D01*
X104338933Y-104582266D01*
X104405600Y-104548933D01*
X104438933Y-104548933D01*
X104505600Y-104582266D01*
X104538933Y-104615600D01*
X104572266Y-104682266D01*
X104572266Y-104815600D01*
X104605600Y-104882266D01*
X104638933Y-104915600D01*
X104705600Y-104948933D01*
X104838933Y-104948933D01*
X104905600Y-104915600D01*
X104938933Y-104882266D01*
X104972266Y-104815600D01*
X104972266Y-104682266D01*
X104938933Y-104615600D01*
X104905600Y-104582266D01*
X104838933Y-104548933D01*
X104705600Y-104548933D01*
X104638933Y-104582266D01*
X104605600Y-104615600D01*
X104572266Y-104682266D01*
%TO.C,BOOT101*%
X116075000Y-126025000D02*
X116108333Y-125925000D01*
X116141666Y-125891666D01*
X116208333Y-125858333D01*
X116308333Y-125858333D01*
X116375000Y-125891666D01*
X116408333Y-125925000D01*
X116441666Y-125991666D01*
X116441666Y-126258333D01*
X115741666Y-126258333D01*
X115741666Y-126025000D01*
X115775000Y-125958333D01*
X115808333Y-125925000D01*
X115875000Y-125891666D01*
X115941666Y-125891666D01*
X116008333Y-125925000D01*
X116041666Y-125958333D01*
X116075000Y-126025000D01*
X116075000Y-126258333D01*
X115741666Y-125425000D02*
X115741666Y-125291666D01*
X115775000Y-125225000D01*
X115841666Y-125158333D01*
X115975000Y-125125000D01*
X116208333Y-125125000D01*
X116341666Y-125158333D01*
X116408333Y-125225000D01*
X116441666Y-125291666D01*
X116441666Y-125425000D01*
X116408333Y-125491666D01*
X116341666Y-125558333D01*
X116208333Y-125591666D01*
X115975000Y-125591666D01*
X115841666Y-125558333D01*
X115775000Y-125491666D01*
X115741666Y-125425000D01*
X115741666Y-124691666D02*
X115741666Y-124558333D01*
X115775000Y-124491666D01*
X115841666Y-124425000D01*
X115975000Y-124391666D01*
X116208333Y-124391666D01*
X116341666Y-124425000D01*
X116408333Y-124491666D01*
X116441666Y-124558333D01*
X116441666Y-124691666D01*
X116408333Y-124758333D01*
X116341666Y-124825000D01*
X116208333Y-124858333D01*
X115975000Y-124858333D01*
X115841666Y-124825000D01*
X115775000Y-124758333D01*
X115741666Y-124691666D01*
X115741666Y-124191666D02*
X115741666Y-123791666D01*
X116441666Y-123991666D02*
X115741666Y-123991666D01*
X116441666Y-123191666D02*
X116441666Y-123591666D01*
X116441666Y-123391666D02*
X115741666Y-123391666D01*
X115841666Y-123458333D01*
X115908333Y-123525000D01*
X115941666Y-123591666D01*
X115741666Y-122758333D02*
X115741666Y-122691666D01*
X115775000Y-122625000D01*
X115808333Y-122591666D01*
X115875000Y-122558333D01*
X116008333Y-122525000D01*
X116175000Y-122525000D01*
X116308333Y-122558333D01*
X116375000Y-122591666D01*
X116408333Y-122625000D01*
X116441666Y-122691666D01*
X116441666Y-122758333D01*
X116408333Y-122825000D01*
X116375000Y-122858333D01*
X116308333Y-122891666D01*
X116175000Y-122925000D01*
X116008333Y-122925000D01*
X115875000Y-122891666D01*
X115808333Y-122858333D01*
X115775000Y-122825000D01*
X115741666Y-122758333D01*
X116441666Y-121858333D02*
X116441666Y-122258333D01*
X116441666Y-122058333D02*
X115741666Y-122058333D01*
X115841666Y-122125000D01*
X115908333Y-122191666D01*
X115941666Y-122258333D01*
D11*
X113102380Y-124350000D02*
X113340476Y-124350000D01*
X113245238Y-124588095D02*
X113340476Y-124350000D01*
X113245238Y-124111904D01*
X113530952Y-124492857D02*
X113340476Y-124350000D01*
X113530952Y-124207142D01*
D10*
%TO.C,R114*%
X93290783Y-122393760D02*
X93057450Y-122060427D01*
X92890783Y-122393760D02*
X92890783Y-121693760D01*
X93157450Y-121693760D01*
X93224117Y-121727094D01*
X93257450Y-121760427D01*
X93290783Y-121827094D01*
X93290783Y-121927094D01*
X93257450Y-121993760D01*
X93224117Y-122027094D01*
X93157450Y-122060427D01*
X92890783Y-122060427D01*
X93957450Y-122393760D02*
X93557450Y-122393760D01*
X93757450Y-122393760D02*
X93757450Y-121693760D01*
X93690783Y-121793760D01*
X93624117Y-121860427D01*
X93557450Y-121893760D01*
X94624117Y-122393760D02*
X94224117Y-122393760D01*
X94424117Y-122393760D02*
X94424117Y-121693760D01*
X94357450Y-121793760D01*
X94290783Y-121860427D01*
X94224117Y-121893760D01*
X95224117Y-121927094D02*
X95224117Y-122393760D01*
X95057450Y-121660427D02*
X94890783Y-122160427D01*
X95324117Y-122160427D01*
%TO.C,U102*%
X100400000Y-72716666D02*
X100400000Y-73283333D01*
X100433333Y-73350000D01*
X100466666Y-73383333D01*
X100533333Y-73416666D01*
X100666666Y-73416666D01*
X100733333Y-73383333D01*
X100766666Y-73350000D01*
X100800000Y-73283333D01*
X100800000Y-72716666D01*
X101500000Y-73416666D02*
X101100000Y-73416666D01*
X101300000Y-73416666D02*
X101300000Y-72716666D01*
X101233333Y-72816666D01*
X101166666Y-72883333D01*
X101100000Y-72916666D01*
X101933333Y-72716666D02*
X102000000Y-72716666D01*
X102066666Y-72750000D01*
X102100000Y-72783333D01*
X102133333Y-72850000D01*
X102166666Y-72983333D01*
X102166666Y-73150000D01*
X102133333Y-73283333D01*
X102100000Y-73350000D01*
X102066666Y-73383333D01*
X102000000Y-73416666D01*
X101933333Y-73416666D01*
X101866666Y-73383333D01*
X101833333Y-73350000D01*
X101800000Y-73283333D01*
X101766666Y-73150000D01*
X101766666Y-72983333D01*
X101800000Y-72850000D01*
X101833333Y-72783333D01*
X101866666Y-72750000D01*
X101933333Y-72716666D01*
X102433333Y-72783333D02*
X102466666Y-72750000D01*
X102533333Y-72716666D01*
X102700000Y-72716666D01*
X102766666Y-72750000D01*
X102800000Y-72783333D01*
X102833333Y-72850000D01*
X102833333Y-72916666D01*
X102800000Y-73016666D01*
X102400000Y-73416666D01*
X102833333Y-73416666D01*
D11*
X96838095Y-77566666D02*
X97314285Y-77566666D01*
X96742857Y-77852380D02*
X97076190Y-76852380D01*
X97409523Y-77852380D01*
X97742857Y-77185714D02*
X97742857Y-77852380D01*
X97742857Y-77280952D02*
X97790476Y-77233333D01*
X97885714Y-77185714D01*
X98028571Y-77185714D01*
X98123809Y-77233333D01*
X98171428Y-77328571D01*
X98171428Y-77852380D01*
X98504761Y-77185714D02*
X98885714Y-77185714D01*
X98647619Y-76852380D02*
X98647619Y-77709523D01*
X98695238Y-77804761D01*
X98790476Y-77852380D01*
X98885714Y-77852380D01*
X99600000Y-77804761D02*
X99504761Y-77852380D01*
X99314285Y-77852380D01*
X99219047Y-77804761D01*
X99171428Y-77709523D01*
X99171428Y-77328571D01*
X99219047Y-77233333D01*
X99314285Y-77185714D01*
X99504761Y-77185714D01*
X99600000Y-77233333D01*
X99647619Y-77328571D01*
X99647619Y-77423809D01*
X99171428Y-77519047D01*
X100076190Y-77185714D02*
X100076190Y-77852380D01*
X100076190Y-77280952D02*
X100123809Y-77233333D01*
X100219047Y-77185714D01*
X100361904Y-77185714D01*
X100457142Y-77233333D01*
X100504761Y-77328571D01*
X100504761Y-77852380D01*
X100980952Y-77185714D02*
X100980952Y-77852380D01*
X100980952Y-77280952D02*
X101028571Y-77233333D01*
X101123809Y-77185714D01*
X101266666Y-77185714D01*
X101361904Y-77233333D01*
X101409523Y-77328571D01*
X101409523Y-77852380D01*
X102314285Y-77852380D02*
X102314285Y-77328571D01*
X102266666Y-77233333D01*
X102171428Y-77185714D01*
X101980952Y-77185714D01*
X101885714Y-77233333D01*
X102314285Y-77804761D02*
X102219047Y-77852380D01*
X101980952Y-77852380D01*
X101885714Y-77804761D01*
X101838095Y-77709523D01*
X101838095Y-77614285D01*
X101885714Y-77519047D01*
X101980952Y-77471428D01*
X102219047Y-77471428D01*
X102314285Y-77423809D01*
X103504761Y-77566666D02*
X103980952Y-77566666D01*
X103409523Y-77852380D02*
X103742857Y-76852380D01*
X104076190Y-77852380D01*
X104409523Y-77852380D02*
X104409523Y-77185714D01*
X104409523Y-77376190D02*
X104457142Y-77280952D01*
X104504761Y-77233333D01*
X104600000Y-77185714D01*
X104695238Y-77185714D01*
X105409523Y-77804761D02*
X105314285Y-77852380D01*
X105123809Y-77852380D01*
X105028571Y-77804761D01*
X104980952Y-77709523D01*
X104980952Y-77328571D01*
X105028571Y-77233333D01*
X105123809Y-77185714D01*
X105314285Y-77185714D01*
X105409523Y-77233333D01*
X105457142Y-77328571D01*
X105457142Y-77423809D01*
X104980952Y-77519047D01*
X106314285Y-77852380D02*
X106314285Y-77328571D01*
X106266666Y-77233333D01*
X106171428Y-77185714D01*
X105980952Y-77185714D01*
X105885714Y-77233333D01*
X106314285Y-77804761D02*
X106219047Y-77852380D01*
X105980952Y-77852380D01*
X105885714Y-77804761D01*
X105838095Y-77709523D01*
X105838095Y-77614285D01*
X105885714Y-77519047D01*
X105980952Y-77471428D01*
X106219047Y-77471428D01*
X106314285Y-77423809D01*
D10*
%TO.C,R101*%
X97736666Y-119283333D02*
X97403333Y-119516666D01*
X97736666Y-119683333D02*
X97036666Y-119683333D01*
X97036666Y-119416666D01*
X97070000Y-119350000D01*
X97103333Y-119316666D01*
X97170000Y-119283333D01*
X97270000Y-119283333D01*
X97336666Y-119316666D01*
X97370000Y-119350000D01*
X97403333Y-119416666D01*
X97403333Y-119683333D01*
X97736666Y-118616666D02*
X97736666Y-119016666D01*
X97736666Y-118816666D02*
X97036666Y-118816666D01*
X97136666Y-118883333D01*
X97203333Y-118950000D01*
X97236666Y-119016666D01*
X97036666Y-118183333D02*
X97036666Y-118116666D01*
X97070000Y-118050000D01*
X97103333Y-118016666D01*
X97170000Y-117983333D01*
X97303333Y-117950000D01*
X97470000Y-117950000D01*
X97603333Y-117983333D01*
X97670000Y-118016666D01*
X97703333Y-118050000D01*
X97736666Y-118116666D01*
X97736666Y-118183333D01*
X97703333Y-118250000D01*
X97670000Y-118283333D01*
X97603333Y-118316666D01*
X97470000Y-118350000D01*
X97303333Y-118350000D01*
X97170000Y-118316666D01*
X97103333Y-118283333D01*
X97070000Y-118250000D01*
X97036666Y-118183333D01*
X97736666Y-117283333D02*
X97736666Y-117683333D01*
X97736666Y-117483333D02*
X97036666Y-117483333D01*
X97136666Y-117550000D01*
X97203333Y-117616666D01*
X97236666Y-117683333D01*
%TO.C,C102*%
X93450666Y-118614000D02*
X93417333Y-118647333D01*
X93317333Y-118680666D01*
X93250666Y-118680666D01*
X93150666Y-118647333D01*
X93084000Y-118580666D01*
X93050666Y-118514000D01*
X93017333Y-118380666D01*
X93017333Y-118280666D01*
X93050666Y-118147333D01*
X93084000Y-118080666D01*
X93150666Y-118014000D01*
X93250666Y-117980666D01*
X93317333Y-117980666D01*
X93417333Y-118014000D01*
X93450666Y-118047333D01*
X94117333Y-118680666D02*
X93717333Y-118680666D01*
X93917333Y-118680666D02*
X93917333Y-117980666D01*
X93850666Y-118080666D01*
X93784000Y-118147333D01*
X93717333Y-118180666D01*
X94550666Y-117980666D02*
X94617333Y-117980666D01*
X94684000Y-118014000D01*
X94717333Y-118047333D01*
X94750666Y-118114000D01*
X94784000Y-118247333D01*
X94784000Y-118414000D01*
X94750666Y-118547333D01*
X94717333Y-118614000D01*
X94684000Y-118647333D01*
X94617333Y-118680666D01*
X94550666Y-118680666D01*
X94484000Y-118647333D01*
X94450666Y-118614000D01*
X94417333Y-118547333D01*
X94384000Y-118414000D01*
X94384000Y-118247333D01*
X94417333Y-118114000D01*
X94450666Y-118047333D01*
X94484000Y-118014000D01*
X94550666Y-117980666D01*
X95050666Y-118047333D02*
X95084000Y-118014000D01*
X95150666Y-117980666D01*
X95317333Y-117980666D01*
X95384000Y-118014000D01*
X95417333Y-118047333D01*
X95450666Y-118114000D01*
X95450666Y-118180666D01*
X95417333Y-118280666D01*
X95017333Y-118680666D01*
X95450666Y-118680666D01*
%TO.C,R103*%
X96806666Y-116988333D02*
X96473333Y-117221666D01*
X96806666Y-117388333D02*
X96106666Y-117388333D01*
X96106666Y-117121666D01*
X96140000Y-117055000D01*
X96173333Y-117021666D01*
X96240000Y-116988333D01*
X96340000Y-116988333D01*
X96406666Y-117021666D01*
X96440000Y-117055000D01*
X96473333Y-117121666D01*
X96473333Y-117388333D01*
X96806666Y-116321666D02*
X96806666Y-116721666D01*
X96806666Y-116521666D02*
X96106666Y-116521666D01*
X96206666Y-116588333D01*
X96273333Y-116655000D01*
X96306666Y-116721666D01*
X96106666Y-115888333D02*
X96106666Y-115821666D01*
X96140000Y-115755000D01*
X96173333Y-115721666D01*
X96240000Y-115688333D01*
X96373333Y-115655000D01*
X96540000Y-115655000D01*
X96673333Y-115688333D01*
X96740000Y-115721666D01*
X96773333Y-115755000D01*
X96806666Y-115821666D01*
X96806666Y-115888333D01*
X96773333Y-115955000D01*
X96740000Y-115988333D01*
X96673333Y-116021666D01*
X96540000Y-116055000D01*
X96373333Y-116055000D01*
X96240000Y-116021666D01*
X96173333Y-115988333D01*
X96140000Y-115955000D01*
X96106666Y-115888333D01*
X96106666Y-115421666D02*
X96106666Y-114988333D01*
X96373333Y-115221666D01*
X96373333Y-115121666D01*
X96406666Y-115055000D01*
X96440000Y-115021666D01*
X96506666Y-114988333D01*
X96673333Y-114988333D01*
X96740000Y-115021666D01*
X96773333Y-115055000D01*
X96806666Y-115121666D01*
X96806666Y-115321666D01*
X96773333Y-115388333D01*
X96740000Y-115421666D01*
%TO.C,J101*%
X100700000Y-124466666D02*
X100700000Y-124966666D01*
X100666666Y-125066666D01*
X100600000Y-125133333D01*
X100500000Y-125166666D01*
X100433333Y-125166666D01*
X101400000Y-125166666D02*
X101000000Y-125166666D01*
X101200000Y-125166666D02*
X101200000Y-124466666D01*
X101133333Y-124566666D01*
X101066666Y-124633333D01*
X101000000Y-124666666D01*
X101833333Y-124466666D02*
X101900000Y-124466666D01*
X101966666Y-124500000D01*
X102000000Y-124533333D01*
X102033333Y-124600000D01*
X102066666Y-124733333D01*
X102066666Y-124900000D01*
X102033333Y-125033333D01*
X102000000Y-125100000D01*
X101966666Y-125133333D01*
X101900000Y-125166666D01*
X101833333Y-125166666D01*
X101766666Y-125133333D01*
X101733333Y-125100000D01*
X101700000Y-125033333D01*
X101666666Y-124900000D01*
X101666666Y-124733333D01*
X101700000Y-124600000D01*
X101733333Y-124533333D01*
X101766666Y-124500000D01*
X101833333Y-124466666D01*
X102733333Y-125166666D02*
X102333333Y-125166666D01*
X102533333Y-125166666D02*
X102533333Y-124466666D01*
X102466666Y-124566666D01*
X102400000Y-124633333D01*
X102333333Y-124666666D01*
%TO.C,Q101*%
X101018133Y-114677733D02*
X100984800Y-114744400D01*
X100918133Y-114811066D01*
X100818133Y-114911066D01*
X100784800Y-114977733D01*
X100784800Y-115044400D01*
X100951466Y-115011066D02*
X100918133Y-115077733D01*
X100851466Y-115144400D01*
X100718133Y-115177733D01*
X100484800Y-115177733D01*
X100351466Y-115144400D01*
X100284800Y-115077733D01*
X100251466Y-115011066D01*
X100251466Y-114877733D01*
X100284800Y-114811066D01*
X100351466Y-114744400D01*
X100484800Y-114711066D01*
X100718133Y-114711066D01*
X100851466Y-114744400D01*
X100918133Y-114811066D01*
X100951466Y-114877733D01*
X100951466Y-115011066D01*
X100951466Y-114044400D02*
X100951466Y-114444400D01*
X100951466Y-114244400D02*
X100251466Y-114244400D01*
X100351466Y-114311066D01*
X100418133Y-114377733D01*
X100451466Y-114444400D01*
X100251466Y-113611066D02*
X100251466Y-113544400D01*
X100284800Y-113477733D01*
X100318133Y-113444400D01*
X100384800Y-113411066D01*
X100518133Y-113377733D01*
X100684800Y-113377733D01*
X100818133Y-113411066D01*
X100884800Y-113444400D01*
X100918133Y-113477733D01*
X100951466Y-113544400D01*
X100951466Y-113611066D01*
X100918133Y-113677733D01*
X100884800Y-113711066D01*
X100818133Y-113744400D01*
X100684800Y-113777733D01*
X100518133Y-113777733D01*
X100384800Y-113744400D01*
X100318133Y-113711066D01*
X100284800Y-113677733D01*
X100251466Y-113611066D01*
X100951466Y-112711066D02*
X100951466Y-113111066D01*
X100951466Y-112911066D02*
X100251466Y-112911066D01*
X100351466Y-112977733D01*
X100418133Y-113044400D01*
X100451466Y-113111066D01*
%TO.C,C107*%
X93450666Y-101850000D02*
X93417333Y-101883333D01*
X93317333Y-101916666D01*
X93250666Y-101916666D01*
X93150666Y-101883333D01*
X93084000Y-101816666D01*
X93050666Y-101750000D01*
X93017333Y-101616666D01*
X93017333Y-101516666D01*
X93050666Y-101383333D01*
X93084000Y-101316666D01*
X93150666Y-101250000D01*
X93250666Y-101216666D01*
X93317333Y-101216666D01*
X93417333Y-101250000D01*
X93450666Y-101283333D01*
X94117333Y-101916666D02*
X93717333Y-101916666D01*
X93917333Y-101916666D02*
X93917333Y-101216666D01*
X93850666Y-101316666D01*
X93784000Y-101383333D01*
X93717333Y-101416666D01*
X94550666Y-101216666D02*
X94617333Y-101216666D01*
X94684000Y-101250000D01*
X94717333Y-101283333D01*
X94750666Y-101350000D01*
X94784000Y-101483333D01*
X94784000Y-101650000D01*
X94750666Y-101783333D01*
X94717333Y-101850000D01*
X94684000Y-101883333D01*
X94617333Y-101916666D01*
X94550666Y-101916666D01*
X94484000Y-101883333D01*
X94450666Y-101850000D01*
X94417333Y-101783333D01*
X94384000Y-101650000D01*
X94384000Y-101483333D01*
X94417333Y-101350000D01*
X94450666Y-101283333D01*
X94484000Y-101250000D01*
X94550666Y-101216666D01*
X95017333Y-101216666D02*
X95484000Y-101216666D01*
X95184000Y-101916666D01*
%TO.C,J102*%
X90716666Y-84600000D02*
X91216666Y-84600000D01*
X91316666Y-84633333D01*
X91383333Y-84700000D01*
X91416666Y-84800000D01*
X91416666Y-84866666D01*
X91416666Y-83900000D02*
X91416666Y-84300000D01*
X91416666Y-84100000D02*
X90716666Y-84100000D01*
X90816666Y-84166666D01*
X90883333Y-84233333D01*
X90916666Y-84300000D01*
X90716666Y-83466666D02*
X90716666Y-83400000D01*
X90750000Y-83333333D01*
X90783333Y-83300000D01*
X90850000Y-83266666D01*
X90983333Y-83233333D01*
X91150000Y-83233333D01*
X91283333Y-83266666D01*
X91350000Y-83300000D01*
X91383333Y-83333333D01*
X91416666Y-83400000D01*
X91416666Y-83466666D01*
X91383333Y-83533333D01*
X91350000Y-83566666D01*
X91283333Y-83600000D01*
X91150000Y-83633333D01*
X90983333Y-83633333D01*
X90850000Y-83600000D01*
X90783333Y-83566666D01*
X90750000Y-83533333D01*
X90716666Y-83466666D01*
X90783333Y-82966666D02*
X90750000Y-82933333D01*
X90716666Y-82866666D01*
X90716666Y-82700000D01*
X90750000Y-82633333D01*
X90783333Y-82600000D01*
X90850000Y-82566666D01*
X90916666Y-82566666D01*
X91016666Y-82600000D01*
X91416666Y-83000000D01*
X91416666Y-82566666D01*
%TO.C,R109*%
X99292666Y-110806666D02*
X99059333Y-110473333D01*
X98892666Y-110806666D02*
X98892666Y-110106666D01*
X99159333Y-110106666D01*
X99226000Y-110140000D01*
X99259333Y-110173333D01*
X99292666Y-110240000D01*
X99292666Y-110340000D01*
X99259333Y-110406666D01*
X99226000Y-110440000D01*
X99159333Y-110473333D01*
X98892666Y-110473333D01*
X99959333Y-110806666D02*
X99559333Y-110806666D01*
X99759333Y-110806666D02*
X99759333Y-110106666D01*
X99692666Y-110206666D01*
X99626000Y-110273333D01*
X99559333Y-110306666D01*
X100392666Y-110106666D02*
X100459333Y-110106666D01*
X100526000Y-110140000D01*
X100559333Y-110173333D01*
X100592666Y-110240000D01*
X100626000Y-110373333D01*
X100626000Y-110540000D01*
X100592666Y-110673333D01*
X100559333Y-110740000D01*
X100526000Y-110773333D01*
X100459333Y-110806666D01*
X100392666Y-110806666D01*
X100326000Y-110773333D01*
X100292666Y-110740000D01*
X100259333Y-110673333D01*
X100226000Y-110540000D01*
X100226000Y-110373333D01*
X100259333Y-110240000D01*
X100292666Y-110173333D01*
X100326000Y-110140000D01*
X100392666Y-110106666D01*
X100959333Y-110806666D02*
X101092666Y-110806666D01*
X101159333Y-110773333D01*
X101192666Y-110740000D01*
X101259333Y-110640000D01*
X101292666Y-110506666D01*
X101292666Y-110240000D01*
X101259333Y-110173333D01*
X101226000Y-110140000D01*
X101159333Y-110106666D01*
X101026000Y-110106666D01*
X100959333Y-110140000D01*
X100926000Y-110173333D01*
X100892666Y-110240000D01*
X100892666Y-110406666D01*
X100926000Y-110473333D01*
X100959333Y-110506666D01*
X101026000Y-110540000D01*
X101159333Y-110540000D01*
X101226000Y-110506666D01*
X101259333Y-110473333D01*
X101292666Y-110406666D01*
%TO.C,R102*%
X105266666Y-118316666D02*
X105033333Y-117983333D01*
X104866666Y-118316666D02*
X104866666Y-117616666D01*
X105133333Y-117616666D01*
X105200000Y-117650000D01*
X105233333Y-117683333D01*
X105266666Y-117750000D01*
X105266666Y-117850000D01*
X105233333Y-117916666D01*
X105200000Y-117950000D01*
X105133333Y-117983333D01*
X104866666Y-117983333D01*
X105933333Y-118316666D02*
X105533333Y-118316666D01*
X105733333Y-118316666D02*
X105733333Y-117616666D01*
X105666666Y-117716666D01*
X105600000Y-117783333D01*
X105533333Y-117816666D01*
X106366666Y-117616666D02*
X106433333Y-117616666D01*
X106500000Y-117650000D01*
X106533333Y-117683333D01*
X106566666Y-117750000D01*
X106600000Y-117883333D01*
X106600000Y-118050000D01*
X106566666Y-118183333D01*
X106533333Y-118250000D01*
X106500000Y-118283333D01*
X106433333Y-118316666D01*
X106366666Y-118316666D01*
X106300000Y-118283333D01*
X106266666Y-118250000D01*
X106233333Y-118183333D01*
X106200000Y-118050000D01*
X106200000Y-117883333D01*
X106233333Y-117750000D01*
X106266666Y-117683333D01*
X106300000Y-117650000D01*
X106366666Y-117616666D01*
X106866666Y-117683333D02*
X106900000Y-117650000D01*
X106966666Y-117616666D01*
X107133333Y-117616666D01*
X107200000Y-117650000D01*
X107233333Y-117683333D01*
X107266666Y-117750000D01*
X107266666Y-117816666D01*
X107233333Y-117916666D01*
X106833333Y-118316666D01*
X107266666Y-118316666D01*
%TO.C,R113*%
X108866666Y-124666666D02*
X108633333Y-124333333D01*
X108466666Y-124666666D02*
X108466666Y-123966666D01*
X108733333Y-123966666D01*
X108800000Y-124000000D01*
X108833333Y-124033333D01*
X108866666Y-124100000D01*
X108866666Y-124200000D01*
X108833333Y-124266666D01*
X108800000Y-124300000D01*
X108733333Y-124333333D01*
X108466666Y-124333333D01*
X109533333Y-124666666D02*
X109133333Y-124666666D01*
X109333333Y-124666666D02*
X109333333Y-123966666D01*
X109266666Y-124066666D01*
X109200000Y-124133333D01*
X109133333Y-124166666D01*
X110200000Y-124666666D02*
X109800000Y-124666666D01*
X110000000Y-124666666D02*
X110000000Y-123966666D01*
X109933333Y-124066666D01*
X109866666Y-124133333D01*
X109800000Y-124166666D01*
X110433333Y-123966666D02*
X110866666Y-123966666D01*
X110633333Y-124233333D01*
X110733333Y-124233333D01*
X110800000Y-124266666D01*
X110833333Y-124300000D01*
X110866666Y-124366666D01*
X110866666Y-124533333D01*
X110833333Y-124600000D01*
X110800000Y-124633333D01*
X110733333Y-124666666D01*
X110533333Y-124666666D01*
X110466666Y-124633333D01*
X110433333Y-124600000D01*
%TO.C,C105*%
X93329166Y-124934000D02*
X93295833Y-124967333D01*
X93195833Y-125000666D01*
X93129166Y-125000666D01*
X93029166Y-124967333D01*
X92962500Y-124900666D01*
X92929166Y-124834000D01*
X92895833Y-124700666D01*
X92895833Y-124600666D01*
X92929166Y-124467333D01*
X92962500Y-124400666D01*
X93029166Y-124334000D01*
X93129166Y-124300666D01*
X93195833Y-124300666D01*
X93295833Y-124334000D01*
X93329166Y-124367333D01*
X93995833Y-125000666D02*
X93595833Y-125000666D01*
X93795833Y-125000666D02*
X93795833Y-124300666D01*
X93729166Y-124400666D01*
X93662500Y-124467333D01*
X93595833Y-124500666D01*
X94429166Y-124300666D02*
X94495833Y-124300666D01*
X94562500Y-124334000D01*
X94595833Y-124367333D01*
X94629166Y-124434000D01*
X94662500Y-124567333D01*
X94662500Y-124734000D01*
X94629166Y-124867333D01*
X94595833Y-124934000D01*
X94562500Y-124967333D01*
X94495833Y-125000666D01*
X94429166Y-125000666D01*
X94362500Y-124967333D01*
X94329166Y-124934000D01*
X94295833Y-124867333D01*
X94262500Y-124734000D01*
X94262500Y-124567333D01*
X94295833Y-124434000D01*
X94329166Y-124367333D01*
X94362500Y-124334000D01*
X94429166Y-124300666D01*
X95295833Y-124300666D02*
X94962500Y-124300666D01*
X94929166Y-124634000D01*
X94962500Y-124600666D01*
X95029166Y-124567333D01*
X95195833Y-124567333D01*
X95262500Y-124600666D01*
X95295833Y-124634000D01*
X95329166Y-124700666D01*
X95329166Y-124867333D01*
X95295833Y-124934000D01*
X95262500Y-124967333D01*
X95195833Y-125000666D01*
X95029166Y-125000666D01*
X94962500Y-124967333D01*
X94929166Y-124934000D01*
%TO.C,C103*%
X88250000Y-82783333D02*
X88283333Y-82816666D01*
X88316666Y-82916666D01*
X88316666Y-82983333D01*
X88283333Y-83083333D01*
X88216666Y-83150000D01*
X88150000Y-83183333D01*
X88016666Y-83216666D01*
X87916666Y-83216666D01*
X87783333Y-83183333D01*
X87716666Y-83150000D01*
X87650000Y-83083333D01*
X87616666Y-82983333D01*
X87616666Y-82916666D01*
X87650000Y-82816666D01*
X87683333Y-82783333D01*
X88316666Y-82116666D02*
X88316666Y-82516666D01*
X88316666Y-82316666D02*
X87616666Y-82316666D01*
X87716666Y-82383333D01*
X87783333Y-82450000D01*
X87816666Y-82516666D01*
X87616666Y-81683333D02*
X87616666Y-81616666D01*
X87650000Y-81550000D01*
X87683333Y-81516666D01*
X87750000Y-81483333D01*
X87883333Y-81450000D01*
X88050000Y-81450000D01*
X88183333Y-81483333D01*
X88250000Y-81516666D01*
X88283333Y-81550000D01*
X88316666Y-81616666D01*
X88316666Y-81683333D01*
X88283333Y-81750000D01*
X88250000Y-81783333D01*
X88183333Y-81816666D01*
X88050000Y-81850000D01*
X87883333Y-81850000D01*
X87750000Y-81816666D01*
X87683333Y-81783333D01*
X87650000Y-81750000D01*
X87616666Y-81683333D01*
X87616666Y-81216666D02*
X87616666Y-80783333D01*
X87883333Y-81016666D01*
X87883333Y-80916666D01*
X87916666Y-80850000D01*
X87950000Y-80816666D01*
X88016666Y-80783333D01*
X88183333Y-80783333D01*
X88250000Y-80816666D01*
X88283333Y-80850000D01*
X88316666Y-80916666D01*
X88316666Y-81116666D01*
X88283333Y-81183333D01*
X88250000Y-81216666D01*
%TO.C,R107*%
X105060466Y-114727733D02*
X104727133Y-114961066D01*
X105060466Y-115127733D02*
X104360466Y-115127733D01*
X104360466Y-114861066D01*
X104393800Y-114794400D01*
X104427133Y-114761066D01*
X104493800Y-114727733D01*
X104593800Y-114727733D01*
X104660466Y-114761066D01*
X104693800Y-114794400D01*
X104727133Y-114861066D01*
X104727133Y-115127733D01*
X105060466Y-114061066D02*
X105060466Y-114461066D01*
X105060466Y-114261066D02*
X104360466Y-114261066D01*
X104460466Y-114327733D01*
X104527133Y-114394400D01*
X104560466Y-114461066D01*
X104360466Y-113627733D02*
X104360466Y-113561066D01*
X104393800Y-113494400D01*
X104427133Y-113461066D01*
X104493800Y-113427733D01*
X104627133Y-113394400D01*
X104793800Y-113394400D01*
X104927133Y-113427733D01*
X104993800Y-113461066D01*
X105027133Y-113494400D01*
X105060466Y-113561066D01*
X105060466Y-113627733D01*
X105027133Y-113694400D01*
X104993800Y-113727733D01*
X104927133Y-113761066D01*
X104793800Y-113794400D01*
X104627133Y-113794400D01*
X104493800Y-113761066D01*
X104427133Y-113727733D01*
X104393800Y-113694400D01*
X104360466Y-113627733D01*
X104360466Y-113161066D02*
X104360466Y-112694400D01*
X105060466Y-112994400D01*
D12*
%TO.C,U103*%
X111068000Y-107589000D02*
X111068000Y-106864000D01*
X111068000Y-112084000D02*
X110343000Y-112084000D01*
X105848000Y-111359000D02*
X105848000Y-112084000D01*
X111068000Y-111359000D02*
X111068000Y-112084000D01*
X105848000Y-107589000D02*
X105848000Y-106864000D01*
X105848000Y-106864000D02*
X106573000Y-106864000D01*
X111068000Y-106864000D02*
X110343000Y-106864000D01*
%TO.C,R105*%
X102187221Y-118210000D02*
X102512779Y-118210000D01*
X102187221Y-117190000D02*
X102512779Y-117190000D01*
%TO.C,Q102*%
X99786600Y-107345600D02*
X99786600Y-106415600D01*
X99786600Y-104185600D02*
X99786600Y-105115600D01*
X99786600Y-104185600D02*
X101246600Y-104185600D01*
X99786600Y-107345600D02*
X101946600Y-107345600D01*
%TO.C,R106*%
X108437221Y-121610000D02*
X108762779Y-121610000D01*
X108437221Y-120590000D02*
X108762779Y-120590000D01*
%TO.C,R112*%
X105662000Y-102961221D02*
X105662000Y-103286779D01*
X106682000Y-102961221D02*
X106682000Y-103286779D01*
%TO.C,J103*%
X115630000Y-85090000D02*
X115630000Y-118170000D01*
X115630000Y-82490000D02*
X115630000Y-83820000D01*
X112970000Y-85090000D02*
X115630000Y-85090000D01*
X112970000Y-118170000D02*
X115630000Y-118170000D01*
X114300000Y-82490000D02*
X115630000Y-82490000D01*
X112970000Y-85090000D02*
X112970000Y-118170000D01*
%TO.C,U101*%
X98025000Y-111070000D02*
X98025000Y-107310000D01*
X98025000Y-107310000D02*
X96765000Y-107310000D01*
X91205000Y-113320000D02*
X91205000Y-107310000D01*
X91205000Y-107310000D02*
X92465000Y-107310000D01*
%TO.C,C104*%
X109812779Y-125364000D02*
X109487221Y-125364000D01*
X109812779Y-126384000D02*
X109487221Y-126384000D01*
%TO.C,D102*%
X92610000Y-117690000D02*
X94080000Y-117690000D01*
X94080000Y-117690000D02*
X94080000Y-115405000D01*
X92610000Y-115405000D02*
X92610000Y-117690000D01*
D13*
%TO.C,EN101*%
X90781200Y-121079900D02*
G75*
G03*
X90781200Y-121079900I-76200J0D01*
G01*
X89681740Y-126812500D02*
X90118260Y-126812500D01*
X91424000Y-126812500D02*
X91424000Y-122367500D01*
X90118260Y-122367500D02*
X89681740Y-122367500D01*
X88376000Y-122367500D02*
X88376000Y-126812500D01*
D12*
%TO.C,R111*%
X97787221Y-102490000D02*
X98112779Y-102490000D01*
X97787221Y-103510000D02*
X98112779Y-103510000D01*
%TO.C,R104*%
X102187221Y-120110000D02*
X102512779Y-120110000D01*
X102187221Y-119090000D02*
X102512779Y-119090000D01*
%TO.C,R110*%
X102961221Y-108456000D02*
X103286779Y-108456000D01*
X102961221Y-109476000D02*
X103286779Y-109476000D01*
%TO.C,C101*%
X90682578Y-120598000D02*
X90165422Y-120598000D01*
X90682578Y-119178000D02*
X90165422Y-119178000D01*
%TO.C,C106*%
X109540000Y-114441422D02*
X109540000Y-114958578D01*
X110960000Y-114441422D02*
X110960000Y-114958578D01*
%TO.C,R108*%
X102715600Y-105602821D02*
X102715600Y-105928379D01*
X103735600Y-105602821D02*
X103735600Y-105928379D01*
D13*
%TO.C,BOOT101*%
X115174000Y-126572500D02*
X115174000Y-122127500D01*
X112126000Y-122127500D02*
X112126000Y-126572500D01*
X113431740Y-126572500D02*
X113868260Y-126572500D01*
X113868260Y-122127500D02*
X113431740Y-122127500D01*
X112921200Y-127860100D02*
G75*
G03*
X112921200Y-127860100I-76200J0D01*
G01*
D12*
%TO.C,R114*%
X93902850Y-122837094D02*
X94245384Y-122837094D01*
X93902850Y-123857094D02*
X94245384Y-123857094D01*
%TO.C,U102*%
X92600000Y-99150000D02*
X92600000Y-99900000D01*
X110600000Y-99900000D02*
X109850000Y-99900000D01*
X110600000Y-74400000D02*
X110600000Y-81150000D01*
X109850000Y-99900000D02*
X108100000Y-99900000D01*
X93350000Y-99900000D02*
X95100000Y-99900000D01*
X110600000Y-80340000D02*
X92600000Y-80340000D01*
X110600000Y-99150000D02*
X110600000Y-99900000D01*
X92600000Y-74400000D02*
X92600000Y-81150000D01*
X92600000Y-99900000D02*
X93350000Y-99900000D01*
X92600000Y-74400000D02*
X110600000Y-74400000D01*
%TO.C,R101*%
X99360000Y-118662779D02*
X99360000Y-118337221D01*
X98340000Y-118662779D02*
X98340000Y-118337221D01*
%TO.C,C102*%
X94071221Y-119124000D02*
X94396779Y-119124000D01*
X94071221Y-120144000D02*
X94396779Y-120144000D01*
%TO.C,R103*%
X94550000Y-116042221D02*
X94550000Y-116367779D01*
X95570000Y-116042221D02*
X95570000Y-116367779D01*
D10*
%TO.C,J101*%
X106000000Y-129600000D02*
X97200000Y-129600000D01*
X105800000Y-128500000D02*
X97400000Y-128500000D01*
X97200000Y-122500000D02*
X106000000Y-122500000D01*
X97200000Y-122500000D02*
X97200000Y-129600000D01*
D14*
X101600000Y-122980000D02*
X101600000Y-129300000D01*
D10*
X106000000Y-122500000D02*
X106000000Y-129600000D01*
D12*
%TO.C,Q101*%
X99874800Y-112364400D02*
X101334800Y-112364400D01*
X99874800Y-115524400D02*
X99874800Y-114594400D01*
X99874800Y-115524400D02*
X102034800Y-115524400D01*
X99874800Y-112364400D02*
X99874800Y-113294400D01*
%TO.C,C107*%
X94071221Y-102614000D02*
X94396779Y-102614000D01*
X94071221Y-103634000D02*
X94396779Y-103634000D01*
%TO.C,J102*%
X87570000Y-118170000D02*
X90230000Y-118170000D01*
X90230000Y-85090000D02*
X90230000Y-118170000D01*
X88900000Y-82490000D02*
X90230000Y-82490000D01*
X90230000Y-82490000D02*
X90230000Y-83820000D01*
X87570000Y-85090000D02*
X90230000Y-85090000D01*
X87570000Y-85090000D02*
X87570000Y-118170000D01*
%TO.C,R109*%
X102961221Y-109980000D02*
X103286779Y-109980000D01*
X102961221Y-111000000D02*
X103286779Y-111000000D01*
%TO.C,R102*%
X105837221Y-118740000D02*
X106162779Y-118740000D01*
X105837221Y-119760000D02*
X106162779Y-119760000D01*
%TO.C,R113*%
X109821267Y-122570000D02*
X109478733Y-122570000D01*
X109821267Y-123590000D02*
X109478733Y-123590000D01*
%TO.C,C105*%
X93949721Y-126624000D02*
X94275279Y-126624000D01*
X93949721Y-125604000D02*
X94275279Y-125604000D01*
%TO.C,C103*%
X90162779Y-81710000D02*
X89837221Y-81710000D01*
X90162779Y-80690000D02*
X89837221Y-80690000D01*
%TO.C,R107*%
X103823800Y-113781621D02*
X103823800Y-114107179D01*
X102803800Y-113781621D02*
X102803800Y-114107179D01*
%TD*%
M02*
