%TF.GenerationSoftware,KiCad,Pcbnew,(5.99.0-12972-g3d2ffc12c1)*%
%TF.CreationDate,2021-12-01T23:42:45+01:00*%
%TF.ProjectId,ESP32_CP2102,45535033-325f-4435-9032-3130322e6b69,rev?*%
%TF.SameCoordinates,Original*%
%TF.FileFunction,Copper,L2,Bot*%
%TF.FilePolarity,Positive*%
%FSLAX46Y46*%
G04 Gerber Fmt 4.6, Leading zero omitted, Abs format (unit mm)*
G04 Created by KiCad (PCBNEW (5.99.0-12972-g3d2ffc12c1)) date 2021-12-01 23:42:45*
%MOMM*%
%LPD*%
G01*
G04 APERTURE LIST*
G04 Aperture macros list*
%AMRoundRect*
0 Rectangle with rounded corners*
0 $1 Rounding radius*
0 $2 $3 $4 $5 $6 $7 $8 $9 X,Y pos of 4 corners*
0 Add a 4 corners polygon primitive as box body*
4,1,4,$2,$3,$4,$5,$6,$7,$8,$9,$2,$3,0*
0 Add four circle primitives for the rounded corners*
1,1,$1+$1,$2,$3*
1,1,$1+$1,$4,$5*
1,1,$1+$1,$6,$7*
1,1,$1+$1,$8,$9*
0 Add four rect primitives between the rounded corners*
20,1,$1+$1,$2,$3,$4,$5,0*
20,1,$1+$1,$4,$5,$6,$7,0*
20,1,$1+$1,$6,$7,$8,$9,0*
20,1,$1+$1,$8,$9,$2,$3,0*%
G04 Aperture macros list end*
%TA.AperFunction,ComponentPad*%
%ADD10R,1.700000X1.700000*%
%TD*%
%TA.AperFunction,ComponentPad*%
%ADD11O,1.700000X1.700000*%
%TD*%
%TA.AperFunction,ComponentPad*%
%ADD12RoundRect,0.500000X0.000000X-0.300000X0.000000X-0.300000X0.000000X0.300000X0.000000X0.300000X0*%
%TD*%
%TA.AperFunction,ComponentPad*%
%ADD13RoundRect,0.500000X0.000000X-0.600000X0.000000X-0.600000X0.000000X0.600000X0.000000X0.600000X0*%
%TD*%
%TA.AperFunction,ViaPad*%
%ADD14C,0.400000*%
%TD*%
%TA.AperFunction,Conductor*%
%ADD15C,0.200000*%
%TD*%
G04 APERTURE END LIST*
D10*
%TO.P,J103,1,Pin_1*%
%TO.N,/IO23*%
X114300000Y-83820000D03*
D11*
%TO.P,J103,2,Pin_2*%
%TO.N,/IO22*%
X114300000Y-86360000D03*
%TO.P,J103,3,Pin_3*%
%TO.N,/TXD0*%
X114300000Y-88900000D03*
%TO.P,J103,4,Pin_4*%
%TO.N,/RXD0*%
X114300000Y-91440000D03*
%TO.P,J103,5,Pin_5*%
%TO.N,/IO21*%
X114300000Y-93980000D03*
%TO.P,J103,6,Pin_6*%
%TO.N,/IO19*%
X114300000Y-96520000D03*
%TO.P,J103,7,Pin_7*%
%TO.N,/IO18*%
X114300000Y-99060000D03*
%TO.P,J103,8,Pin_8*%
%TO.N,/IO5*%
X114300000Y-101600000D03*
%TO.P,J103,9,Pin_9*%
%TO.N,/IO4*%
X114300000Y-104140000D03*
%TO.P,J103,10,Pin_10*%
%TO.N,/IO0*%
X114300000Y-106680000D03*
%TO.P,J103,11,Pin_11*%
%TO.N,/IO2*%
X114300000Y-109220000D03*
%TO.P,J103,12,Pin_12*%
%TO.N,/IO15*%
X114300000Y-111760000D03*
%TO.P,J103,13,Pin_13*%
%TO.N,+3V3*%
X114300000Y-114300000D03*
%TO.P,J103,14,Pin_14*%
%TO.N,GND*%
X114300000Y-116840000D03*
%TD*%
D12*
%TO.P,J101,S1,SHIELD*%
%TO.N,Net-(J101-PadS1)*%
X105920000Y-127000000D03*
X97280000Y-127000000D03*
D13*
X97280000Y-122820000D03*
X105920000Y-122820000D03*
%TD*%
D10*
%TO.P,J102,1,Pin_1*%
%TO.N,/EN*%
X88900000Y-83820000D03*
D11*
%TO.P,J102,2,Pin_2*%
%TO.N,/IO36*%
X88900000Y-86360000D03*
%TO.P,J102,3,Pin_3*%
%TO.N,/IO39*%
X88900000Y-88900000D03*
%TO.P,J102,4,Pin_4*%
%TO.N,/IO34*%
X88900000Y-91440000D03*
%TO.P,J102,5,Pin_5*%
%TO.N,/IO35*%
X88900000Y-93980000D03*
%TO.P,J102,6,Pin_6*%
%TO.N,/IO32*%
X88900000Y-96520000D03*
%TO.P,J102,7,Pin_7*%
%TO.N,/IO33*%
X88900000Y-99060000D03*
%TO.P,J102,8,Pin_8*%
%TO.N,/IO25*%
X88900000Y-101600000D03*
%TO.P,J102,9,Pin_9*%
%TO.N,/IO26*%
X88900000Y-104140000D03*
%TO.P,J102,10,Pin_10*%
%TO.N,/IO27*%
X88900000Y-106680000D03*
%TO.P,J102,11,Pin_11*%
%TO.N,/IO14*%
X88900000Y-109220000D03*
%TO.P,J102,12,Pin_12*%
%TO.N,/IO12*%
X88900000Y-111760000D03*
%TO.P,J102,13,Pin_13*%
%TO.N,/IO13*%
X88900000Y-114300000D03*
%TO.P,J102,14,Pin_14*%
%TO.N,GND*%
X88900000Y-116840000D03*
%TD*%
D14*
%TO.N,GND*%
X106200000Y-106800000D03*
X104179281Y-105837767D03*
X105350000Y-113450000D03*
X103550000Y-111750000D03*
%TO.N,+5V*%
X111850000Y-111500000D03*
%TO.N,/RTS*%
X100000000Y-102600000D03*
X101651519Y-103612200D03*
%TO.N,/EN*%
X92100000Y-117850000D03*
X93199117Y-124700883D03*
X89550000Y-124450000D03*
%TO.N,/IO0*%
X114950000Y-119250000D03*
X111200000Y-102250000D03*
X104950000Y-103850000D03*
%TO.N,Net-(J101-PadS1)*%
X101600000Y-126250000D03*
%TO.N,+3V3*%
X93100000Y-101250000D03*
%TO.N,/IO13*%
X97162500Y-101387500D03*
%TO.N,+3V3*%
X95550000Y-107950000D03*
X93200000Y-107950000D03*
X93825500Y-110397141D03*
X92450000Y-114450000D03*
%TO.N,+5V*%
X95850000Y-121100000D03*
X96900000Y-114200000D03*
X96900000Y-110600000D03*
%TO.N,+3V3*%
X111650000Y-113050000D03*
%TO.N,/RTS*%
X100750000Y-112000000D03*
X104325500Y-107641219D03*
%TO.N,/RXD0*%
X101050000Y-109700000D03*
%TO.N,/TXD0*%
X101300000Y-108274500D03*
%TO.N,/RXD0*%
X103700000Y-94950000D03*
%TO.N,/TXD0*%
X102350000Y-95100000D03*
%TO.N,/IO5*%
X108600000Y-93350000D03*
%TO.N,+3V3*%
X94850000Y-83150000D03*
%TO.N,/IO26*%
X94500000Y-94550000D03*
%TO.N,+3V3*%
X94900000Y-122000000D03*
X108650000Y-121850000D03*
%TO.N,+5V*%
X103436418Y-123520500D03*
X99720400Y-123494800D03*
%TD*%
D15*
%TO.N,+5V*%
X110475000Y-112925000D02*
X110475000Y-116025000D01*
X111850000Y-111500000D02*
X110475000Y-112875000D01*
X110475000Y-112875000D02*
X110475000Y-112925000D01*
X110475000Y-116025000D02*
X106000000Y-120500000D01*
X103436418Y-120963582D02*
X103436418Y-123520500D01*
X106000000Y-120500000D02*
X103900000Y-120500000D01*
X103900000Y-120500000D02*
X103436418Y-120963582D01*
%TO.N,/RTS*%
X100000000Y-102600000D02*
X101012200Y-103612200D01*
X101012200Y-103612200D02*
X101651519Y-103612200D01*
%TO.N,/TXD0*%
X102376020Y-95126020D02*
X102376020Y-107198480D01*
X102376020Y-107198480D02*
X101300000Y-108274500D01*
X102350000Y-95100000D02*
X102376020Y-95126020D01*
%TO.N,GND*%
X106200000Y-106800000D02*
X105562233Y-105837767D01*
X105562233Y-105837767D02*
X104179281Y-105837767D01*
X103650000Y-111750000D02*
X105350000Y-113450000D01*
X103550000Y-111750000D02*
X103650000Y-111750000D01*
%TO.N,/RXD0*%
X102950000Y-107800000D02*
X101050000Y-109700000D01*
X102950000Y-107450000D02*
X102950000Y-107800000D01*
X103700000Y-94950000D02*
X102950000Y-95700000D01*
X102950000Y-95700000D02*
X102950000Y-107450000D01*
%TO.N,+3V3*%
X116150000Y-120300000D02*
X116150000Y-104300000D01*
X115800000Y-120650000D02*
X116150000Y-120300000D01*
%TO.N,/IO0*%
X114300000Y-106680000D02*
X115474511Y-107854511D01*
X115474511Y-107854511D02*
X115474511Y-118725489D01*
X115474511Y-118725489D02*
X114950000Y-119250000D01*
%TO.N,/EN*%
X87550000Y-122400000D02*
X87550000Y-122450000D01*
X87200000Y-122100000D02*
X87550000Y-122450000D01*
X87550000Y-122450000D02*
X89550000Y-124450000D01*
X92100000Y-117850000D02*
X87550000Y-122400000D01*
X89550000Y-124450000D02*
X89800883Y-124700883D01*
X89800883Y-124700883D02*
X93199117Y-124700883D01*
X87200000Y-85600000D02*
X87200000Y-122100000D01*
X88900000Y-83900000D02*
X87200000Y-85600000D01*
X88900000Y-83850000D02*
X88900000Y-83900000D01*
X88900000Y-83820000D02*
X88900000Y-83850000D01*
%TO.N,/IO0*%
X111200000Y-102250000D02*
X109600000Y-103850000D01*
X109600000Y-103850000D02*
X104950000Y-103850000D01*
%TO.N,Net-(J101-PadS1)*%
X97900000Y-127650000D02*
X101550000Y-127650000D01*
X101550000Y-127650000D02*
X105300000Y-127650000D01*
X101600000Y-127600000D02*
X101550000Y-127650000D01*
X101600000Y-126250000D02*
X101600000Y-127600000D01*
%TO.N,/IO13*%
X95212500Y-101387500D02*
X97162500Y-101387500D01*
X91500000Y-105100000D02*
X95212500Y-101387500D01*
X88900000Y-114300000D02*
X91500000Y-111700000D01*
X91500000Y-111700000D02*
X91500000Y-105100000D01*
%TO.N,/RTS*%
X104325500Y-108424500D02*
X104325500Y-107641219D01*
X100750000Y-112000000D02*
X104325500Y-108424500D01*
%TO.N,/IO5*%
X108600000Y-93350000D02*
X112600000Y-97350000D01*
X112600000Y-97350000D02*
X112600000Y-99900000D01*
X112600000Y-99900000D02*
X114250000Y-101550000D01*
%TO.N,/IO26*%
X90900000Y-97100000D02*
X90900000Y-102200000D01*
X94500000Y-94550000D02*
X93450000Y-94550000D01*
X93450000Y-94550000D02*
X90900000Y-97100000D01*
X90900000Y-102200000D02*
X88900000Y-104200000D01*
%TO.N,Net-(J101-PadS1)*%
X97280000Y-127000000D02*
X97280000Y-127030000D01*
X97280000Y-127030000D02*
X97900000Y-127650000D01*
X105300000Y-127650000D02*
X105900000Y-127050000D01*
%TD*%
%TA.AperFunction,Conductor*%
%TO.N,+3V3*%
G36*
X114286593Y-80312264D02*
G01*
X114287160Y-80312364D01*
X114300000Y-80314628D01*
X114312840Y-80312364D01*
X114325874Y-80312364D01*
X114325874Y-80312884D01*
X114337095Y-80312244D01*
X114561006Y-80325788D01*
X114578868Y-80327957D01*
X114666436Y-80344004D01*
X114827208Y-80373468D01*
X114844666Y-80377770D01*
X115085711Y-80452883D01*
X115102526Y-80459260D01*
X115181599Y-80494847D01*
X115332760Y-80562880D01*
X115348691Y-80571241D01*
X115564756Y-80701856D01*
X115579564Y-80712078D01*
X115778296Y-80867775D01*
X115791764Y-80879706D01*
X115970294Y-81058236D01*
X115982225Y-81071704D01*
X116137922Y-81270436D01*
X116148144Y-81285244D01*
X116278759Y-81501309D01*
X116287120Y-81517240D01*
X116390739Y-81747470D01*
X116397119Y-81764294D01*
X116472228Y-82005328D01*
X116476534Y-82022798D01*
X116522043Y-82271132D01*
X116524212Y-82288994D01*
X116537756Y-82512905D01*
X116537116Y-82524126D01*
X116537636Y-82524126D01*
X116537636Y-82537160D01*
X116535372Y-82550000D01*
X116537636Y-82562840D01*
X116537736Y-82563407D01*
X116540000Y-82589280D01*
X116540000Y-125690720D01*
X116537736Y-125716593D01*
X116535372Y-125730000D01*
X116537636Y-125742840D01*
X116537636Y-125755874D01*
X116537116Y-125755874D01*
X116537756Y-125767095D01*
X116524212Y-125991006D01*
X116522043Y-126008868D01*
X116477057Y-126254350D01*
X116476534Y-126257202D01*
X116472230Y-126274666D01*
X116399681Y-126507484D01*
X116397119Y-126515706D01*
X116390740Y-126532526D01*
X116355153Y-126611599D01*
X116287120Y-126762760D01*
X116278759Y-126778691D01*
X116148144Y-126994756D01*
X116137922Y-127009564D01*
X115982225Y-127208296D01*
X115970294Y-127221764D01*
X115791764Y-127400294D01*
X115778296Y-127412225D01*
X115579564Y-127567922D01*
X115564756Y-127578144D01*
X115348691Y-127708759D01*
X115332760Y-127717120D01*
X115181599Y-127785153D01*
X115102526Y-127820740D01*
X115085711Y-127827117D01*
X114844666Y-127902230D01*
X114827208Y-127906532D01*
X114666436Y-127935996D01*
X114578868Y-127952043D01*
X114561006Y-127954212D01*
X114337095Y-127967756D01*
X114325874Y-127967116D01*
X114325874Y-127967636D01*
X114312840Y-127967636D01*
X114300000Y-127965372D01*
X114287160Y-127967636D01*
X114286593Y-127967736D01*
X114260720Y-127970000D01*
X106718881Y-127970000D01*
X106644381Y-127950038D01*
X106589843Y-127895500D01*
X106569881Y-127821000D01*
X106592800Y-127741599D01*
X106596466Y-127735777D01*
X106601664Y-127729266D01*
X106679827Y-127567577D01*
X106720226Y-127392589D01*
X106720500Y-127387837D01*
X106720499Y-126612164D01*
X106720226Y-126607411D01*
X106679827Y-126432423D01*
X106601664Y-126270734D01*
X106596472Y-126264230D01*
X106596470Y-126264227D01*
X106494817Y-126136890D01*
X106489620Y-126130380D01*
X106474851Y-126118590D01*
X106355773Y-126023530D01*
X106355770Y-126023528D01*
X106349266Y-126018336D01*
X106187577Y-125940173D01*
X106012589Y-125899774D01*
X106007837Y-125899500D01*
X105920144Y-125899500D01*
X105832164Y-125899501D01*
X105827411Y-125899774D01*
X105652423Y-125940173D01*
X105490734Y-126018336D01*
X105484230Y-126023528D01*
X105484227Y-126023530D01*
X105365149Y-126118590D01*
X105350380Y-126130380D01*
X105345183Y-126136890D01*
X105243530Y-126264227D01*
X105243528Y-126264230D01*
X105238336Y-126270734D01*
X105160173Y-126432423D01*
X105119774Y-126607411D01*
X105119500Y-126612163D01*
X105119500Y-126614299D01*
X105119501Y-127100500D01*
X105099539Y-127175000D01*
X105045001Y-127229538D01*
X104970501Y-127249500D01*
X102149500Y-127249500D01*
X102075000Y-127229538D01*
X102020462Y-127175000D01*
X102000500Y-127100500D01*
X102000500Y-126603341D01*
X102019389Y-126532846D01*
X102019200Y-126532754D01*
X102019678Y-126531768D01*
X102019678Y-126531767D01*
X102023282Y-126524329D01*
X102023285Y-126524324D01*
X102063877Y-126440540D01*
X102081710Y-126403733D01*
X102088571Y-126362955D01*
X102104542Y-126268027D01*
X102104543Y-126268021D01*
X102105496Y-126262354D01*
X102105647Y-126250000D01*
X102085323Y-126108082D01*
X102042871Y-126014713D01*
X102030378Y-125987235D01*
X102030376Y-125987232D01*
X102025984Y-125977572D01*
X102019058Y-125969534D01*
X102019056Y-125969531D01*
X101960172Y-125901194D01*
X101932400Y-125868963D01*
X101923496Y-125863192D01*
X101923493Y-125863189D01*
X101856723Y-125819911D01*
X101812095Y-125790985D01*
X101732212Y-125767095D01*
X101684912Y-125752949D01*
X101684910Y-125752949D01*
X101674739Y-125749907D01*
X101664121Y-125749842D01*
X101664120Y-125749842D01*
X101604650Y-125749479D01*
X101531376Y-125749031D01*
X101521171Y-125751948D01*
X101521168Y-125751948D01*
X101403731Y-125785512D01*
X101403729Y-125785513D01*
X101393529Y-125788428D01*
X101384556Y-125794090D01*
X101384555Y-125794090D01*
X101301296Y-125846623D01*
X101272280Y-125864930D01*
X101265256Y-125872884D01*
X101265254Y-125872885D01*
X101241749Y-125899500D01*
X101177377Y-125972388D01*
X101116447Y-126102163D01*
X101094391Y-126243823D01*
X101112980Y-126385979D01*
X101141850Y-126451591D01*
X101166443Y-126507484D01*
X101166445Y-126507487D01*
X101170720Y-126517203D01*
X101177097Y-126524790D01*
X101199500Y-126603176D01*
X101199500Y-127100500D01*
X101179538Y-127175000D01*
X101125000Y-127229538D01*
X101050500Y-127249500D01*
X98229500Y-127249500D01*
X98155000Y-127229538D01*
X98100462Y-127175000D01*
X98080500Y-127100500D01*
X98080499Y-126614308D01*
X98080499Y-126612164D01*
X98080226Y-126607411D01*
X98039827Y-126432423D01*
X97961664Y-126270734D01*
X97956472Y-126264230D01*
X97956470Y-126264227D01*
X97854817Y-126136890D01*
X97849620Y-126130380D01*
X97834851Y-126118590D01*
X97715773Y-126023530D01*
X97715770Y-126023528D01*
X97709266Y-126018336D01*
X97547577Y-125940173D01*
X97372589Y-125899774D01*
X97367837Y-125899500D01*
X97280144Y-125899500D01*
X97192164Y-125899501D01*
X97187411Y-125899774D01*
X97012423Y-125940173D01*
X96850734Y-126018336D01*
X96844230Y-126023528D01*
X96844227Y-126023530D01*
X96725149Y-126118590D01*
X96710380Y-126130380D01*
X96705183Y-126136890D01*
X96603530Y-126264227D01*
X96603528Y-126264230D01*
X96598336Y-126270734D01*
X96520173Y-126432423D01*
X96479774Y-126607411D01*
X96479500Y-126612163D01*
X96479501Y-127387836D01*
X96479774Y-127392589D01*
X96520173Y-127567577D01*
X96598336Y-127729266D01*
X96603534Y-127735777D01*
X96607200Y-127741599D01*
X96630009Y-127815278D01*
X96612923Y-127890489D01*
X96560520Y-127947081D01*
X96481119Y-127970000D01*
X88939280Y-127970000D01*
X88913407Y-127967736D01*
X88912840Y-127967636D01*
X88900000Y-127965372D01*
X88887160Y-127967636D01*
X88874126Y-127967636D01*
X88874126Y-127967116D01*
X88862905Y-127967756D01*
X88638994Y-127954212D01*
X88621132Y-127952043D01*
X88533564Y-127935996D01*
X88372792Y-127906532D01*
X88355334Y-127902230D01*
X88114289Y-127827117D01*
X88097474Y-127820740D01*
X88018401Y-127785153D01*
X87867240Y-127717120D01*
X87851309Y-127708759D01*
X87635244Y-127578144D01*
X87620436Y-127567922D01*
X87421704Y-127412225D01*
X87408236Y-127400294D01*
X87229706Y-127221764D01*
X87217775Y-127208296D01*
X87062078Y-127009564D01*
X87051856Y-126994756D01*
X86921241Y-126778691D01*
X86912880Y-126762760D01*
X86844847Y-126611599D01*
X86809260Y-126532526D01*
X86802881Y-126515706D01*
X86800319Y-126507484D01*
X86727770Y-126274666D01*
X86723466Y-126257202D01*
X86722944Y-126254350D01*
X86677957Y-126008868D01*
X86675788Y-125991006D01*
X86662244Y-125767095D01*
X86662884Y-125755874D01*
X86662364Y-125755874D01*
X86662364Y-125742840D01*
X86664628Y-125730000D01*
X86662264Y-125716593D01*
X86660000Y-125690720D01*
X86660000Y-122486111D01*
X86679962Y-122411611D01*
X86734500Y-122357073D01*
X86809000Y-122337111D01*
X86883500Y-122357073D01*
X86914359Y-122380752D01*
X87244516Y-122710909D01*
X89018649Y-124485041D01*
X89057213Y-124551836D01*
X89061030Y-124571069D01*
X89062980Y-124585979D01*
X89067255Y-124595695D01*
X89067256Y-124595698D01*
X89084083Y-124633939D01*
X89120720Y-124717203D01*
X89127551Y-124725330D01*
X89127552Y-124725331D01*
X89206141Y-124818824D01*
X89212970Y-124826948D01*
X89332313Y-124906390D01*
X89342444Y-124909555D01*
X89453927Y-124944384D01*
X89514854Y-124981246D01*
X89562541Y-125028933D01*
X89572986Y-125034255D01*
X89580530Y-125038099D01*
X89600466Y-125050316D01*
X89616793Y-125062179D01*
X89627945Y-125065803D01*
X89627948Y-125065804D01*
X89633653Y-125067657D01*
X89635988Y-125068416D01*
X89657593Y-125077365D01*
X89675579Y-125086529D01*
X89687163Y-125088364D01*
X89687164Y-125088364D01*
X89695513Y-125089686D01*
X89718247Y-125095143D01*
X89737450Y-125101383D01*
X92852411Y-125101383D01*
X92926911Y-125121345D01*
X92934974Y-125126350D01*
X92972591Y-125151390D01*
X92972595Y-125151392D01*
X92981430Y-125157273D01*
X92991559Y-125160437D01*
X92991560Y-125160438D01*
X93014921Y-125167736D01*
X93118274Y-125200025D01*
X93128881Y-125200219D01*
X93128884Y-125200220D01*
X93191137Y-125201361D01*
X93261616Y-125202653D01*
X93314660Y-125188191D01*
X93389691Y-125167736D01*
X93389694Y-125167735D01*
X93399934Y-125164943D01*
X93408979Y-125159389D01*
X93408982Y-125159388D01*
X93513059Y-125095484D01*
X93522108Y-125089928D01*
X93572500Y-125034255D01*
X93611194Y-124991507D01*
X93611195Y-124991505D01*
X93618317Y-124983637D01*
X93680827Y-124854616D01*
X93686849Y-124818824D01*
X93703659Y-124718910D01*
X93703660Y-124718904D01*
X93704613Y-124713237D01*
X93704764Y-124700883D01*
X93686802Y-124575457D01*
X93685945Y-124569473D01*
X93685945Y-124569472D01*
X93684440Y-124558965D01*
X93650829Y-124485041D01*
X93629495Y-124438118D01*
X93629493Y-124438115D01*
X93625101Y-124428455D01*
X93618175Y-124420417D01*
X93618173Y-124420414D01*
X93545436Y-124336000D01*
X94950000Y-124336000D01*
X94956856Y-124399772D01*
X94968062Y-124451283D01*
X94978823Y-124488801D01*
X94997570Y-124520856D01*
X95030018Y-124576337D01*
X95034481Y-124583969D01*
X95038987Y-124589169D01*
X95038989Y-124589172D01*
X95077780Y-124633939D01*
X95080236Y-124636773D01*
X95124164Y-124678192D01*
X95133663Y-124683022D01*
X95216298Y-124725040D01*
X95216303Y-124725042D01*
X95222439Y-124728162D01*
X95229046Y-124730102D01*
X95229051Y-124730104D01*
X95269354Y-124741938D01*
X95289478Y-124747847D01*
X95320427Y-124752297D01*
X95368732Y-124759243D01*
X95368738Y-124759243D01*
X95374000Y-124760000D01*
X105921000Y-124760000D01*
X105924958Y-124759574D01*
X105924967Y-124759574D01*
X105952886Y-124756572D01*
X105984772Y-124753144D01*
X106036283Y-124741938D01*
X106073801Y-124731177D01*
X106156140Y-124683022D01*
X106163026Y-124678995D01*
X106163028Y-124678993D01*
X106168969Y-124675519D01*
X106210711Y-124639350D01*
X106218939Y-124632220D01*
X106218942Y-124632217D01*
X106221773Y-124629764D01*
X106263192Y-124585836D01*
X106268469Y-124575457D01*
X106310040Y-124493702D01*
X106310042Y-124493697D01*
X106313162Y-124487561D01*
X106323815Y-124451283D01*
X106331346Y-124425634D01*
X106331346Y-124425633D01*
X106332847Y-124420522D01*
X106345000Y-124336000D01*
X106345000Y-124294500D01*
X106343487Y-124280421D01*
X106339675Y-124244973D01*
X106338144Y-124230728D01*
X106335534Y-124218730D01*
X106339202Y-124141689D01*
X106380899Y-124076804D01*
X106388169Y-124070608D01*
X106483110Y-123994817D01*
X106489620Y-123989620D01*
X106494817Y-123983110D01*
X106596470Y-123855773D01*
X106596472Y-123855770D01*
X106601664Y-123849266D01*
X106679827Y-123687577D01*
X106720226Y-123512589D01*
X106720500Y-123507837D01*
X106720499Y-122132164D01*
X106720226Y-122127411D01*
X106679827Y-121952423D01*
X106601664Y-121790734D01*
X106596472Y-121784230D01*
X106596470Y-121784227D01*
X106494817Y-121656890D01*
X106489620Y-121650380D01*
X106451564Y-121620000D01*
X106355773Y-121543530D01*
X106355770Y-121543528D01*
X106349266Y-121538336D01*
X106187577Y-121460173D01*
X106012589Y-121419774D01*
X106007837Y-121419500D01*
X105920144Y-121419500D01*
X105832164Y-121419501D01*
X105827411Y-121419774D01*
X105652423Y-121460173D01*
X105490734Y-121538336D01*
X105484227Y-121543530D01*
X105484223Y-121543533D01*
X105369691Y-121634963D01*
X105299014Y-121665842D01*
X105221745Y-121656999D01*
X105216606Y-121654959D01*
X105210469Y-121651838D01*
X105143430Y-121632153D01*
X105107660Y-121627010D01*
X105064176Y-121620757D01*
X105064170Y-121620757D01*
X105058908Y-121620000D01*
X103985918Y-121620000D01*
X103911418Y-121600038D01*
X103856880Y-121545500D01*
X103836918Y-121471000D01*
X103836918Y-121191193D01*
X103856880Y-121116693D01*
X103880559Y-121085834D01*
X104022252Y-120944141D01*
X104089047Y-120905577D01*
X104127611Y-120900500D01*
X106063433Y-120900500D01*
X106082636Y-120894260D01*
X106105370Y-120888803D01*
X106113719Y-120887481D01*
X106113720Y-120887481D01*
X106125304Y-120885646D01*
X106143290Y-120876482D01*
X106164895Y-120867533D01*
X106167316Y-120866746D01*
X106172938Y-120864920D01*
X106172941Y-120864919D01*
X106184090Y-120861296D01*
X106193573Y-120854406D01*
X106193579Y-120854403D01*
X106200423Y-120849430D01*
X106220356Y-120837215D01*
X106227892Y-120833375D01*
X106227895Y-120833373D01*
X106238342Y-120828050D01*
X106260905Y-120805487D01*
X106260909Y-120805484D01*
X110780484Y-116285909D01*
X110780487Y-116285905D01*
X110803050Y-116263342D01*
X110812217Y-116245351D01*
X110824433Y-116225417D01*
X110829401Y-116218579D01*
X110836296Y-116209089D01*
X110842536Y-116189885D01*
X110851481Y-116168291D01*
X110855321Y-116160755D01*
X110855321Y-116160754D01*
X110860646Y-116150304D01*
X110863803Y-116130369D01*
X110869260Y-116107636D01*
X110875500Y-116088433D01*
X110875500Y-113102611D01*
X110895462Y-113028111D01*
X110919141Y-112997252D01*
X111887435Y-112028958D01*
X111953602Y-111990564D01*
X112040574Y-111966853D01*
X112040577Y-111966852D01*
X112050817Y-111964060D01*
X112059862Y-111958506D01*
X112059865Y-111958505D01*
X112154468Y-111900418D01*
X112172991Y-111889045D01*
X112231130Y-111824814D01*
X112262077Y-111790624D01*
X112262078Y-111790622D01*
X112269200Y-111782754D01*
X112331710Y-111653733D01*
X112336900Y-111622885D01*
X112354542Y-111518027D01*
X112354543Y-111518021D01*
X112355496Y-111512354D01*
X112355647Y-111500000D01*
X112335323Y-111358082D01*
X112302328Y-111285512D01*
X112280378Y-111237235D01*
X112280376Y-111237232D01*
X112275984Y-111227572D01*
X112269058Y-111219534D01*
X112269056Y-111219531D01*
X112197734Y-111136759D01*
X112182400Y-111118963D01*
X112173496Y-111113192D01*
X112173493Y-111113189D01*
X112106723Y-111069911D01*
X112062095Y-111040985D01*
X112015284Y-111026986D01*
X111934912Y-111002949D01*
X111934910Y-111002949D01*
X111924739Y-110999907D01*
X111914121Y-110999842D01*
X111914120Y-110999842D01*
X111854650Y-110999479D01*
X111781376Y-110999031D01*
X111771171Y-111001948D01*
X111771168Y-111001948D01*
X111653731Y-111035512D01*
X111653729Y-111035513D01*
X111643529Y-111038428D01*
X111634556Y-111044090D01*
X111634555Y-111044090D01*
X111551296Y-111096623D01*
X111522280Y-111114930D01*
X111515256Y-111122884D01*
X111515254Y-111122885D01*
X111508345Y-111130708D01*
X111427377Y-111222388D01*
X111366447Y-111352163D01*
X111364814Y-111362651D01*
X111361942Y-111381097D01*
X111330756Y-111451639D01*
X111320075Y-111463532D01*
X110169516Y-112614091D01*
X110169513Y-112614095D01*
X110146950Y-112636658D01*
X110141627Y-112647105D01*
X110141625Y-112647108D01*
X110137785Y-112654644D01*
X110125570Y-112674577D01*
X110120597Y-112681421D01*
X110120594Y-112681427D01*
X110113704Y-112690910D01*
X110110081Y-112702059D01*
X110110080Y-112702062D01*
X110107468Y-112710103D01*
X110098518Y-112731710D01*
X110089354Y-112749696D01*
X110087519Y-112761280D01*
X110087519Y-112761281D01*
X110086197Y-112769630D01*
X110080740Y-112792364D01*
X110074500Y-112811567D01*
X110074500Y-115797389D01*
X110054538Y-115871889D01*
X110030859Y-115902748D01*
X105877748Y-120055859D01*
X105810953Y-120094423D01*
X105772389Y-120099500D01*
X103836567Y-120099500D01*
X103817364Y-120105740D01*
X103794630Y-120111197D01*
X103786281Y-120112519D01*
X103786280Y-120112519D01*
X103774696Y-120114354D01*
X103764246Y-120119679D01*
X103764245Y-120119679D01*
X103756711Y-120123518D01*
X103735105Y-120132467D01*
X103732684Y-120133254D01*
X103727062Y-120135080D01*
X103727059Y-120135081D01*
X103715910Y-120138704D01*
X103706427Y-120145594D01*
X103706421Y-120145597D01*
X103699577Y-120150570D01*
X103679644Y-120162785D01*
X103672108Y-120166625D01*
X103672105Y-120166627D01*
X103661658Y-120171950D01*
X103639095Y-120194513D01*
X103639091Y-120194516D01*
X103130934Y-120702673D01*
X103130931Y-120702677D01*
X103108368Y-120725240D01*
X103103045Y-120735687D01*
X103103043Y-120735690D01*
X103099203Y-120743226D01*
X103086988Y-120763159D01*
X103082015Y-120770003D01*
X103082012Y-120770009D01*
X103075122Y-120779492D01*
X103071499Y-120790641D01*
X103071498Y-120790644D01*
X103068886Y-120798685D01*
X103059936Y-120820292D01*
X103050772Y-120838278D01*
X103048937Y-120849862D01*
X103048937Y-120849863D01*
X103047615Y-120858212D01*
X103042158Y-120880946D01*
X103035918Y-120900149D01*
X103035918Y-121471000D01*
X103015956Y-121545500D01*
X102961418Y-121600038D01*
X102886918Y-121620000D01*
X98874000Y-121620000D01*
X98799500Y-121600038D01*
X98744962Y-121545500D01*
X98725000Y-121471000D01*
X98725000Y-111993823D01*
X100244391Y-111993823D01*
X100251413Y-112047523D01*
X100260737Y-112118824D01*
X100262980Y-112135979D01*
X100320720Y-112267203D01*
X100327551Y-112275330D01*
X100327552Y-112275331D01*
X100374779Y-112331514D01*
X100412970Y-112376948D01*
X100532313Y-112456390D01*
X100542442Y-112459554D01*
X100542443Y-112459555D01*
X100565804Y-112466853D01*
X100669157Y-112499142D01*
X100679764Y-112499336D01*
X100679767Y-112499337D01*
X100742020Y-112500478D01*
X100812499Y-112501770D01*
X100867632Y-112486739D01*
X100940574Y-112466853D01*
X100940577Y-112466852D01*
X100950817Y-112464060D01*
X100959862Y-112458506D01*
X100959865Y-112458505D01*
X101063942Y-112394601D01*
X101072991Y-112389045D01*
X101119453Y-112337714D01*
X101162077Y-112290624D01*
X101162078Y-112290622D01*
X101169200Y-112282754D01*
X101231710Y-112153733D01*
X101235227Y-112132829D01*
X101237776Y-112117679D01*
X101269822Y-112047523D01*
X101279352Y-112037041D01*
X101572570Y-111743823D01*
X103044391Y-111743823D01*
X103047080Y-111764383D01*
X103060223Y-111864892D01*
X103062980Y-111885979D01*
X103120720Y-112017203D01*
X103127551Y-112025330D01*
X103127552Y-112025331D01*
X103165702Y-112070716D01*
X103212970Y-112126948D01*
X103332313Y-112206390D01*
X103342442Y-112209554D01*
X103342443Y-112209555D01*
X103374337Y-112219519D01*
X103469157Y-112249142D01*
X103524755Y-112250161D01*
X103598877Y-112271485D01*
X103627384Y-112293777D01*
X104818649Y-113485042D01*
X104857213Y-113551837D01*
X104861032Y-113571083D01*
X104862980Y-113585979D01*
X104920720Y-113717203D01*
X105012970Y-113826948D01*
X105132313Y-113906390D01*
X105142442Y-113909554D01*
X105142443Y-113909555D01*
X105165804Y-113916853D01*
X105269157Y-113949142D01*
X105279764Y-113949336D01*
X105279767Y-113949337D01*
X105342020Y-113950478D01*
X105412499Y-113951770D01*
X105465543Y-113937308D01*
X105540574Y-113916853D01*
X105540577Y-113916852D01*
X105550817Y-113914060D01*
X105559862Y-113908506D01*
X105559865Y-113908505D01*
X105663942Y-113844601D01*
X105672991Y-113839045D01*
X105711697Y-113796283D01*
X105762077Y-113740624D01*
X105762078Y-113740622D01*
X105769200Y-113732754D01*
X105831710Y-113603733D01*
X105840441Y-113551837D01*
X105854542Y-113468027D01*
X105854543Y-113468021D01*
X105855496Y-113462354D01*
X105855647Y-113450000D01*
X105843508Y-113365238D01*
X105836828Y-113318590D01*
X105836828Y-113318589D01*
X105835323Y-113308082D01*
X105783983Y-113195165D01*
X105780378Y-113187235D01*
X105780376Y-113187232D01*
X105775984Y-113177572D01*
X105769058Y-113169534D01*
X105769056Y-113169531D01*
X105691616Y-113079659D01*
X105682400Y-113068963D01*
X105673496Y-113063192D01*
X105673493Y-113063189D01*
X105580496Y-113002912D01*
X105562095Y-112990985D01*
X105513752Y-112976527D01*
X105448755Y-112957089D01*
X105386088Y-112919695D01*
X104021779Y-111555386D01*
X103991500Y-111511697D01*
X103980379Y-111487237D01*
X103980377Y-111487234D01*
X103975984Y-111477572D01*
X103969058Y-111469534D01*
X103969056Y-111469531D01*
X103892855Y-111381097D01*
X103882400Y-111368963D01*
X103873496Y-111363192D01*
X103873493Y-111363189D01*
X103803521Y-111317836D01*
X103762095Y-111290985D01*
X103715284Y-111276986D01*
X103634912Y-111252949D01*
X103634910Y-111252949D01*
X103624739Y-111249907D01*
X103614121Y-111249842D01*
X103614120Y-111249842D01*
X103554650Y-111249479D01*
X103481376Y-111249031D01*
X103471171Y-111251948D01*
X103471168Y-111251948D01*
X103353731Y-111285512D01*
X103353729Y-111285513D01*
X103343529Y-111288428D01*
X103334556Y-111294090D01*
X103334555Y-111294090D01*
X103306501Y-111311791D01*
X103222280Y-111364930D01*
X103215256Y-111372884D01*
X103215254Y-111372885D01*
X103208002Y-111381097D01*
X103127377Y-111472388D01*
X103066447Y-111602163D01*
X103064814Y-111612651D01*
X103046305Y-111731531D01*
X103044391Y-111743823D01*
X101572570Y-111743823D01*
X104630984Y-108685409D01*
X104630987Y-108685405D01*
X104653550Y-108662842D01*
X104662717Y-108644851D01*
X104674933Y-108624917D01*
X104679901Y-108618079D01*
X104686796Y-108608589D01*
X104693036Y-108589385D01*
X104701981Y-108567791D01*
X104705821Y-108560255D01*
X104705821Y-108560254D01*
X104711146Y-108549804D01*
X104714303Y-108529869D01*
X104719760Y-108507136D01*
X104726000Y-108487933D01*
X104726000Y-107994560D01*
X104744889Y-107924065D01*
X104744700Y-107923973D01*
X104745178Y-107922987D01*
X104745178Y-107922986D01*
X104748782Y-107915548D01*
X104748785Y-107915543D01*
X104778833Y-107853522D01*
X104807210Y-107794952D01*
X104809738Y-107779926D01*
X104830042Y-107659246D01*
X104830043Y-107659240D01*
X104830996Y-107653573D01*
X104831147Y-107641219D01*
X104830136Y-107634158D01*
X104812328Y-107509809D01*
X104812328Y-107509808D01*
X104810823Y-107499301D01*
X104776958Y-107424819D01*
X104755878Y-107378454D01*
X104755876Y-107378451D01*
X104751484Y-107368791D01*
X104744558Y-107360753D01*
X104744556Y-107360750D01*
X104682317Y-107288519D01*
X104657900Y-107260182D01*
X104648996Y-107254411D01*
X104648993Y-107254408D01*
X104548149Y-107189045D01*
X104537595Y-107182204D01*
X104470893Y-107162256D01*
X104410412Y-107144168D01*
X104410410Y-107144168D01*
X104400239Y-107141126D01*
X104389621Y-107141061D01*
X104389620Y-107141061D01*
X104330150Y-107140698D01*
X104256876Y-107140250D01*
X104246671Y-107143167D01*
X104246668Y-107143167D01*
X104129231Y-107176731D01*
X104129229Y-107176732D01*
X104119029Y-107179647D01*
X104110056Y-107185309D01*
X104110055Y-107185309D01*
X104104134Y-107189045D01*
X103997780Y-107256149D01*
X103990756Y-107264103D01*
X103990754Y-107264104D01*
X103969192Y-107288519D01*
X103902877Y-107363607D01*
X103841947Y-107493382D01*
X103840314Y-107503870D01*
X103828192Y-107581730D01*
X103819891Y-107635042D01*
X103828486Y-107700771D01*
X103836327Y-107760731D01*
X103838480Y-107777198D01*
X103852919Y-107810012D01*
X103891943Y-107898703D01*
X103891945Y-107898706D01*
X103896220Y-107908422D01*
X103902597Y-107916009D01*
X103925000Y-107994395D01*
X103925000Y-108196889D01*
X103905038Y-108271389D01*
X103881359Y-108302248D01*
X100713153Y-111470454D01*
X100648740Y-111508358D01*
X100599035Y-111522564D01*
X100553731Y-111535512D01*
X100553729Y-111535513D01*
X100543529Y-111538428D01*
X100422280Y-111614930D01*
X100415256Y-111622884D01*
X100415254Y-111622885D01*
X100368525Y-111675796D01*
X100327377Y-111722388D01*
X100266447Y-111852163D01*
X100264814Y-111862651D01*
X100249516Y-111960909D01*
X100244391Y-111993823D01*
X98725000Y-111993823D01*
X98725000Y-110064000D01*
X98718144Y-110000228D01*
X98706938Y-109948717D01*
X98696177Y-109911199D01*
X98656448Y-109843267D01*
X98643995Y-109821974D01*
X98643993Y-109821972D01*
X98640519Y-109816031D01*
X98632182Y-109806409D01*
X98597220Y-109766061D01*
X98597217Y-109766058D01*
X98594764Y-109763227D01*
X98550836Y-109721808D01*
X98506926Y-109699481D01*
X98458702Y-109674960D01*
X98458697Y-109674958D01*
X98452561Y-109671838D01*
X98445954Y-109669898D01*
X98445949Y-109669896D01*
X98390634Y-109653654D01*
X98390633Y-109653654D01*
X98385522Y-109652153D01*
X98345720Y-109646430D01*
X98306268Y-109640757D01*
X98306262Y-109640757D01*
X98301000Y-109640000D01*
X95374000Y-109640000D01*
X95370042Y-109640426D01*
X95370033Y-109640426D01*
X95342114Y-109643428D01*
X95310228Y-109646856D01*
X95258717Y-109658062D01*
X95221199Y-109668823D01*
X95155778Y-109707084D01*
X95131974Y-109721005D01*
X95131972Y-109721007D01*
X95126031Y-109724481D01*
X95120831Y-109728987D01*
X95120828Y-109728989D01*
X95078045Y-109766061D01*
X95073227Y-109770236D01*
X95031808Y-109814164D01*
X95026978Y-109823663D01*
X94984960Y-109906298D01*
X94984958Y-109906303D01*
X94981838Y-109912439D01*
X94979898Y-109919046D01*
X94979896Y-109919051D01*
X94970490Y-109951084D01*
X94962153Y-109979478D01*
X94958599Y-110004195D01*
X94954636Y-110031760D01*
X94950000Y-110064000D01*
X94950000Y-121669940D01*
X94950736Y-121690942D01*
X94951951Y-121708255D01*
X94977987Y-121811133D01*
X95001632Y-121863284D01*
X95002022Y-121863107D01*
X95008560Y-121874117D01*
X95009032Y-121874743D01*
X95010673Y-121878803D01*
X95010331Y-121878958D01*
X95013976Y-121886975D01*
X95014689Y-121888739D01*
X95014745Y-121888938D01*
X95015166Y-121889920D01*
X95017578Y-121895887D01*
X95017580Y-121895892D01*
X95020162Y-121902278D01*
X95022818Y-121906432D01*
X95022886Y-121906573D01*
X95037129Y-121937897D01*
X95049005Y-121978580D01*
X95049071Y-121979036D01*
X95048484Y-122024772D01*
X95048407Y-122025229D01*
X95035569Y-122065440D01*
X95007341Y-122123701D01*
X95007772Y-122123910D01*
X95007209Y-122125628D01*
X94984306Y-122173638D01*
X94963108Y-122242976D01*
X94962292Y-122248439D01*
X94962290Y-122248446D01*
X94955581Y-122293339D01*
X94950000Y-122330685D01*
X94950000Y-124336000D01*
X93545436Y-124336000D01*
X93531517Y-124319846D01*
X93522613Y-124314075D01*
X93522610Y-124314072D01*
X93455840Y-124270794D01*
X93411212Y-124241868D01*
X93333844Y-124218730D01*
X93284029Y-124203832D01*
X93284027Y-124203832D01*
X93273856Y-124200790D01*
X93263238Y-124200725D01*
X93263237Y-124200725D01*
X93203767Y-124200362D01*
X93130493Y-124199914D01*
X93120288Y-124202831D01*
X93120285Y-124202831D01*
X93002848Y-124236395D01*
X93002846Y-124236396D01*
X92992646Y-124239311D01*
X92983673Y-124244973D01*
X92983672Y-124244973D01*
X92932283Y-124277397D01*
X92852775Y-124300383D01*
X90127754Y-124300383D01*
X90053254Y-124280421D01*
X89998716Y-124225883D01*
X89992116Y-124213053D01*
X89980378Y-124187236D01*
X89980378Y-124187235D01*
X89975984Y-124177572D01*
X89882400Y-124068963D01*
X89873496Y-124063192D01*
X89873493Y-124063189D01*
X89806723Y-124019911D01*
X89762095Y-123990985D01*
X89648754Y-123957089D01*
X89586087Y-123919695D01*
X88196752Y-122530359D01*
X88158188Y-122463564D01*
X88158188Y-122386436D01*
X88196752Y-122319641D01*
X92137435Y-118378958D01*
X92203602Y-118340564D01*
X92290574Y-118316853D01*
X92290577Y-118316852D01*
X92300817Y-118314060D01*
X92309862Y-118308506D01*
X92309865Y-118308505D01*
X92413942Y-118244601D01*
X92422991Y-118239045D01*
X92461697Y-118196283D01*
X92512077Y-118140624D01*
X92512078Y-118140622D01*
X92519200Y-118132754D01*
X92581710Y-118003733D01*
X92583471Y-117993267D01*
X92604542Y-117868027D01*
X92604543Y-117868021D01*
X92605496Y-117862354D01*
X92605647Y-117850000D01*
X92585323Y-117708082D01*
X92533978Y-117595153D01*
X92530378Y-117587235D01*
X92530376Y-117587232D01*
X92525984Y-117577572D01*
X92519058Y-117569534D01*
X92519056Y-117569531D01*
X92454354Y-117494442D01*
X92432400Y-117468963D01*
X92423496Y-117463192D01*
X92423493Y-117463189D01*
X92343767Y-117411514D01*
X92312095Y-117390985D01*
X92255364Y-117374019D01*
X92184912Y-117352949D01*
X92184910Y-117352949D01*
X92174739Y-117349907D01*
X92164121Y-117349842D01*
X92164120Y-117349842D01*
X92104650Y-117349479D01*
X92031376Y-117349031D01*
X92021171Y-117351948D01*
X92021168Y-117351948D01*
X91903731Y-117385512D01*
X91903729Y-117385513D01*
X91893529Y-117388428D01*
X91884556Y-117394090D01*
X91884555Y-117394090D01*
X91856940Y-117411514D01*
X91772280Y-117464930D01*
X91765256Y-117472884D01*
X91765254Y-117472885D01*
X91746216Y-117494442D01*
X91677377Y-117572388D01*
X91616447Y-117702163D01*
X91614814Y-117712651D01*
X91611942Y-117731097D01*
X91580756Y-117801639D01*
X91570075Y-117813532D01*
X87854859Y-121528748D01*
X87788064Y-121567312D01*
X87710936Y-121567312D01*
X87644141Y-121528748D01*
X87605577Y-121461953D01*
X87600500Y-121423389D01*
X87600500Y-117448519D01*
X87620462Y-117374019D01*
X87675000Y-117319481D01*
X87749500Y-117299519D01*
X87824000Y-117319481D01*
X87878538Y-117374019D01*
X87884807Y-117386126D01*
X87899369Y-117417714D01*
X87903305Y-117423284D01*
X87903306Y-117423285D01*
X87932738Y-117464930D01*
X88021405Y-117590391D01*
X88172865Y-117737937D01*
X88348677Y-117855411D01*
X88354945Y-117858104D01*
X88354947Y-117858105D01*
X88424181Y-117887850D01*
X88542953Y-117938878D01*
X88749186Y-117985544D01*
X88800544Y-117987562D01*
X88953641Y-117993578D01*
X88953645Y-117993578D01*
X88960470Y-117993846D01*
X89169730Y-117963504D01*
X89176187Y-117961312D01*
X89176192Y-117961311D01*
X89337155Y-117906671D01*
X89369955Y-117895537D01*
X89464713Y-117842470D01*
X89548481Y-117795558D01*
X89548486Y-117795554D01*
X89554442Y-117792219D01*
X89717012Y-117657012D01*
X89852219Y-117494442D01*
X89855554Y-117488486D01*
X89855558Y-117488481D01*
X89931459Y-117352949D01*
X89955537Y-117309955D01*
X89986389Y-117219068D01*
X90021311Y-117116192D01*
X90021312Y-117116187D01*
X90023504Y-117109730D01*
X90053846Y-116900470D01*
X90055429Y-116840000D01*
X90036081Y-116629440D01*
X89978686Y-116425931D01*
X89885165Y-116236290D01*
X89881084Y-116230825D01*
X89881081Y-116230820D01*
X89762739Y-116072341D01*
X89762737Y-116072339D01*
X89758651Y-116066867D01*
X89603381Y-115923337D01*
X89424554Y-115810505D01*
X89418215Y-115807976D01*
X89418209Y-115807973D01*
X89234504Y-115734683D01*
X89228160Y-115732152D01*
X89156512Y-115717900D01*
X89087339Y-115683789D01*
X89044489Y-115619659D01*
X89039444Y-115542696D01*
X89073556Y-115473522D01*
X89137686Y-115430672D01*
X89156356Y-115426189D01*
X89156329Y-115426079D01*
X89162977Y-115424483D01*
X89169730Y-115423504D01*
X89176187Y-115421312D01*
X89176192Y-115421311D01*
X89338840Y-115366099D01*
X89369955Y-115355537D01*
X89464713Y-115302470D01*
X89548481Y-115255558D01*
X89548486Y-115255554D01*
X89554442Y-115252219D01*
X89717012Y-115117012D01*
X89852219Y-114954442D01*
X89855554Y-114948486D01*
X89855558Y-114948481D01*
X89919659Y-114834019D01*
X89955537Y-114769955D01*
X89986446Y-114678899D01*
X90021311Y-114576192D01*
X90021312Y-114576187D01*
X90023504Y-114569730D01*
X90053846Y-114360470D01*
X90055429Y-114300000D01*
X90048492Y-114224500D01*
X90036706Y-114096242D01*
X90036081Y-114089440D01*
X89985349Y-113909555D01*
X89980783Y-113893366D01*
X89979774Y-113816245D01*
X90018830Y-113747563D01*
X91805483Y-111960909D01*
X91828050Y-111938342D01*
X91837216Y-111920353D01*
X91849433Y-111900418D01*
X91854401Y-111893580D01*
X91861296Y-111884090D01*
X91867534Y-111864892D01*
X91876480Y-111843294D01*
X91880322Y-111835754D01*
X91880323Y-111835751D01*
X91885646Y-111825304D01*
X91888806Y-111805352D01*
X91894261Y-111782631D01*
X91900499Y-111763433D01*
X91900499Y-111731525D01*
X91900500Y-111731519D01*
X91900500Y-105327611D01*
X91920462Y-105253111D01*
X91944141Y-105222252D01*
X94572570Y-102593823D01*
X99494391Y-102593823D01*
X99501031Y-102644601D01*
X99511349Y-102723504D01*
X99512980Y-102735979D01*
X99570720Y-102867203D01*
X99662970Y-102976948D01*
X99671806Y-102982829D01*
X99671805Y-102982829D01*
X99743899Y-103030819D01*
X99782313Y-103056390D01*
X99792442Y-103059554D01*
X99792443Y-103059555D01*
X99797296Y-103061071D01*
X99903926Y-103094384D01*
X99964852Y-103131245D01*
X100751291Y-103917684D01*
X100751295Y-103917687D01*
X100773858Y-103940250D01*
X100784305Y-103945573D01*
X100784308Y-103945575D01*
X100791844Y-103949415D01*
X100811777Y-103961630D01*
X100818621Y-103966603D01*
X100818627Y-103966606D01*
X100828110Y-103973496D01*
X100839259Y-103977119D01*
X100839262Y-103977120D01*
X100844884Y-103978946D01*
X100847305Y-103979733D01*
X100868910Y-103988682D01*
X100886896Y-103997846D01*
X100898480Y-103999681D01*
X100898481Y-103999681D01*
X100906830Y-104001003D01*
X100929564Y-104006460D01*
X100948767Y-104012700D01*
X101304813Y-104012700D01*
X101379313Y-104032662D01*
X101387376Y-104037667D01*
X101424993Y-104062707D01*
X101424997Y-104062709D01*
X101433832Y-104068590D01*
X101443961Y-104071754D01*
X101443962Y-104071755D01*
X101479548Y-104082872D01*
X101570676Y-104111342D01*
X101581283Y-104111536D01*
X101581286Y-104111537D01*
X101643539Y-104112678D01*
X101714018Y-104113970D01*
X101787329Y-104093983D01*
X101864455Y-104093646D01*
X101931418Y-104131918D01*
X101970273Y-104198544D01*
X101975520Y-104237736D01*
X101975520Y-106970869D01*
X101955558Y-107045369D01*
X101931879Y-107076228D01*
X101263153Y-107744954D01*
X101198740Y-107782858D01*
X101156426Y-107794952D01*
X101103731Y-107810012D01*
X101103729Y-107810013D01*
X101093529Y-107812928D01*
X100972280Y-107889430D01*
X100965256Y-107897384D01*
X100965254Y-107897385D01*
X100940597Y-107925304D01*
X100877377Y-107996888D01*
X100816447Y-108126663D01*
X100814814Y-108137151D01*
X100805624Y-108196179D01*
X100794391Y-108268323D01*
X100812980Y-108410479D01*
X100870720Y-108541703D01*
X100877551Y-108549830D01*
X100877552Y-108549831D01*
X100956141Y-108643324D01*
X100962970Y-108651448D01*
X101082313Y-108730890D01*
X101092441Y-108734054D01*
X101092445Y-108734056D01*
X101129475Y-108745624D01*
X101194633Y-108786893D01*
X101230427Y-108855213D01*
X101227265Y-108932276D01*
X101190403Y-108993204D01*
X101013153Y-109170454D01*
X100948740Y-109208358D01*
X100908007Y-109220000D01*
X100853731Y-109235512D01*
X100853729Y-109235513D01*
X100843529Y-109238428D01*
X100722280Y-109314930D01*
X100627377Y-109422388D01*
X100566447Y-109552163D01*
X100564814Y-109562651D01*
X100549855Y-109658732D01*
X100544391Y-109693823D01*
X100551413Y-109747523D01*
X100561370Y-109823663D01*
X100562980Y-109835979D01*
X100620720Y-109967203D01*
X100627551Y-109975330D01*
X100627552Y-109975331D01*
X100706141Y-110068824D01*
X100712970Y-110076948D01*
X100832313Y-110156390D01*
X100842442Y-110159554D01*
X100842443Y-110159555D01*
X100865804Y-110166853D01*
X100969157Y-110199142D01*
X100979764Y-110199336D01*
X100979767Y-110199337D01*
X101042020Y-110200478D01*
X101112499Y-110201770D01*
X101165543Y-110187308D01*
X101240574Y-110166853D01*
X101240577Y-110166852D01*
X101250817Y-110164060D01*
X101259862Y-110158506D01*
X101259865Y-110158505D01*
X101363942Y-110094601D01*
X101372991Y-110089045D01*
X101449793Y-110004195D01*
X101462077Y-109990624D01*
X101462078Y-109990622D01*
X101469200Y-109982754D01*
X101531710Y-109853733D01*
X101537776Y-109817679D01*
X101569822Y-109747523D01*
X101579352Y-109737041D01*
X103255484Y-108060909D01*
X103255487Y-108060905D01*
X103278050Y-108038342D01*
X103285393Y-108023930D01*
X103287217Y-108020351D01*
X103299433Y-108000417D01*
X103304401Y-107993579D01*
X103311296Y-107984089D01*
X103317536Y-107964885D01*
X103326481Y-107943291D01*
X103330321Y-107935755D01*
X103330321Y-107935754D01*
X103335646Y-107925304D01*
X103338803Y-107905369D01*
X103344260Y-107882636D01*
X103350500Y-107863433D01*
X103350500Y-105831590D01*
X103673672Y-105831590D01*
X103692261Y-105973746D01*
X103750001Y-106104970D01*
X103756832Y-106113097D01*
X103756833Y-106113098D01*
X103792172Y-106155139D01*
X103842251Y-106214715D01*
X103961594Y-106294157D01*
X103971723Y-106297321D01*
X103971724Y-106297322D01*
X103996138Y-106304949D01*
X104098438Y-106336909D01*
X104109045Y-106337103D01*
X104109048Y-106337104D01*
X104171301Y-106338245D01*
X104241780Y-106339537D01*
X104289703Y-106326472D01*
X104369859Y-106304619D01*
X104369862Y-106304618D01*
X104380098Y-106301827D01*
X104389138Y-106296277D01*
X104389146Y-106296273D01*
X104447746Y-106260292D01*
X104525709Y-106238267D01*
X105267200Y-106238267D01*
X105341700Y-106258229D01*
X105391397Y-106304949D01*
X105670897Y-106726645D01*
X105693462Y-106793944D01*
X105694391Y-106793823D01*
X105695474Y-106802104D01*
X105703143Y-106860749D01*
X105712980Y-106935979D01*
X105770720Y-107067203D01*
X105777551Y-107075330D01*
X105777552Y-107075331D01*
X105850620Y-107162256D01*
X105862970Y-107176948D01*
X105982313Y-107256390D01*
X105992442Y-107259554D01*
X105992443Y-107259555D01*
X106015804Y-107266853D01*
X106119157Y-107299142D01*
X106129764Y-107299336D01*
X106129767Y-107299337D01*
X106192020Y-107300478D01*
X106262499Y-107301770D01*
X106315543Y-107287308D01*
X106390574Y-107266853D01*
X106390577Y-107266852D01*
X106400817Y-107264060D01*
X106409862Y-107258506D01*
X106409865Y-107258505D01*
X106513942Y-107194601D01*
X106522991Y-107189045D01*
X106567819Y-107139519D01*
X106612077Y-107090624D01*
X106612078Y-107090622D01*
X106619200Y-107082754D01*
X106681710Y-106953733D01*
X106697354Y-106860749D01*
X106704542Y-106818027D01*
X106704543Y-106818021D01*
X106705496Y-106812354D01*
X106705647Y-106800000D01*
X106685323Y-106658082D01*
X106655654Y-106592827D01*
X106630378Y-106537235D01*
X106630376Y-106537232D01*
X106625984Y-106527572D01*
X106619058Y-106519534D01*
X106619056Y-106519531D01*
X106544713Y-106433253D01*
X106532400Y-106418963D01*
X106523496Y-106413192D01*
X106523493Y-106413189D01*
X106456723Y-106369911D01*
X106412095Y-106340985D01*
X106401925Y-106337943D01*
X106400366Y-106337223D01*
X106338667Y-106284282D01*
X105996458Y-105767974D01*
X105913391Y-105642647D01*
X105904835Y-105627985D01*
X105890283Y-105599425D01*
X105853787Y-105562929D01*
X105849356Y-105558303D01*
X105843212Y-105551607D01*
X105814456Y-105520265D01*
X105806795Y-105515937D01*
X105800575Y-105509717D01*
X105790129Y-105504394D01*
X105790127Y-105504393D01*
X105754578Y-105486280D01*
X105748935Y-105483250D01*
X105714208Y-105463632D01*
X105703998Y-105457864D01*
X105695377Y-105456116D01*
X105687537Y-105452121D01*
X105675953Y-105450286D01*
X105675952Y-105450286D01*
X105655411Y-105447033D01*
X105636519Y-105444041D01*
X105630251Y-105442909D01*
X105579663Y-105432650D01*
X105547815Y-105436299D01*
X105530854Y-105437267D01*
X104525717Y-105437267D01*
X104444676Y-105413300D01*
X104391376Y-105378752D01*
X104322698Y-105358213D01*
X104264193Y-105340716D01*
X104264191Y-105340716D01*
X104254020Y-105337674D01*
X104243402Y-105337609D01*
X104243401Y-105337609D01*
X104183931Y-105337246D01*
X104110657Y-105336798D01*
X104100452Y-105339715D01*
X104100449Y-105339715D01*
X103983012Y-105373279D01*
X103983010Y-105373280D01*
X103972810Y-105376195D01*
X103963837Y-105381857D01*
X103963836Y-105381857D01*
X103914003Y-105413299D01*
X103851561Y-105452697D01*
X103844537Y-105460651D01*
X103844535Y-105460652D01*
X103805905Y-105504393D01*
X103756658Y-105560155D01*
X103695728Y-105689930D01*
X103694095Y-105700418D01*
X103687661Y-105741745D01*
X103673672Y-105831590D01*
X103350500Y-105831590D01*
X103350500Y-103843823D01*
X104444391Y-103843823D01*
X104445768Y-103854350D01*
X104461348Y-103973496D01*
X104462980Y-103985979D01*
X104520720Y-104117203D01*
X104527551Y-104125330D01*
X104527552Y-104125331D01*
X104589094Y-104198544D01*
X104612970Y-104226948D01*
X104732313Y-104306390D01*
X104742442Y-104309554D01*
X104742443Y-104309555D01*
X104778029Y-104320672D01*
X104869157Y-104349142D01*
X104879764Y-104349336D01*
X104879767Y-104349337D01*
X104942020Y-104350478D01*
X105012499Y-104351770D01*
X105060422Y-104338705D01*
X105140578Y-104316852D01*
X105140581Y-104316851D01*
X105150817Y-104314060D01*
X105159857Y-104308510D01*
X105159865Y-104308506D01*
X105218465Y-104272525D01*
X105296428Y-104250500D01*
X109663433Y-104250500D01*
X109682636Y-104244260D01*
X109705370Y-104238803D01*
X109713719Y-104237481D01*
X109713720Y-104237481D01*
X109725304Y-104235646D01*
X109743290Y-104226482D01*
X109764895Y-104217533D01*
X109767316Y-104216746D01*
X109772938Y-104214920D01*
X109772941Y-104214919D01*
X109784090Y-104211296D01*
X109793573Y-104204406D01*
X109793579Y-104204403D01*
X109800423Y-104199430D01*
X109820356Y-104187215D01*
X109827892Y-104183375D01*
X109827895Y-104183373D01*
X109838342Y-104178050D01*
X109860905Y-104155487D01*
X109860909Y-104155484D01*
X111237435Y-102778958D01*
X111303602Y-102740564D01*
X111390574Y-102716853D01*
X111390577Y-102716852D01*
X111400817Y-102714060D01*
X111409862Y-102708506D01*
X111409865Y-102708505D01*
X111513942Y-102644601D01*
X111522991Y-102639045D01*
X111563924Y-102593823D01*
X111612077Y-102540624D01*
X111612078Y-102540622D01*
X111619200Y-102532754D01*
X111681710Y-102403733D01*
X111689883Y-102355153D01*
X111704542Y-102268027D01*
X111704543Y-102268021D01*
X111705496Y-102262354D01*
X111705647Y-102250000D01*
X111689251Y-102135512D01*
X111686828Y-102118590D01*
X111686828Y-102118589D01*
X111685323Y-102108082D01*
X111651689Y-102034108D01*
X111630378Y-101987235D01*
X111630376Y-101987232D01*
X111625984Y-101977572D01*
X111619058Y-101969534D01*
X111619056Y-101969531D01*
X111579192Y-101923267D01*
X111532400Y-101868963D01*
X111523496Y-101863192D01*
X111523493Y-101863189D01*
X111438287Y-101807962D01*
X111412095Y-101790985D01*
X111355080Y-101773934D01*
X111284912Y-101752949D01*
X111284910Y-101752949D01*
X111274739Y-101749907D01*
X111264121Y-101749842D01*
X111264120Y-101749842D01*
X111204650Y-101749479D01*
X111131376Y-101749031D01*
X111121171Y-101751948D01*
X111121168Y-101751948D01*
X111003731Y-101785512D01*
X111003729Y-101785513D01*
X110993529Y-101788428D01*
X110984556Y-101794090D01*
X110984555Y-101794090D01*
X110962569Y-101807962D01*
X110872280Y-101864930D01*
X110865256Y-101872884D01*
X110865254Y-101872885D01*
X110818525Y-101925796D01*
X110777377Y-101972388D01*
X110716447Y-102102163D01*
X110714814Y-102112651D01*
X110711942Y-102131097D01*
X110680756Y-102201639D01*
X110670075Y-102213532D01*
X109477748Y-103405859D01*
X109410953Y-103444423D01*
X109372389Y-103449500D01*
X105296436Y-103449500D01*
X105215395Y-103425533D01*
X105162095Y-103390985D01*
X105081450Y-103366867D01*
X105034912Y-103352949D01*
X105034910Y-103352949D01*
X105024739Y-103349907D01*
X105014121Y-103349842D01*
X105014120Y-103349842D01*
X104954650Y-103349479D01*
X104881376Y-103349031D01*
X104871171Y-103351948D01*
X104871168Y-103351948D01*
X104753731Y-103385512D01*
X104753729Y-103385513D01*
X104743529Y-103388428D01*
X104734556Y-103394090D01*
X104734555Y-103394090D01*
X104715902Y-103405859D01*
X104622280Y-103464930D01*
X104615256Y-103472884D01*
X104615254Y-103472885D01*
X104568525Y-103525796D01*
X104527377Y-103572388D01*
X104466447Y-103702163D01*
X104444391Y-103843823D01*
X103350500Y-103843823D01*
X103350500Y-95927611D01*
X103370462Y-95853111D01*
X103394141Y-95822252D01*
X103737434Y-95478958D01*
X103803602Y-95440564D01*
X103890573Y-95416853D01*
X103890574Y-95416853D01*
X103900817Y-95414060D01*
X103909862Y-95408506D01*
X103909865Y-95408505D01*
X104013942Y-95344601D01*
X104022991Y-95339045D01*
X104061697Y-95296283D01*
X104112077Y-95240624D01*
X104112078Y-95240622D01*
X104119200Y-95232754D01*
X104181710Y-95103733D01*
X104183471Y-95093267D01*
X104204542Y-94968027D01*
X104204543Y-94968021D01*
X104205496Y-94962354D01*
X104205647Y-94950000D01*
X104185323Y-94808082D01*
X104147466Y-94724819D01*
X104130378Y-94687235D01*
X104130376Y-94687232D01*
X104125984Y-94677572D01*
X104119058Y-94669534D01*
X104119056Y-94669531D01*
X104058308Y-94599031D01*
X104032400Y-94568963D01*
X104023496Y-94563192D01*
X104023493Y-94563189D01*
X103947632Y-94514019D01*
X103912095Y-94490985D01*
X103865284Y-94476986D01*
X103784912Y-94452949D01*
X103784910Y-94452949D01*
X103774739Y-94449907D01*
X103764121Y-94449842D01*
X103764120Y-94449842D01*
X103704650Y-94449479D01*
X103631376Y-94449031D01*
X103621171Y-94451948D01*
X103621168Y-94451948D01*
X103503731Y-94485512D01*
X103503729Y-94485513D01*
X103493529Y-94488428D01*
X103484556Y-94494090D01*
X103484555Y-94494090D01*
X103452969Y-94514019D01*
X103372280Y-94564930D01*
X103365256Y-94572884D01*
X103365254Y-94572885D01*
X103339587Y-94601948D01*
X103277377Y-94672388D01*
X103216447Y-94802163D01*
X103214814Y-94812654D01*
X103214813Y-94812656D01*
X103211942Y-94831098D01*
X103180756Y-94901640D01*
X103170074Y-94913533D01*
X103077567Y-95006039D01*
X103010772Y-95044603D01*
X102933644Y-95044603D01*
X102866850Y-95006038D01*
X102837774Y-94956968D01*
X102835323Y-94958082D01*
X102780378Y-94837235D01*
X102780376Y-94837232D01*
X102775984Y-94827572D01*
X102769058Y-94819534D01*
X102769056Y-94819531D01*
X102696350Y-94735153D01*
X102682400Y-94718963D01*
X102673496Y-94713192D01*
X102673493Y-94713189D01*
X102598272Y-94664434D01*
X102562095Y-94640985D01*
X102515285Y-94626986D01*
X102434912Y-94602949D01*
X102434910Y-94602949D01*
X102424739Y-94599907D01*
X102414121Y-94599842D01*
X102414120Y-94599842D01*
X102354650Y-94599479D01*
X102281376Y-94599031D01*
X102271171Y-94601948D01*
X102271168Y-94601948D01*
X102153731Y-94635512D01*
X102153729Y-94635513D01*
X102143529Y-94638428D01*
X102134556Y-94644090D01*
X102134555Y-94644090D01*
X102066174Y-94687235D01*
X102022280Y-94714930D01*
X102015256Y-94722884D01*
X102015254Y-94722885D01*
X101968525Y-94775796D01*
X101927377Y-94822388D01*
X101866447Y-94952163D01*
X101864814Y-94962651D01*
X101846718Y-95078878D01*
X101844391Y-95093823D01*
X101862980Y-95235979D01*
X101869821Y-95251526D01*
X101916443Y-95357484D01*
X101916445Y-95357487D01*
X101920720Y-95367203D01*
X101927553Y-95375332D01*
X101940577Y-95390826D01*
X101973234Y-95460699D01*
X101975520Y-95486700D01*
X101975520Y-102986571D01*
X101955558Y-103061071D01*
X101901020Y-103115609D01*
X101826520Y-103135571D01*
X101783828Y-103129324D01*
X101736431Y-103115149D01*
X101736429Y-103115149D01*
X101726258Y-103112107D01*
X101715640Y-103112042D01*
X101715639Y-103112042D01*
X101656169Y-103111679D01*
X101582895Y-103111231D01*
X101572690Y-103114148D01*
X101572687Y-103114148D01*
X101455250Y-103147712D01*
X101455248Y-103147713D01*
X101445048Y-103150628D01*
X101436075Y-103156290D01*
X101436074Y-103156290D01*
X101384685Y-103188714D01*
X101305177Y-103211700D01*
X101239811Y-103211700D01*
X101165311Y-103191738D01*
X101134452Y-103168059D01*
X100530593Y-102564200D01*
X100492029Y-102497405D01*
X100488457Y-102479965D01*
X100486828Y-102468591D01*
X100485323Y-102458082D01*
X100463420Y-102409908D01*
X100430378Y-102337235D01*
X100430376Y-102337232D01*
X100425984Y-102327572D01*
X100419058Y-102319534D01*
X100419056Y-102319531D01*
X100357834Y-102248481D01*
X100332400Y-102218963D01*
X100323496Y-102213192D01*
X100323493Y-102213189D01*
X100256723Y-102169911D01*
X100212095Y-102140985D01*
X100137211Y-102118590D01*
X100084912Y-102102949D01*
X100084910Y-102102949D01*
X100074739Y-102099907D01*
X100064121Y-102099842D01*
X100064120Y-102099842D01*
X100004650Y-102099479D01*
X99931376Y-102099031D01*
X99921171Y-102101948D01*
X99921168Y-102101948D01*
X99803731Y-102135512D01*
X99803729Y-102135513D01*
X99793529Y-102138428D01*
X99784556Y-102144090D01*
X99784555Y-102144090D01*
X99722435Y-102183285D01*
X99672280Y-102214930D01*
X99665256Y-102222884D01*
X99665254Y-102222885D01*
X99642649Y-102248481D01*
X99577377Y-102322388D01*
X99516447Y-102452163D01*
X99514814Y-102462651D01*
X99500349Y-102555558D01*
X99494391Y-102593823D01*
X94572570Y-102593823D01*
X95334752Y-101831641D01*
X95401547Y-101793077D01*
X95440111Y-101788000D01*
X96815794Y-101788000D01*
X96890294Y-101807962D01*
X96898357Y-101812967D01*
X96935974Y-101838007D01*
X96935978Y-101838009D01*
X96944813Y-101843890D01*
X96954942Y-101847054D01*
X96954943Y-101847055D01*
X96978304Y-101854353D01*
X97081657Y-101886642D01*
X97092264Y-101886836D01*
X97092267Y-101886837D01*
X97154520Y-101887978D01*
X97224999Y-101889270D01*
X97320663Y-101863189D01*
X97353074Y-101854353D01*
X97353077Y-101854352D01*
X97363317Y-101851560D01*
X97372362Y-101846006D01*
X97372365Y-101846005D01*
X97476442Y-101782101D01*
X97485491Y-101776545D01*
X97524197Y-101733783D01*
X97574577Y-101678124D01*
X97574578Y-101678122D01*
X97581700Y-101670254D01*
X97644210Y-101541233D01*
X97667996Y-101399854D01*
X97668147Y-101387500D01*
X97647823Y-101245582D01*
X97601871Y-101144515D01*
X97592878Y-101124735D01*
X97592876Y-101124732D01*
X97588484Y-101115072D01*
X97581558Y-101107034D01*
X97581556Y-101107031D01*
X97503413Y-101016343D01*
X97494900Y-101006463D01*
X97485996Y-101000692D01*
X97485993Y-101000689D01*
X97419223Y-100957411D01*
X97374595Y-100928485D01*
X97327784Y-100914486D01*
X97247412Y-100890449D01*
X97247410Y-100890449D01*
X97237239Y-100887407D01*
X97226621Y-100887342D01*
X97226620Y-100887342D01*
X97167150Y-100886979D01*
X97093876Y-100886531D01*
X97083671Y-100889448D01*
X97083668Y-100889448D01*
X96966231Y-100923012D01*
X96966229Y-100923013D01*
X96956029Y-100925928D01*
X96947056Y-100931590D01*
X96947055Y-100931590D01*
X96895666Y-100964014D01*
X96816158Y-100987000D01*
X95149067Y-100987000D01*
X95129864Y-100993240D01*
X95107130Y-100998697D01*
X95098781Y-101000019D01*
X95098780Y-101000019D01*
X95087196Y-101001854D01*
X95076746Y-101007179D01*
X95076745Y-101007179D01*
X95069209Y-101011019D01*
X95047615Y-101019964D01*
X95028411Y-101026204D01*
X95018921Y-101033099D01*
X95012083Y-101038067D01*
X94992149Y-101050283D01*
X94988570Y-101052107D01*
X94974158Y-101059450D01*
X94951595Y-101082013D01*
X94951591Y-101082016D01*
X91194516Y-104839091D01*
X91194513Y-104839095D01*
X91171950Y-104861658D01*
X91166627Y-104872105D01*
X91166625Y-104872108D01*
X91162785Y-104879644D01*
X91150570Y-104899577D01*
X91145597Y-104906421D01*
X91145594Y-104906427D01*
X91138704Y-104915910D01*
X91135081Y-104927059D01*
X91135080Y-104927062D01*
X91132468Y-104935103D01*
X91123518Y-104956710D01*
X91114354Y-104974696D01*
X91112519Y-104986280D01*
X91112519Y-104986281D01*
X91111197Y-104994630D01*
X91105740Y-105017364D01*
X91099500Y-105036567D01*
X91099500Y-111472390D01*
X91079538Y-111546890D01*
X91055859Y-111577749D01*
X90146868Y-112486740D01*
X90080074Y-112525303D01*
X90002946Y-112525303D01*
X89936151Y-112486739D01*
X89897587Y-112419944D01*
X89897587Y-112342816D01*
X89911508Y-112308576D01*
X89952201Y-112235913D01*
X89952204Y-112235907D01*
X89955537Y-112229955D01*
X89986389Y-112139068D01*
X90021311Y-112036192D01*
X90021312Y-112036187D01*
X90023504Y-112029730D01*
X90053846Y-111820470D01*
X90055429Y-111760000D01*
X90052813Y-111731525D01*
X90036706Y-111556242D01*
X90036081Y-111549440D01*
X90008499Y-111451639D01*
X89980542Y-111352512D01*
X89978686Y-111345931D01*
X89885165Y-111156290D01*
X89881084Y-111150825D01*
X89881081Y-111150820D01*
X89762739Y-110992341D01*
X89762737Y-110992339D01*
X89758651Y-110986867D01*
X89603381Y-110843337D01*
X89424554Y-110730505D01*
X89418215Y-110727976D01*
X89418209Y-110727973D01*
X89234504Y-110654683D01*
X89228160Y-110652152D01*
X89156512Y-110637900D01*
X89087339Y-110603789D01*
X89044489Y-110539659D01*
X89039444Y-110462696D01*
X89073556Y-110393522D01*
X89137686Y-110350672D01*
X89156356Y-110346189D01*
X89156329Y-110346079D01*
X89162977Y-110344483D01*
X89169730Y-110343504D01*
X89176187Y-110341312D01*
X89176192Y-110341311D01*
X89337155Y-110286671D01*
X89369955Y-110275537D01*
X89464713Y-110222470D01*
X89548481Y-110175558D01*
X89548486Y-110175554D01*
X89554442Y-110172219D01*
X89717012Y-110037012D01*
X89852219Y-109874442D01*
X89855554Y-109868486D01*
X89855558Y-109868481D01*
X89909047Y-109772969D01*
X89955537Y-109689955D01*
X90005573Y-109542554D01*
X90021311Y-109496192D01*
X90021312Y-109496187D01*
X90023504Y-109489730D01*
X90053846Y-109280470D01*
X90055429Y-109220000D01*
X90054360Y-109208359D01*
X90036706Y-109016242D01*
X90036081Y-109009440D01*
X89978686Y-108805931D01*
X89885165Y-108616290D01*
X89881084Y-108610825D01*
X89881081Y-108610820D01*
X89762739Y-108452341D01*
X89762737Y-108452339D01*
X89758651Y-108446867D01*
X89603381Y-108303337D01*
X89424554Y-108190505D01*
X89418215Y-108187976D01*
X89418209Y-108187973D01*
X89234504Y-108114683D01*
X89228160Y-108112152D01*
X89156512Y-108097900D01*
X89087339Y-108063789D01*
X89044489Y-107999659D01*
X89039444Y-107922696D01*
X89073556Y-107853522D01*
X89137686Y-107810672D01*
X89156356Y-107806189D01*
X89156329Y-107806079D01*
X89162977Y-107804483D01*
X89169730Y-107803504D01*
X89176187Y-107801312D01*
X89176192Y-107801311D01*
X89342213Y-107744954D01*
X89369955Y-107735537D01*
X89486228Y-107670421D01*
X89548481Y-107635558D01*
X89548486Y-107635554D01*
X89554442Y-107632219D01*
X89717012Y-107497012D01*
X89852219Y-107334442D01*
X89855554Y-107328486D01*
X89855558Y-107328481D01*
X89933645Y-107189045D01*
X89955537Y-107149955D01*
X89982035Y-107071895D01*
X90021311Y-106956192D01*
X90021312Y-106956187D01*
X90023504Y-106949730D01*
X90053846Y-106740470D01*
X90055429Y-106680000D01*
X90036081Y-106469440D01*
X89978686Y-106265931D01*
X89885165Y-106076290D01*
X89881084Y-106070825D01*
X89881081Y-106070820D01*
X89762739Y-105912341D01*
X89762737Y-105912339D01*
X89758651Y-105906867D01*
X89603381Y-105763337D01*
X89424554Y-105650505D01*
X89418215Y-105647976D01*
X89418209Y-105647973D01*
X89234504Y-105574683D01*
X89228160Y-105572152D01*
X89156512Y-105557900D01*
X89087339Y-105523789D01*
X89044489Y-105459659D01*
X89039444Y-105382696D01*
X89073556Y-105313522D01*
X89137686Y-105270672D01*
X89156356Y-105266189D01*
X89156329Y-105266079D01*
X89162977Y-105264483D01*
X89169730Y-105263504D01*
X89176187Y-105261312D01*
X89176192Y-105261311D01*
X89312083Y-105215182D01*
X89369955Y-105195537D01*
X89464713Y-105142470D01*
X89548481Y-105095558D01*
X89548486Y-105095554D01*
X89554442Y-105092219D01*
X89717012Y-104957012D01*
X89852219Y-104794442D01*
X89855554Y-104788486D01*
X89855558Y-104788481D01*
X89919659Y-104674019D01*
X89955537Y-104609955D01*
X89986389Y-104519068D01*
X90021311Y-104416192D01*
X90021312Y-104416187D01*
X90023504Y-104409730D01*
X90053846Y-104200470D01*
X90055429Y-104140000D01*
X90054687Y-104131918D01*
X90036706Y-103936242D01*
X90036081Y-103929440D01*
X90034227Y-103922866D01*
X89993982Y-103780166D01*
X89992973Y-103703045D01*
X90032029Y-103634363D01*
X91228050Y-102438342D01*
X91237216Y-102420353D01*
X91249433Y-102400418D01*
X91254401Y-102393580D01*
X91261296Y-102384090D01*
X91264920Y-102372938D01*
X91264921Y-102372935D01*
X91267532Y-102364897D01*
X91276482Y-102343289D01*
X91280321Y-102335755D01*
X91280321Y-102335754D01*
X91285646Y-102325304D01*
X91288803Y-102305369D01*
X91294260Y-102282636D01*
X91300500Y-102263433D01*
X91300500Y-97327611D01*
X91320462Y-97253111D01*
X91344141Y-97222252D01*
X93572252Y-94994141D01*
X93639047Y-94955577D01*
X93677611Y-94950500D01*
X94153294Y-94950500D01*
X94227794Y-94970462D01*
X94235857Y-94975467D01*
X94273474Y-95000507D01*
X94273478Y-95000509D01*
X94282313Y-95006390D01*
X94292442Y-95009554D01*
X94292443Y-95009555D01*
X94315804Y-95016853D01*
X94419157Y-95049142D01*
X94429764Y-95049336D01*
X94429767Y-95049337D01*
X94492020Y-95050478D01*
X94562499Y-95051770D01*
X94634270Y-95032203D01*
X94690574Y-95016853D01*
X94690577Y-95016852D01*
X94700817Y-95014060D01*
X94709862Y-95008506D01*
X94709865Y-95008505D01*
X94813942Y-94944601D01*
X94822991Y-94939045D01*
X94882615Y-94873173D01*
X94912077Y-94840624D01*
X94912078Y-94840622D01*
X94919200Y-94832754D01*
X94981710Y-94703733D01*
X94985367Y-94681996D01*
X95004542Y-94568027D01*
X95004543Y-94568021D01*
X95005496Y-94562354D01*
X95005647Y-94550000D01*
X94997640Y-94494090D01*
X94986828Y-94418590D01*
X94986828Y-94418589D01*
X94985323Y-94408082D01*
X94955653Y-94342827D01*
X94930378Y-94287235D01*
X94930376Y-94287232D01*
X94925984Y-94277572D01*
X94919058Y-94269534D01*
X94919056Y-94269531D01*
X94873469Y-94216626D01*
X94832400Y-94168963D01*
X94823496Y-94163192D01*
X94823493Y-94163189D01*
X94756723Y-94119911D01*
X94712095Y-94090985D01*
X94665284Y-94076986D01*
X94584912Y-94052949D01*
X94584910Y-94052949D01*
X94574739Y-94049907D01*
X94564121Y-94049842D01*
X94564120Y-94049842D01*
X94504650Y-94049479D01*
X94431376Y-94049031D01*
X94421171Y-94051948D01*
X94421168Y-94051948D01*
X94303731Y-94085512D01*
X94303729Y-94085513D01*
X94293529Y-94088428D01*
X94284556Y-94094090D01*
X94284555Y-94094090D01*
X94233166Y-94126514D01*
X94153658Y-94149500D01*
X93386567Y-94149500D01*
X93367367Y-94155738D01*
X93344634Y-94161196D01*
X93324696Y-94164354D01*
X93314249Y-94169677D01*
X93306710Y-94173518D01*
X93285112Y-94182464D01*
X93277066Y-94185078D01*
X93277063Y-94185080D01*
X93265911Y-94188703D01*
X93256424Y-94195596D01*
X93249576Y-94200571D01*
X93229642Y-94212786D01*
X93222105Y-94216626D01*
X93222101Y-94216629D01*
X93211658Y-94221950D01*
X93189095Y-94244513D01*
X93189091Y-94244516D01*
X90594516Y-96839091D01*
X90594513Y-96839095D01*
X90571950Y-96861658D01*
X90566627Y-96872105D01*
X90566625Y-96872108D01*
X90562785Y-96879644D01*
X90550570Y-96899577D01*
X90545597Y-96906421D01*
X90545594Y-96906427D01*
X90538704Y-96915910D01*
X90535081Y-96927059D01*
X90535080Y-96927062D01*
X90532468Y-96935103D01*
X90523518Y-96956710D01*
X90514354Y-96974696D01*
X90512519Y-96986280D01*
X90512519Y-96986281D01*
X90511197Y-96994630D01*
X90505740Y-97017364D01*
X90499500Y-97036567D01*
X90499500Y-101972390D01*
X90479538Y-102046890D01*
X90455859Y-102077749D01*
X90040539Y-102493069D01*
X89973744Y-102531633D01*
X89896616Y-102531633D01*
X89829821Y-102493069D01*
X89791257Y-102426274D01*
X89791257Y-102349146D01*
X89820622Y-102292435D01*
X89847845Y-102259702D01*
X89847849Y-102259696D01*
X89852219Y-102254442D01*
X89855554Y-102248486D01*
X89855558Y-102248481D01*
X89919659Y-102134019D01*
X89955537Y-102069955D01*
X89988656Y-101972390D01*
X90021311Y-101876192D01*
X90021312Y-101876187D01*
X90023504Y-101869730D01*
X90053846Y-101660470D01*
X90055429Y-101600000D01*
X90036081Y-101389440D01*
X89978686Y-101185931D01*
X89885165Y-100996290D01*
X89881084Y-100990825D01*
X89881081Y-100990820D01*
X89762739Y-100832341D01*
X89762737Y-100832339D01*
X89758651Y-100826867D01*
X89603381Y-100683337D01*
X89424554Y-100570505D01*
X89418215Y-100567976D01*
X89418209Y-100567973D01*
X89234504Y-100494683D01*
X89228160Y-100492152D01*
X89156512Y-100477900D01*
X89087339Y-100443789D01*
X89044489Y-100379659D01*
X89039444Y-100302696D01*
X89073556Y-100233522D01*
X89137686Y-100190672D01*
X89156356Y-100186189D01*
X89156329Y-100186079D01*
X89162977Y-100184483D01*
X89169730Y-100183504D01*
X89176187Y-100181312D01*
X89176192Y-100181311D01*
X89333558Y-100127892D01*
X89369955Y-100115537D01*
X89512416Y-100035755D01*
X89548481Y-100015558D01*
X89548486Y-100015554D01*
X89554442Y-100012219D01*
X89717012Y-99877012D01*
X89852219Y-99714442D01*
X89855554Y-99708486D01*
X89855558Y-99708481D01*
X89919659Y-99594019D01*
X89955537Y-99529955D01*
X89984141Y-99445690D01*
X90021311Y-99336192D01*
X90021312Y-99336187D01*
X90023504Y-99329730D01*
X90053846Y-99120470D01*
X90055429Y-99060000D01*
X90036081Y-98849440D01*
X89978686Y-98645931D01*
X89885165Y-98456290D01*
X89881084Y-98450825D01*
X89881081Y-98450820D01*
X89762739Y-98292341D01*
X89762737Y-98292339D01*
X89758651Y-98286867D01*
X89603381Y-98143337D01*
X89424554Y-98030505D01*
X89418215Y-98027976D01*
X89418209Y-98027973D01*
X89234504Y-97954683D01*
X89228160Y-97952152D01*
X89156512Y-97937900D01*
X89087339Y-97903789D01*
X89044489Y-97839659D01*
X89039444Y-97762696D01*
X89073556Y-97693522D01*
X89137686Y-97650672D01*
X89156356Y-97646189D01*
X89156329Y-97646079D01*
X89162977Y-97644483D01*
X89169730Y-97643504D01*
X89176187Y-97641312D01*
X89176192Y-97641311D01*
X89312083Y-97595182D01*
X89369955Y-97575537D01*
X89464713Y-97522470D01*
X89548481Y-97475558D01*
X89548486Y-97475554D01*
X89554442Y-97472219D01*
X89717012Y-97337012D01*
X89852219Y-97174442D01*
X89855554Y-97168486D01*
X89855558Y-97168481D01*
X89935675Y-97025421D01*
X89955537Y-96989955D01*
X89989436Y-96890091D01*
X90021311Y-96796192D01*
X90021312Y-96796187D01*
X90023504Y-96789730D01*
X90053846Y-96580470D01*
X90055429Y-96520000D01*
X90036081Y-96309440D01*
X89978686Y-96105931D01*
X89885165Y-95916290D01*
X89881084Y-95910825D01*
X89881081Y-95910820D01*
X89762739Y-95752341D01*
X89762737Y-95752339D01*
X89758651Y-95746867D01*
X89603381Y-95603337D01*
X89424554Y-95490505D01*
X89418215Y-95487976D01*
X89418209Y-95487973D01*
X89234504Y-95414683D01*
X89228160Y-95412152D01*
X89156512Y-95397900D01*
X89087339Y-95363789D01*
X89044489Y-95299659D01*
X89039444Y-95222696D01*
X89073556Y-95153522D01*
X89137686Y-95110672D01*
X89156356Y-95106189D01*
X89156329Y-95106079D01*
X89162977Y-95104483D01*
X89169730Y-95103504D01*
X89176187Y-95101312D01*
X89176192Y-95101311D01*
X89330359Y-95048978D01*
X89369955Y-95035537D01*
X89464713Y-94982470D01*
X89548481Y-94935558D01*
X89548486Y-94935554D01*
X89554442Y-94932219D01*
X89717012Y-94797012D01*
X89852219Y-94634442D01*
X89855554Y-94628486D01*
X89855558Y-94628481D01*
X89935624Y-94485512D01*
X89955537Y-94449955D01*
X90014053Y-94277572D01*
X90021311Y-94256192D01*
X90021312Y-94256187D01*
X90023504Y-94249730D01*
X90053846Y-94040470D01*
X90055429Y-93980000D01*
X90036081Y-93769440D01*
X89978686Y-93565931D01*
X89885165Y-93376290D01*
X89881084Y-93370825D01*
X89881081Y-93370820D01*
X89860921Y-93343823D01*
X108094391Y-93343823D01*
X108112980Y-93485979D01*
X108170720Y-93617203D01*
X108262970Y-93726948D01*
X108382313Y-93806390D01*
X108392442Y-93809554D01*
X108392443Y-93809555D01*
X108441822Y-93824982D01*
X108503926Y-93844384D01*
X108564852Y-93881245D01*
X112155859Y-97472251D01*
X112194423Y-97539046D01*
X112199500Y-97577610D01*
X112199500Y-99963433D01*
X112205740Y-99982636D01*
X112211197Y-100005370D01*
X112212282Y-100012219D01*
X112214354Y-100025304D01*
X112219679Y-100035754D01*
X112219679Y-100035755D01*
X112223518Y-100043289D01*
X112232467Y-100064895D01*
X112238704Y-100084090D01*
X112245594Y-100093573D01*
X112245597Y-100093579D01*
X112250570Y-100100423D01*
X112262785Y-100120356D01*
X112266625Y-100127892D01*
X112266627Y-100127895D01*
X112271950Y-100138342D01*
X112294513Y-100160905D01*
X112294516Y-100160909D01*
X113182864Y-101049256D01*
X113221428Y-101116051D01*
X113219803Y-101198799D01*
X113205277Y-101245582D01*
X113169820Y-101359773D01*
X113169018Y-101366550D01*
X113169017Y-101366554D01*
X113147212Y-101550784D01*
X113144967Y-101569754D01*
X113145414Y-101576572D01*
X113158005Y-101768673D01*
X113158796Y-101780749D01*
X113171721Y-101831641D01*
X113207467Y-101972388D01*
X113210845Y-101985690D01*
X113213703Y-101991890D01*
X113213705Y-101991895D01*
X113264540Y-102102163D01*
X113299369Y-102177714D01*
X113303305Y-102183284D01*
X113303306Y-102183285D01*
X113359949Y-102263433D01*
X113421405Y-102350391D01*
X113572865Y-102497937D01*
X113748677Y-102615411D01*
X113942953Y-102698878D01*
X114053903Y-102723984D01*
X114122159Y-102759895D01*
X114163316Y-102825124D01*
X114166344Y-102902193D01*
X114130432Y-102970450D01*
X114065203Y-103011607D01*
X114046252Y-103016157D01*
X114029668Y-103019007D01*
X114000953Y-103023941D01*
X113802575Y-103097127D01*
X113796702Y-103100621D01*
X113643548Y-103191738D01*
X113620856Y-103205238D01*
X113588641Y-103233489D01*
X113467022Y-103340146D01*
X113467019Y-103340149D01*
X113461881Y-103344655D01*
X113425358Y-103390985D01*
X113335207Y-103505340D01*
X113335203Y-103505346D01*
X113330976Y-103510708D01*
X113327797Y-103516751D01*
X113327794Y-103516755D01*
X113293469Y-103581996D01*
X113232523Y-103697836D01*
X113221756Y-103732512D01*
X113171844Y-103893253D01*
X113171843Y-103893258D01*
X113169820Y-103899773D01*
X113169018Y-103906550D01*
X113169017Y-103906554D01*
X113145770Y-104102968D01*
X113144967Y-104109754D01*
X113145414Y-104116572D01*
X113157994Y-104308506D01*
X113158796Y-104320749D01*
X113210845Y-104525690D01*
X113213703Y-104531890D01*
X113213705Y-104531895D01*
X113252435Y-104615907D01*
X113299369Y-104717714D01*
X113303305Y-104723284D01*
X113303306Y-104723285D01*
X113408484Y-104872108D01*
X113421405Y-104890391D01*
X113572865Y-105037937D01*
X113748677Y-105155411D01*
X113942953Y-105238878D01*
X114053903Y-105263984D01*
X114122159Y-105299895D01*
X114163316Y-105365124D01*
X114166344Y-105442193D01*
X114130432Y-105510450D01*
X114065203Y-105551607D01*
X114046252Y-105556157D01*
X114029668Y-105559007D01*
X114000953Y-105563941D01*
X113802575Y-105637127D01*
X113796702Y-105640621D01*
X113780089Y-105650505D01*
X113620856Y-105745238D01*
X113588641Y-105773489D01*
X113467022Y-105880146D01*
X113467019Y-105880149D01*
X113461881Y-105884655D01*
X113406189Y-105955300D01*
X113335207Y-106045340D01*
X113335203Y-106045346D01*
X113330976Y-106050708D01*
X113327797Y-106056751D01*
X113327794Y-106056755D01*
X113314295Y-106082413D01*
X113232523Y-106237836D01*
X113211684Y-106304949D01*
X113171844Y-106433253D01*
X113171843Y-106433258D01*
X113169820Y-106439773D01*
X113169018Y-106446550D01*
X113169017Y-106446554D01*
X113145770Y-106642968D01*
X113144967Y-106649754D01*
X113145414Y-106656572D01*
X113155192Y-106805754D01*
X113158796Y-106860749D01*
X113210845Y-107065690D01*
X113213703Y-107071890D01*
X113213705Y-107071895D01*
X113264847Y-107182829D01*
X113299369Y-107257714D01*
X113303305Y-107263284D01*
X113303306Y-107263285D01*
X113417467Y-107424819D01*
X113421405Y-107430391D01*
X113572865Y-107577937D01*
X113748677Y-107695411D01*
X113754945Y-107698104D01*
X113754947Y-107698105D01*
X113824181Y-107727850D01*
X113942953Y-107778878D01*
X114053903Y-107803984D01*
X114122159Y-107839895D01*
X114163316Y-107905124D01*
X114166344Y-107982193D01*
X114130432Y-108050450D01*
X114065203Y-108091607D01*
X114046252Y-108096157D01*
X114029668Y-108099007D01*
X114000953Y-108103941D01*
X113802575Y-108177127D01*
X113796702Y-108180621D01*
X113649288Y-108268323D01*
X113620856Y-108285238D01*
X113588641Y-108313489D01*
X113467022Y-108420146D01*
X113467019Y-108420149D01*
X113461881Y-108424655D01*
X113421239Y-108476209D01*
X113335207Y-108585340D01*
X113335203Y-108585346D01*
X113330976Y-108590708D01*
X113327797Y-108596751D01*
X113327794Y-108596755D01*
X113307985Y-108634407D01*
X113232523Y-108777836D01*
X113221756Y-108812512D01*
X113171844Y-108973253D01*
X113171843Y-108973258D01*
X113169820Y-108979773D01*
X113169018Y-108986550D01*
X113169017Y-108986554D01*
X113147251Y-109170454D01*
X113144967Y-109189754D01*
X113146663Y-109215634D01*
X113153693Y-109322885D01*
X113158796Y-109400749D01*
X113210845Y-109605690D01*
X113213703Y-109611890D01*
X113213705Y-109611895D01*
X113251475Y-109693823D01*
X113299369Y-109797714D01*
X113303305Y-109803284D01*
X113303306Y-109803285D01*
X113385121Y-109919051D01*
X113421405Y-109970391D01*
X113572865Y-110117937D01*
X113748677Y-110235411D01*
X113942953Y-110318878D01*
X114053903Y-110343984D01*
X114122159Y-110379895D01*
X114163316Y-110445124D01*
X114166344Y-110522193D01*
X114130432Y-110590450D01*
X114065203Y-110631607D01*
X114046252Y-110636157D01*
X114029668Y-110639007D01*
X114000953Y-110643941D01*
X113802575Y-110717127D01*
X113796702Y-110720621D01*
X113780089Y-110730505D01*
X113620856Y-110825238D01*
X113588641Y-110853489D01*
X113467022Y-110960146D01*
X113467019Y-110960149D01*
X113461881Y-110964655D01*
X113434730Y-110999096D01*
X113335207Y-111125340D01*
X113335203Y-111125346D01*
X113330976Y-111130708D01*
X113327797Y-111136751D01*
X113327794Y-111136755D01*
X113284244Y-111219531D01*
X113232523Y-111317836D01*
X113216648Y-111368963D01*
X113171844Y-111513253D01*
X113171843Y-111513258D01*
X113169820Y-111519773D01*
X113169018Y-111526550D01*
X113169017Y-111526554D01*
X113152834Y-111663284D01*
X113144967Y-111729754D01*
X113145414Y-111736572D01*
X113157954Y-111927897D01*
X113158796Y-111940749D01*
X113181395Y-112029730D01*
X113208379Y-112135979D01*
X113210845Y-112145690D01*
X113213703Y-112151890D01*
X113213705Y-112151895D01*
X113252438Y-112235913D01*
X113299369Y-112337714D01*
X113303305Y-112343284D01*
X113303306Y-112343285D01*
X113385478Y-112459555D01*
X113421405Y-112510391D01*
X113572865Y-112657937D01*
X113748677Y-112775411D01*
X113754945Y-112778104D01*
X113754947Y-112778105D01*
X113788162Y-112792375D01*
X113942953Y-112858878D01*
X113949616Y-112860386D01*
X113949617Y-112860386D01*
X114055177Y-112884272D01*
X114123434Y-112920184D01*
X114164590Y-112985414D01*
X114167618Y-113062483D01*
X114131706Y-113130740D01*
X114066476Y-113171896D01*
X114047524Y-113176446D01*
X114007815Y-113183269D01*
X113994673Y-113186791D01*
X113809204Y-113255214D01*
X113796918Y-113261074D01*
X113627020Y-113362153D01*
X113616018Y-113370146D01*
X113467378Y-113500500D01*
X113458019Y-113510363D01*
X113335629Y-113665613D01*
X113328213Y-113677034D01*
X113236168Y-113851983D01*
X113230962Y-113864551D01*
X113172335Y-114053357D01*
X113169508Y-114066658D01*
X113161950Y-114130520D01*
X113164248Y-114146371D01*
X113173345Y-114150000D01*
X114301000Y-114150000D01*
X114375500Y-114169962D01*
X114430038Y-114224500D01*
X114450000Y-114299000D01*
X114450000Y-114301000D01*
X114430038Y-114375500D01*
X114375500Y-114430038D01*
X114301000Y-114450000D01*
X113176898Y-114450000D01*
X113161427Y-114454145D01*
X113158315Y-114465761D01*
X113158845Y-114473856D01*
X113160973Y-114487291D01*
X113209636Y-114678899D01*
X113214178Y-114691728D01*
X113296945Y-114871260D01*
X113303744Y-114883038D01*
X113417849Y-115044493D01*
X113426676Y-115054827D01*
X113568291Y-115192783D01*
X113578858Y-115201340D01*
X113743241Y-115311178D01*
X113755186Y-115317664D01*
X113936834Y-115395706D01*
X113949770Y-115399908D01*
X114055189Y-115423762D01*
X114123447Y-115459674D01*
X114164604Y-115524903D01*
X114167632Y-115601971D01*
X114131720Y-115670229D01*
X114066491Y-115711386D01*
X114047539Y-115715936D01*
X114007684Y-115722784D01*
X114007680Y-115722785D01*
X114000953Y-115723941D01*
X113802575Y-115797127D01*
X113796702Y-115800621D01*
X113698396Y-115859107D01*
X113620856Y-115905238D01*
X113588641Y-115933489D01*
X113467022Y-116040146D01*
X113467019Y-116040149D01*
X113461881Y-116044655D01*
X113418583Y-116099579D01*
X113335207Y-116205340D01*
X113335203Y-116205346D01*
X113330976Y-116210708D01*
X113327797Y-116216751D01*
X113327794Y-116216755D01*
X113314295Y-116242413D01*
X113232523Y-116397836D01*
X113221756Y-116432512D01*
X113171844Y-116593253D01*
X113171843Y-116593258D01*
X113169820Y-116599773D01*
X113169018Y-116606550D01*
X113169017Y-116606554D01*
X113145770Y-116802968D01*
X113144967Y-116809754D01*
X113158796Y-117020749D01*
X113210845Y-117225690D01*
X113213703Y-117231890D01*
X113213705Y-117231895D01*
X113252435Y-117315907D01*
X113299369Y-117417714D01*
X113303305Y-117423284D01*
X113303306Y-117423285D01*
X113332738Y-117464930D01*
X113421405Y-117590391D01*
X113572865Y-117737937D01*
X113748677Y-117855411D01*
X113754945Y-117858104D01*
X113754947Y-117858105D01*
X113824181Y-117887850D01*
X113942953Y-117938878D01*
X114149186Y-117985544D01*
X114200544Y-117987562D01*
X114353641Y-117993578D01*
X114353645Y-117993578D01*
X114360470Y-117993846D01*
X114569730Y-117963504D01*
X114576187Y-117961312D01*
X114576192Y-117961311D01*
X114737155Y-117906671D01*
X114769955Y-117895537D01*
X114852206Y-117849474D01*
X114926961Y-117830489D01*
X115001193Y-117851424D01*
X115055013Y-117906671D01*
X115074011Y-117979476D01*
X115074011Y-118497878D01*
X115054049Y-118572378D01*
X115030370Y-118603237D01*
X114913153Y-118720454D01*
X114848740Y-118758358D01*
X114799035Y-118772564D01*
X114753731Y-118785512D01*
X114753729Y-118785513D01*
X114743529Y-118788428D01*
X114622280Y-118864930D01*
X114615256Y-118872884D01*
X114615254Y-118872885D01*
X114574470Y-118919065D01*
X114527377Y-118972388D01*
X114466447Y-119102163D01*
X114444391Y-119243823D01*
X114462980Y-119385979D01*
X114520720Y-119517203D01*
X114612970Y-119626948D01*
X114732313Y-119706390D01*
X114742442Y-119709554D01*
X114742443Y-119709555D01*
X114765804Y-119716853D01*
X114869157Y-119749142D01*
X114879764Y-119749336D01*
X114879767Y-119749337D01*
X114942020Y-119750478D01*
X115012499Y-119751770D01*
X115065543Y-119737308D01*
X115140574Y-119716853D01*
X115140577Y-119716852D01*
X115150817Y-119714060D01*
X115159862Y-119708506D01*
X115159865Y-119708505D01*
X115263942Y-119644601D01*
X115272991Y-119639045D01*
X115311697Y-119596283D01*
X115362077Y-119540624D01*
X115362078Y-119540622D01*
X115369200Y-119532754D01*
X115431710Y-119403733D01*
X115437776Y-119367679D01*
X115469822Y-119297523D01*
X115479352Y-119287041D01*
X115779995Y-118986398D01*
X115779998Y-118986394D01*
X115802561Y-118963831D01*
X115807882Y-118953388D01*
X115807885Y-118953384D01*
X115811725Y-118945847D01*
X115823940Y-118925913D01*
X115828915Y-118919065D01*
X115835808Y-118909578D01*
X115839431Y-118898426D01*
X115839433Y-118898423D01*
X115842047Y-118890377D01*
X115850993Y-118868779D01*
X115854834Y-118861240D01*
X115860157Y-118850793D01*
X115863315Y-118830854D01*
X115868774Y-118808116D01*
X115871388Y-118800071D01*
X115875011Y-118788922D01*
X115875011Y-107822992D01*
X115875010Y-107822986D01*
X115875010Y-107791078D01*
X115868771Y-107771875D01*
X115863317Y-107749159D01*
X115860157Y-107729207D01*
X115854834Y-107718760D01*
X115854833Y-107718757D01*
X115850991Y-107711217D01*
X115842045Y-107689619D01*
X115839432Y-107681577D01*
X115839431Y-107681575D01*
X115835807Y-107670421D01*
X115823944Y-107654093D01*
X115811727Y-107634158D01*
X115807883Y-107626614D01*
X115802561Y-107616169D01*
X115416190Y-107229798D01*
X115377626Y-107163003D01*
X115377626Y-107085875D01*
X115380451Y-107076560D01*
X115423504Y-106949730D01*
X115453846Y-106740470D01*
X115455429Y-106680000D01*
X115436081Y-106469440D01*
X115378686Y-106265931D01*
X115285165Y-106076290D01*
X115281084Y-106070825D01*
X115281081Y-106070820D01*
X115162739Y-105912341D01*
X115162737Y-105912339D01*
X115158651Y-105906867D01*
X115003381Y-105763337D01*
X114824554Y-105650505D01*
X114818215Y-105647976D01*
X114818209Y-105647973D01*
X114634504Y-105574683D01*
X114628160Y-105572152D01*
X114556512Y-105557900D01*
X114487339Y-105523789D01*
X114444489Y-105459659D01*
X114439444Y-105382696D01*
X114473556Y-105313522D01*
X114537686Y-105270672D01*
X114556356Y-105266189D01*
X114556329Y-105266079D01*
X114562977Y-105264483D01*
X114569730Y-105263504D01*
X114576187Y-105261312D01*
X114576192Y-105261311D01*
X114712083Y-105215182D01*
X114769955Y-105195537D01*
X114864713Y-105142470D01*
X114948481Y-105095558D01*
X114948486Y-105095554D01*
X114954442Y-105092219D01*
X115117012Y-104957012D01*
X115252219Y-104794442D01*
X115255554Y-104788486D01*
X115255558Y-104788481D01*
X115319659Y-104674019D01*
X115355537Y-104609955D01*
X115386389Y-104519068D01*
X115421311Y-104416192D01*
X115421312Y-104416187D01*
X115423504Y-104409730D01*
X115453846Y-104200470D01*
X115455429Y-104140000D01*
X115454687Y-104131918D01*
X115436706Y-103936242D01*
X115436081Y-103929440D01*
X115432768Y-103917691D01*
X115380542Y-103732512D01*
X115378686Y-103725931D01*
X115285165Y-103536290D01*
X115281084Y-103530825D01*
X115281081Y-103530820D01*
X115162739Y-103372341D01*
X115162737Y-103372339D01*
X115158651Y-103366867D01*
X115003381Y-103223337D01*
X114824554Y-103110505D01*
X114818215Y-103107976D01*
X114818209Y-103107973D01*
X114634504Y-103034683D01*
X114628160Y-103032152D01*
X114556512Y-103017900D01*
X114487339Y-102983789D01*
X114444489Y-102919659D01*
X114439444Y-102842696D01*
X114473556Y-102773522D01*
X114537686Y-102730672D01*
X114556356Y-102726189D01*
X114556329Y-102726079D01*
X114562977Y-102724483D01*
X114569730Y-102723504D01*
X114576187Y-102721312D01*
X114576192Y-102721311D01*
X114712083Y-102675182D01*
X114769955Y-102655537D01*
X114898886Y-102583332D01*
X114948481Y-102555558D01*
X114948486Y-102555554D01*
X114954442Y-102552219D01*
X115117012Y-102417012D01*
X115252219Y-102254442D01*
X115255554Y-102248486D01*
X115255558Y-102248481D01*
X115319659Y-102134019D01*
X115355537Y-102069955D01*
X115388656Y-101972390D01*
X115421311Y-101876192D01*
X115421312Y-101876187D01*
X115423504Y-101869730D01*
X115453846Y-101660470D01*
X115455429Y-101600000D01*
X115436081Y-101389440D01*
X115378686Y-101185931D01*
X115285165Y-100996290D01*
X115281084Y-100990825D01*
X115281081Y-100990820D01*
X115162739Y-100832341D01*
X115162737Y-100832339D01*
X115158651Y-100826867D01*
X115003381Y-100683337D01*
X114824554Y-100570505D01*
X114818215Y-100567976D01*
X114818209Y-100567973D01*
X114634504Y-100494683D01*
X114628160Y-100492152D01*
X114556512Y-100477900D01*
X114487339Y-100443789D01*
X114444489Y-100379659D01*
X114439444Y-100302696D01*
X114473556Y-100233522D01*
X114537686Y-100190672D01*
X114556356Y-100186189D01*
X114556329Y-100186079D01*
X114562977Y-100184483D01*
X114569730Y-100183504D01*
X114576187Y-100181312D01*
X114576192Y-100181311D01*
X114733558Y-100127892D01*
X114769955Y-100115537D01*
X114912416Y-100035755D01*
X114948481Y-100015558D01*
X114948486Y-100015554D01*
X114954442Y-100012219D01*
X115117012Y-99877012D01*
X115252219Y-99714442D01*
X115255554Y-99708486D01*
X115255558Y-99708481D01*
X115319659Y-99594019D01*
X115355537Y-99529955D01*
X115384141Y-99445690D01*
X115421311Y-99336192D01*
X115421312Y-99336187D01*
X115423504Y-99329730D01*
X115453846Y-99120470D01*
X115455429Y-99060000D01*
X115436081Y-98849440D01*
X115378686Y-98645931D01*
X115285165Y-98456290D01*
X115281084Y-98450825D01*
X115281081Y-98450820D01*
X115162739Y-98292341D01*
X115162737Y-98292339D01*
X115158651Y-98286867D01*
X115003381Y-98143337D01*
X114824554Y-98030505D01*
X114818215Y-98027976D01*
X114818209Y-98027973D01*
X114634504Y-97954683D01*
X114628160Y-97952152D01*
X114556512Y-97937900D01*
X114487339Y-97903789D01*
X114444489Y-97839659D01*
X114439444Y-97762696D01*
X114473556Y-97693522D01*
X114537686Y-97650672D01*
X114556356Y-97646189D01*
X114556329Y-97646079D01*
X114562977Y-97644483D01*
X114569730Y-97643504D01*
X114576187Y-97641312D01*
X114576192Y-97641311D01*
X114712083Y-97595182D01*
X114769955Y-97575537D01*
X114864713Y-97522470D01*
X114948481Y-97475558D01*
X114948486Y-97475554D01*
X114954442Y-97472219D01*
X115117012Y-97337012D01*
X115252219Y-97174442D01*
X115255554Y-97168486D01*
X115255558Y-97168481D01*
X115335675Y-97025421D01*
X115355537Y-96989955D01*
X115389436Y-96890091D01*
X115421311Y-96796192D01*
X115421312Y-96796187D01*
X115423504Y-96789730D01*
X115453846Y-96580470D01*
X115455429Y-96520000D01*
X115436081Y-96309440D01*
X115378686Y-96105931D01*
X115285165Y-95916290D01*
X115281084Y-95910825D01*
X115281081Y-95910820D01*
X115162739Y-95752341D01*
X115162737Y-95752339D01*
X115158651Y-95746867D01*
X115003381Y-95603337D01*
X114824554Y-95490505D01*
X114818215Y-95487976D01*
X114818209Y-95487973D01*
X114634504Y-95414683D01*
X114628160Y-95412152D01*
X114556512Y-95397900D01*
X114487339Y-95363789D01*
X114444489Y-95299659D01*
X114439444Y-95222696D01*
X114473556Y-95153522D01*
X114537686Y-95110672D01*
X114556356Y-95106189D01*
X114556329Y-95106079D01*
X114562977Y-95104483D01*
X114569730Y-95103504D01*
X114576187Y-95101312D01*
X114576192Y-95101311D01*
X114730359Y-95048978D01*
X114769955Y-95035537D01*
X114864713Y-94982470D01*
X114948481Y-94935558D01*
X114948486Y-94935554D01*
X114954442Y-94932219D01*
X115117012Y-94797012D01*
X115252219Y-94634442D01*
X115255554Y-94628486D01*
X115255558Y-94628481D01*
X115335624Y-94485512D01*
X115355537Y-94449955D01*
X115414053Y-94277572D01*
X115421311Y-94256192D01*
X115421312Y-94256187D01*
X115423504Y-94249730D01*
X115453846Y-94040470D01*
X115455429Y-93980000D01*
X115436081Y-93769440D01*
X115378686Y-93565931D01*
X115285165Y-93376290D01*
X115281084Y-93370825D01*
X115281081Y-93370820D01*
X115162739Y-93212341D01*
X115162737Y-93212339D01*
X115158651Y-93206867D01*
X115003381Y-93063337D01*
X114824554Y-92950505D01*
X114818215Y-92947976D01*
X114818209Y-92947973D01*
X114634504Y-92874683D01*
X114628160Y-92872152D01*
X114556512Y-92857900D01*
X114487339Y-92823789D01*
X114444489Y-92759659D01*
X114439444Y-92682696D01*
X114473556Y-92613522D01*
X114537686Y-92570672D01*
X114556356Y-92566189D01*
X114556329Y-92566079D01*
X114562977Y-92564483D01*
X114569730Y-92563504D01*
X114576187Y-92561312D01*
X114576192Y-92561311D01*
X114712083Y-92515182D01*
X114769955Y-92495537D01*
X114864713Y-92442470D01*
X114948481Y-92395558D01*
X114948486Y-92395554D01*
X114954442Y-92392219D01*
X115117012Y-92257012D01*
X115252219Y-92094442D01*
X115255554Y-92088486D01*
X115255558Y-92088481D01*
X115319659Y-91974019D01*
X115355537Y-91909955D01*
X115386389Y-91819068D01*
X115421311Y-91716192D01*
X115421312Y-91716187D01*
X115423504Y-91709730D01*
X115453846Y-91500470D01*
X115455429Y-91440000D01*
X115436081Y-91229440D01*
X115378686Y-91025931D01*
X115285165Y-90836290D01*
X115281084Y-90830825D01*
X115281081Y-90830820D01*
X115162739Y-90672341D01*
X115162737Y-90672339D01*
X115158651Y-90666867D01*
X115003381Y-90523337D01*
X114824554Y-90410505D01*
X114818215Y-90407976D01*
X114818209Y-90407973D01*
X114634504Y-90334683D01*
X114628160Y-90332152D01*
X114556512Y-90317900D01*
X114487339Y-90283789D01*
X114444489Y-90219659D01*
X114439444Y-90142696D01*
X114473556Y-90073522D01*
X114537686Y-90030672D01*
X114556356Y-90026189D01*
X114556329Y-90026079D01*
X114562977Y-90024483D01*
X114569730Y-90023504D01*
X114576187Y-90021312D01*
X114576192Y-90021311D01*
X114712083Y-89975182D01*
X114769955Y-89955537D01*
X114864713Y-89902470D01*
X114948481Y-89855558D01*
X114948486Y-89855554D01*
X114954442Y-89852219D01*
X115117012Y-89717012D01*
X115252219Y-89554442D01*
X115255554Y-89548486D01*
X115255558Y-89548481D01*
X115319659Y-89434019D01*
X115355537Y-89369955D01*
X115386389Y-89279068D01*
X115421311Y-89176192D01*
X115421312Y-89176187D01*
X115423504Y-89169730D01*
X115453846Y-88960470D01*
X115455429Y-88900000D01*
X115436081Y-88689440D01*
X115378686Y-88485931D01*
X115285165Y-88296290D01*
X115281084Y-88290825D01*
X115281081Y-88290820D01*
X115162739Y-88132341D01*
X115162737Y-88132339D01*
X115158651Y-88126867D01*
X115003381Y-87983337D01*
X114824554Y-87870505D01*
X114818215Y-87867976D01*
X114818209Y-87867973D01*
X114634504Y-87794683D01*
X114628160Y-87792152D01*
X114556512Y-87777900D01*
X114487339Y-87743789D01*
X114444489Y-87679659D01*
X114439444Y-87602696D01*
X114473556Y-87533522D01*
X114537686Y-87490672D01*
X114556356Y-87486189D01*
X114556329Y-87486079D01*
X114562977Y-87484483D01*
X114569730Y-87483504D01*
X114576187Y-87481312D01*
X114576192Y-87481311D01*
X114712083Y-87435182D01*
X114769955Y-87415537D01*
X114864713Y-87362470D01*
X114948481Y-87315558D01*
X114948486Y-87315554D01*
X114954442Y-87312219D01*
X115117012Y-87177012D01*
X115252219Y-87014442D01*
X115255554Y-87008486D01*
X115255558Y-87008481D01*
X115319659Y-86894019D01*
X115355537Y-86829955D01*
X115386389Y-86739068D01*
X115421311Y-86636192D01*
X115421312Y-86636187D01*
X115423504Y-86629730D01*
X115453846Y-86420470D01*
X115455429Y-86360000D01*
X115436081Y-86149440D01*
X115378686Y-85945931D01*
X115285165Y-85756290D01*
X115281084Y-85750825D01*
X115281081Y-85750820D01*
X115162739Y-85592341D01*
X115162737Y-85592339D01*
X115158651Y-85586867D01*
X115003381Y-85443337D01*
X114824554Y-85330505D01*
X114818215Y-85327976D01*
X114818209Y-85327973D01*
X114642550Y-85257893D01*
X114580751Y-85211745D01*
X114550305Y-85140881D01*
X114559370Y-85064287D01*
X114605518Y-85002488D01*
X114676382Y-84972042D01*
X114697763Y-84970500D01*
X115194646Y-84970500D01*
X115220846Y-84967382D01*
X115323153Y-84921939D01*
X115402241Y-84842713D01*
X115447506Y-84740327D01*
X115450500Y-84714646D01*
X115450500Y-82925354D01*
X115447382Y-82899154D01*
X115401939Y-82796847D01*
X115322713Y-82717759D01*
X115310133Y-82712197D01*
X115310131Y-82712196D01*
X115230574Y-82677024D01*
X115230573Y-82677024D01*
X115220327Y-82672494D01*
X115205682Y-82670787D01*
X115198930Y-82669999D01*
X115198922Y-82669999D01*
X115194646Y-82669500D01*
X113405354Y-82669500D01*
X113379154Y-82672618D01*
X113276847Y-82718061D01*
X113197759Y-82797287D01*
X113152494Y-82899673D01*
X113149500Y-82925354D01*
X113149500Y-84714646D01*
X113152618Y-84740846D01*
X113198061Y-84843153D01*
X113277287Y-84922241D01*
X113289867Y-84927803D01*
X113289869Y-84927804D01*
X113369426Y-84962976D01*
X113379673Y-84967506D01*
X113394318Y-84969213D01*
X113401070Y-84970001D01*
X113401078Y-84970001D01*
X113405354Y-84970500D01*
X113907776Y-84970500D01*
X113982276Y-84990462D01*
X114036814Y-85045000D01*
X114056776Y-85119500D01*
X114036814Y-85194000D01*
X113982276Y-85248538D01*
X113959348Y-85259290D01*
X113860726Y-85295674D01*
X113802575Y-85317127D01*
X113796702Y-85320621D01*
X113780089Y-85330505D01*
X113620856Y-85425238D01*
X113588641Y-85453489D01*
X113467022Y-85560146D01*
X113467019Y-85560149D01*
X113461881Y-85564655D01*
X113406189Y-85635300D01*
X113335207Y-85725340D01*
X113335203Y-85725346D01*
X113330976Y-85730708D01*
X113327797Y-85736751D01*
X113327794Y-85736755D01*
X113314295Y-85762413D01*
X113232523Y-85917836D01*
X113221756Y-85952512D01*
X113171844Y-86113253D01*
X113171843Y-86113258D01*
X113169820Y-86119773D01*
X113169018Y-86126550D01*
X113169017Y-86126554D01*
X113145770Y-86322968D01*
X113144967Y-86329754D01*
X113158796Y-86540749D01*
X113210845Y-86745690D01*
X113213703Y-86751890D01*
X113213705Y-86751895D01*
X113252435Y-86835907D01*
X113299369Y-86937714D01*
X113421405Y-87110391D01*
X113572865Y-87257937D01*
X113748677Y-87375411D01*
X113942953Y-87458878D01*
X114053903Y-87483984D01*
X114122159Y-87519895D01*
X114163316Y-87585124D01*
X114166344Y-87662193D01*
X114130432Y-87730450D01*
X114065203Y-87771607D01*
X114046252Y-87776157D01*
X114029668Y-87779007D01*
X114000953Y-87783941D01*
X113802575Y-87857127D01*
X113796702Y-87860621D01*
X113780089Y-87870505D01*
X113620856Y-87965238D01*
X113588641Y-87993489D01*
X113467022Y-88100146D01*
X113467019Y-88100149D01*
X113461881Y-88104655D01*
X113406189Y-88175300D01*
X113335207Y-88265340D01*
X113335203Y-88265346D01*
X113330976Y-88270708D01*
X113327797Y-88276751D01*
X113327794Y-88276755D01*
X113314295Y-88302413D01*
X113232523Y-88457836D01*
X113221756Y-88492512D01*
X113171844Y-88653253D01*
X113171843Y-88653258D01*
X113169820Y-88659773D01*
X113169018Y-88666550D01*
X113169017Y-88666554D01*
X113145770Y-88862968D01*
X113144967Y-88869754D01*
X113158796Y-89080749D01*
X113210845Y-89285690D01*
X113213703Y-89291890D01*
X113213705Y-89291895D01*
X113252435Y-89375907D01*
X113299369Y-89477714D01*
X113421405Y-89650391D01*
X113572865Y-89797937D01*
X113748677Y-89915411D01*
X113942953Y-89998878D01*
X114053903Y-90023984D01*
X114122159Y-90059895D01*
X114163316Y-90125124D01*
X114166344Y-90202193D01*
X114130432Y-90270450D01*
X114065203Y-90311607D01*
X114046252Y-90316157D01*
X114029668Y-90319007D01*
X114000953Y-90323941D01*
X113802575Y-90397127D01*
X113796702Y-90400621D01*
X113780089Y-90410505D01*
X113620856Y-90505238D01*
X113588641Y-90533489D01*
X113467022Y-90640146D01*
X113467019Y-90640149D01*
X113461881Y-90644655D01*
X113406189Y-90715300D01*
X113335207Y-90805340D01*
X113335203Y-90805346D01*
X113330976Y-90810708D01*
X113327797Y-90816751D01*
X113327794Y-90816755D01*
X113314295Y-90842413D01*
X113232523Y-90997836D01*
X113221756Y-91032512D01*
X113171844Y-91193253D01*
X113171843Y-91193258D01*
X113169820Y-91199773D01*
X113169018Y-91206550D01*
X113169017Y-91206554D01*
X113145770Y-91402968D01*
X113144967Y-91409754D01*
X113158796Y-91620749D01*
X113210845Y-91825690D01*
X113213703Y-91831890D01*
X113213705Y-91831895D01*
X113252435Y-91915907D01*
X113299369Y-92017714D01*
X113421405Y-92190391D01*
X113572865Y-92337937D01*
X113748677Y-92455411D01*
X113942953Y-92538878D01*
X114053903Y-92563984D01*
X114122159Y-92599895D01*
X114163316Y-92665124D01*
X114166344Y-92742193D01*
X114130432Y-92810450D01*
X114065203Y-92851607D01*
X114046252Y-92856157D01*
X114029668Y-92859007D01*
X114000953Y-92863941D01*
X113802575Y-92937127D01*
X113796702Y-92940621D01*
X113735548Y-92977004D01*
X113620856Y-93045238D01*
X113593155Y-93069531D01*
X113467022Y-93180146D01*
X113467019Y-93180149D01*
X113461881Y-93184655D01*
X113439811Y-93212651D01*
X113335207Y-93345340D01*
X113335203Y-93345346D01*
X113330976Y-93350708D01*
X113327797Y-93356751D01*
X113327794Y-93356755D01*
X113314295Y-93382413D01*
X113232523Y-93537836D01*
X113207879Y-93617203D01*
X113171844Y-93733253D01*
X113171843Y-93733258D01*
X113169820Y-93739773D01*
X113169018Y-93746550D01*
X113169017Y-93746554D01*
X113145770Y-93942968D01*
X113144967Y-93949754D01*
X113145414Y-93956572D01*
X113158059Y-94149500D01*
X113158796Y-94160749D01*
X113210845Y-94365690D01*
X113213703Y-94371890D01*
X113213705Y-94371895D01*
X113267205Y-94487944D01*
X113299369Y-94557714D01*
X113303305Y-94563284D01*
X113303306Y-94563285D01*
X113384076Y-94677572D01*
X113421405Y-94730391D01*
X113572865Y-94877937D01*
X113748677Y-94995411D01*
X113754945Y-94998104D01*
X113754947Y-94998105D01*
X113774231Y-95006390D01*
X113942953Y-95078878D01*
X114053903Y-95103984D01*
X114122159Y-95139895D01*
X114163316Y-95205124D01*
X114166344Y-95282193D01*
X114130432Y-95350450D01*
X114065203Y-95391607D01*
X114046252Y-95396157D01*
X114029668Y-95399007D01*
X114000953Y-95403941D01*
X113802575Y-95477127D01*
X113796702Y-95480621D01*
X113780089Y-95490505D01*
X113620856Y-95585238D01*
X113588641Y-95613489D01*
X113467022Y-95720146D01*
X113467019Y-95720149D01*
X113461881Y-95724655D01*
X113406189Y-95795300D01*
X113335207Y-95885340D01*
X113335203Y-95885346D01*
X113330976Y-95890708D01*
X113327797Y-95896751D01*
X113327794Y-95896755D01*
X113314295Y-95922413D01*
X113232523Y-96077836D01*
X113221756Y-96112512D01*
X113171844Y-96273253D01*
X113171843Y-96273258D01*
X113169820Y-96279773D01*
X113169018Y-96286550D01*
X113169017Y-96286554D01*
X113145770Y-96482968D01*
X113144967Y-96489754D01*
X113158796Y-96700749D01*
X113210845Y-96905690D01*
X113213703Y-96911890D01*
X113213705Y-96911895D01*
X113251847Y-96994630D01*
X113299369Y-97097714D01*
X113303305Y-97103284D01*
X113303306Y-97103285D01*
X113316605Y-97122103D01*
X113421405Y-97270391D01*
X113572865Y-97417937D01*
X113748677Y-97535411D01*
X113754945Y-97538104D01*
X113754947Y-97538105D01*
X113824181Y-97567850D01*
X113942953Y-97618878D01*
X114053903Y-97643984D01*
X114122159Y-97679895D01*
X114163316Y-97745124D01*
X114166344Y-97822193D01*
X114130432Y-97890450D01*
X114065203Y-97931607D01*
X114046252Y-97936157D01*
X114029668Y-97939007D01*
X114000953Y-97943941D01*
X113802575Y-98017127D01*
X113796702Y-98020621D01*
X113780089Y-98030505D01*
X113620856Y-98125238D01*
X113588641Y-98153489D01*
X113467022Y-98260146D01*
X113467019Y-98260149D01*
X113461881Y-98264655D01*
X113406189Y-98335300D01*
X113335207Y-98425340D01*
X113335203Y-98425346D01*
X113330976Y-98430708D01*
X113327794Y-98436756D01*
X113327792Y-98436759D01*
X113281363Y-98525006D01*
X113229009Y-98581643D01*
X113155350Y-98604515D01*
X113080124Y-98587493D01*
X113023487Y-98535139D01*
X113000500Y-98455630D01*
X113000500Y-97318481D01*
X113000499Y-97318475D01*
X113000499Y-97286567D01*
X112994260Y-97267364D01*
X112988806Y-97244648D01*
X112985646Y-97224696D01*
X112980323Y-97214249D01*
X112980322Y-97214246D01*
X112976480Y-97206706D01*
X112967534Y-97185108D01*
X112964921Y-97177066D01*
X112964920Y-97177064D01*
X112961296Y-97165910D01*
X112949433Y-97149582D01*
X112937216Y-97129647D01*
X112933372Y-97122103D01*
X112928050Y-97111658D01*
X111021516Y-95205124D01*
X109130593Y-93314200D01*
X109092029Y-93247405D01*
X109088457Y-93229965D01*
X109086828Y-93218591D01*
X109085323Y-93208082D01*
X109077113Y-93190024D01*
X109030378Y-93087235D01*
X109030376Y-93087232D01*
X109025984Y-93077572D01*
X109019058Y-93069534D01*
X109019056Y-93069531D01*
X108979192Y-93023268D01*
X108932400Y-92968963D01*
X108923496Y-92963192D01*
X108923493Y-92963189D01*
X108856723Y-92919911D01*
X108812095Y-92890985D01*
X108757585Y-92874683D01*
X108684912Y-92852949D01*
X108684910Y-92852949D01*
X108674739Y-92849907D01*
X108664121Y-92849842D01*
X108664120Y-92849842D01*
X108604650Y-92849479D01*
X108531376Y-92849031D01*
X108521171Y-92851948D01*
X108521168Y-92851948D01*
X108403731Y-92885512D01*
X108403729Y-92885513D01*
X108393529Y-92888428D01*
X108384556Y-92894090D01*
X108384555Y-92894090D01*
X108320095Y-92934761D01*
X108272280Y-92964930D01*
X108265256Y-92972884D01*
X108265254Y-92972885D01*
X108218525Y-93025796D01*
X108177377Y-93072388D01*
X108116447Y-93202163D01*
X108094391Y-93343823D01*
X89860921Y-93343823D01*
X89762739Y-93212341D01*
X89762737Y-93212339D01*
X89758651Y-93206867D01*
X89603381Y-93063337D01*
X89424554Y-92950505D01*
X89418215Y-92947976D01*
X89418209Y-92947973D01*
X89234504Y-92874683D01*
X89228160Y-92872152D01*
X89156512Y-92857900D01*
X89087339Y-92823789D01*
X89044489Y-92759659D01*
X89039444Y-92682696D01*
X89073556Y-92613522D01*
X89137686Y-92570672D01*
X89156356Y-92566189D01*
X89156329Y-92566079D01*
X89162977Y-92564483D01*
X89169730Y-92563504D01*
X89176187Y-92561312D01*
X89176192Y-92561311D01*
X89312083Y-92515182D01*
X89369955Y-92495537D01*
X89464713Y-92442470D01*
X89548481Y-92395558D01*
X89548486Y-92395554D01*
X89554442Y-92392219D01*
X89717012Y-92257012D01*
X89852219Y-92094442D01*
X89855554Y-92088486D01*
X89855558Y-92088481D01*
X89919659Y-91974019D01*
X89955537Y-91909955D01*
X89986389Y-91819068D01*
X90021311Y-91716192D01*
X90021312Y-91716187D01*
X90023504Y-91709730D01*
X90053846Y-91500470D01*
X90055429Y-91440000D01*
X90036081Y-91229440D01*
X89978686Y-91025931D01*
X89885165Y-90836290D01*
X89881084Y-90830825D01*
X89881081Y-90830820D01*
X89762739Y-90672341D01*
X89762737Y-90672339D01*
X89758651Y-90666867D01*
X89603381Y-90523337D01*
X89424554Y-90410505D01*
X89418215Y-90407976D01*
X89418209Y-90407973D01*
X89234504Y-90334683D01*
X89228160Y-90332152D01*
X89156512Y-90317900D01*
X89087339Y-90283789D01*
X89044489Y-90219659D01*
X89039444Y-90142696D01*
X89073556Y-90073522D01*
X89137686Y-90030672D01*
X89156356Y-90026189D01*
X89156329Y-90026079D01*
X89162977Y-90024483D01*
X89169730Y-90023504D01*
X89176187Y-90021312D01*
X89176192Y-90021311D01*
X89312083Y-89975182D01*
X89369955Y-89955537D01*
X89464713Y-89902470D01*
X89548481Y-89855558D01*
X89548486Y-89855554D01*
X89554442Y-89852219D01*
X89717012Y-89717012D01*
X89852219Y-89554442D01*
X89855554Y-89548486D01*
X89855558Y-89548481D01*
X89919659Y-89434019D01*
X89955537Y-89369955D01*
X89986389Y-89279068D01*
X90021311Y-89176192D01*
X90021312Y-89176187D01*
X90023504Y-89169730D01*
X90053846Y-88960470D01*
X90055429Y-88900000D01*
X90036081Y-88689440D01*
X89978686Y-88485931D01*
X89885165Y-88296290D01*
X89881084Y-88290825D01*
X89881081Y-88290820D01*
X89762739Y-88132341D01*
X89762737Y-88132339D01*
X89758651Y-88126867D01*
X89603381Y-87983337D01*
X89424554Y-87870505D01*
X89418215Y-87867976D01*
X89418209Y-87867973D01*
X89234504Y-87794683D01*
X89228160Y-87792152D01*
X89156512Y-87777900D01*
X89087339Y-87743789D01*
X89044489Y-87679659D01*
X89039444Y-87602696D01*
X89073556Y-87533522D01*
X89137686Y-87490672D01*
X89156356Y-87486189D01*
X89156329Y-87486079D01*
X89162977Y-87484483D01*
X89169730Y-87483504D01*
X89176187Y-87481312D01*
X89176192Y-87481311D01*
X89312083Y-87435182D01*
X89369955Y-87415537D01*
X89464713Y-87362470D01*
X89548481Y-87315558D01*
X89548486Y-87315554D01*
X89554442Y-87312219D01*
X89717012Y-87177012D01*
X89852219Y-87014442D01*
X89855554Y-87008486D01*
X89855558Y-87008481D01*
X89919659Y-86894019D01*
X89955537Y-86829955D01*
X89986389Y-86739068D01*
X90021311Y-86636192D01*
X90021312Y-86636187D01*
X90023504Y-86629730D01*
X90053846Y-86420470D01*
X90055429Y-86360000D01*
X90036081Y-86149440D01*
X89978686Y-85945931D01*
X89885165Y-85756290D01*
X89881084Y-85750825D01*
X89881081Y-85750820D01*
X89762739Y-85592341D01*
X89762737Y-85592339D01*
X89758651Y-85586867D01*
X89603381Y-85443337D01*
X89424554Y-85330505D01*
X89418215Y-85327976D01*
X89418209Y-85327973D01*
X89242550Y-85257893D01*
X89180751Y-85211745D01*
X89150305Y-85140881D01*
X89159370Y-85064287D01*
X89205518Y-85002488D01*
X89276382Y-84972042D01*
X89297763Y-84970500D01*
X89794646Y-84970500D01*
X89820846Y-84967382D01*
X89923153Y-84921939D01*
X90002241Y-84842713D01*
X90047506Y-84740327D01*
X90050500Y-84714646D01*
X90050500Y-82925354D01*
X90047382Y-82899154D01*
X90001939Y-82796847D01*
X89922713Y-82717759D01*
X89910133Y-82712197D01*
X89910131Y-82712196D01*
X89830574Y-82677024D01*
X89830573Y-82677024D01*
X89820327Y-82672494D01*
X89805682Y-82670787D01*
X89798930Y-82669999D01*
X89798922Y-82669999D01*
X89794646Y-82669500D01*
X88005354Y-82669500D01*
X87979154Y-82672618D01*
X87876847Y-82718061D01*
X87797759Y-82797287D01*
X87752494Y-82899673D01*
X87749500Y-82925354D01*
X87749500Y-84422389D01*
X87729538Y-84496889D01*
X87705859Y-84527748D01*
X86914359Y-85319248D01*
X86847564Y-85357812D01*
X86770436Y-85357812D01*
X86703641Y-85319248D01*
X86665077Y-85252453D01*
X86660000Y-85213889D01*
X86660000Y-82589280D01*
X86662264Y-82563407D01*
X86662364Y-82562840D01*
X86664628Y-82550000D01*
X86662364Y-82537160D01*
X86662364Y-82524126D01*
X86662884Y-82524126D01*
X86662244Y-82512905D01*
X86675788Y-82288994D01*
X86677957Y-82271132D01*
X86723466Y-82022798D01*
X86727772Y-82005328D01*
X86802881Y-81764294D01*
X86809261Y-81747470D01*
X86912880Y-81517240D01*
X86921241Y-81501309D01*
X87051856Y-81285244D01*
X87062078Y-81270436D01*
X87217775Y-81071704D01*
X87229706Y-81058236D01*
X87408236Y-80879706D01*
X87421704Y-80867775D01*
X87620436Y-80712078D01*
X87635244Y-80701856D01*
X87851309Y-80571241D01*
X87867240Y-80562880D01*
X88018401Y-80494847D01*
X88097474Y-80459260D01*
X88114289Y-80452883D01*
X88355334Y-80377770D01*
X88372792Y-80373468D01*
X88533564Y-80344004D01*
X88621132Y-80327957D01*
X88638994Y-80325788D01*
X88862905Y-80312244D01*
X88874126Y-80312884D01*
X88874126Y-80312364D01*
X88887160Y-80312364D01*
X88900000Y-80314628D01*
X88913407Y-80312264D01*
X88939280Y-80310000D01*
X114260720Y-80310000D01*
X114286593Y-80312264D01*
G37*
%TD.AperFunction*%
%TD*%
%TA.AperFunction,Conductor*%
%TO.N,+5V*%
G36*
X98368039Y-109959685D02*
G01*
X98413794Y-110012489D01*
X98425000Y-110064000D01*
X98425000Y-121920000D01*
X105058908Y-121920000D01*
X105125947Y-121939685D01*
X105171702Y-121992489D01*
X105181646Y-122061647D01*
X105181477Y-122062589D01*
X105180090Y-122066772D01*
X105179401Y-122073500D01*
X105179400Y-122073503D01*
X105169826Y-122166956D01*
X105169500Y-122170134D01*
X105169500Y-123469866D01*
X105180359Y-123574519D01*
X105182507Y-123580956D01*
X105182507Y-123580958D01*
X105212886Y-123672015D01*
X105235744Y-123740529D01*
X105239534Y-123746653D01*
X105324043Y-123883220D01*
X105324046Y-123883224D01*
X105327834Y-123889345D01*
X105451689Y-124012984D01*
X105600666Y-124104814D01*
X105766772Y-124159910D01*
X105821316Y-124165498D01*
X105866987Y-124170178D01*
X105866995Y-124170178D01*
X105870134Y-124170500D01*
X105921000Y-124170500D01*
X105988039Y-124190185D01*
X106033794Y-124242989D01*
X106045000Y-124294500D01*
X106045000Y-124336000D01*
X106025315Y-124403039D01*
X105972511Y-124448794D01*
X105921000Y-124460000D01*
X95374000Y-124460000D01*
X95306961Y-124440315D01*
X95261206Y-124387511D01*
X95250000Y-124336000D01*
X95250000Y-123469866D01*
X96529500Y-123469866D01*
X96540359Y-123574519D01*
X96542507Y-123580956D01*
X96542507Y-123580958D01*
X96572886Y-123672015D01*
X96595744Y-123740529D01*
X96599534Y-123746653D01*
X96684043Y-123883220D01*
X96684046Y-123883224D01*
X96687834Y-123889345D01*
X96811689Y-124012984D01*
X96960666Y-124104814D01*
X97126772Y-124159910D01*
X97181316Y-124165498D01*
X97226987Y-124170178D01*
X97226995Y-124170178D01*
X97230134Y-124170500D01*
X97329866Y-124170500D01*
X97434519Y-124159641D01*
X97440956Y-124157493D01*
X97440958Y-124157493D01*
X97593695Y-124106536D01*
X97600529Y-124104256D01*
X97651273Y-124072855D01*
X97743220Y-124015957D01*
X97743224Y-124015954D01*
X97749345Y-124012166D01*
X97872984Y-123888311D01*
X97964814Y-123739334D01*
X98019910Y-123573228D01*
X98027153Y-123502531D01*
X98030178Y-123473013D01*
X98030178Y-123473005D01*
X98030500Y-123469866D01*
X98030500Y-123350000D01*
X98359324Y-123350000D01*
X98361208Y-123360685D01*
X98362616Y-123368670D01*
X98364500Y-123390202D01*
X98364500Y-123409158D01*
X98368210Y-123419350D01*
X98368210Y-123419352D01*
X98370984Y-123426974D01*
X98376577Y-123447848D01*
X98379869Y-123466518D01*
X98385295Y-123475915D01*
X98385295Y-123475916D01*
X98389347Y-123482935D01*
X98398485Y-123502531D01*
X98404966Y-123520338D01*
X98411939Y-123528648D01*
X98411940Y-123528650D01*
X98417153Y-123534862D01*
X98429544Y-123552557D01*
X98439027Y-123568982D01*
X98453299Y-123580958D01*
X98453552Y-123581170D01*
X98468828Y-123596446D01*
X98481018Y-123610973D01*
X98497443Y-123620456D01*
X98515138Y-123632847D01*
X98521350Y-123638060D01*
X98521352Y-123638061D01*
X98529662Y-123645034D01*
X98539860Y-123648745D01*
X98539859Y-123648745D01*
X98547469Y-123651515D01*
X98567065Y-123660653D01*
X98574084Y-123664705D01*
X98583482Y-123670131D01*
X98594165Y-123672015D01*
X98594166Y-123672015D01*
X98602152Y-123673423D01*
X98623026Y-123679016D01*
X98630648Y-123681790D01*
X98630650Y-123681790D01*
X98640842Y-123685500D01*
X98759158Y-123685500D01*
X98769350Y-123681790D01*
X98769352Y-123681790D01*
X98776974Y-123679016D01*
X98797848Y-123673423D01*
X98805834Y-123672015D01*
X98805835Y-123672015D01*
X98816518Y-123670131D01*
X98825916Y-123664705D01*
X98832935Y-123660653D01*
X98852531Y-123651515D01*
X98860141Y-123648745D01*
X98860140Y-123648745D01*
X98870338Y-123645034D01*
X98878648Y-123638061D01*
X98878650Y-123638060D01*
X98884862Y-123632847D01*
X98902557Y-123620456D01*
X98918982Y-123610973D01*
X98931172Y-123596446D01*
X98946448Y-123581170D01*
X98946701Y-123580958D01*
X98960973Y-123568982D01*
X98970456Y-123552557D01*
X98982847Y-123534862D01*
X98988060Y-123528650D01*
X98988061Y-123528648D01*
X98995034Y-123520338D01*
X99001515Y-123502531D01*
X99010653Y-123482935D01*
X99014705Y-123475916D01*
X99014705Y-123475915D01*
X99020131Y-123466518D01*
X99023423Y-123447848D01*
X99029016Y-123426974D01*
X99031790Y-123419352D01*
X99031790Y-123419350D01*
X99035500Y-123409158D01*
X99035500Y-123390202D01*
X99037384Y-123368670D01*
X99038792Y-123360685D01*
X99040676Y-123350000D01*
X104159324Y-123350000D01*
X104161208Y-123360685D01*
X104162616Y-123368670D01*
X104164500Y-123390202D01*
X104164500Y-123409158D01*
X104168210Y-123419350D01*
X104168210Y-123419352D01*
X104170984Y-123426974D01*
X104176577Y-123447848D01*
X104179869Y-123466518D01*
X104185295Y-123475915D01*
X104185295Y-123475916D01*
X104189347Y-123482935D01*
X104198485Y-123502531D01*
X104204966Y-123520338D01*
X104211939Y-123528648D01*
X104211940Y-123528650D01*
X104217153Y-123534862D01*
X104229544Y-123552557D01*
X104239027Y-123568982D01*
X104253299Y-123580958D01*
X104253552Y-123581170D01*
X104268828Y-123596446D01*
X104281018Y-123610973D01*
X104297443Y-123620456D01*
X104315138Y-123632847D01*
X104321350Y-123638060D01*
X104321352Y-123638061D01*
X104329662Y-123645034D01*
X104339860Y-123648745D01*
X104339859Y-123648745D01*
X104347469Y-123651515D01*
X104367065Y-123660653D01*
X104374084Y-123664705D01*
X104383482Y-123670131D01*
X104394165Y-123672015D01*
X104394166Y-123672015D01*
X104402152Y-123673423D01*
X104423026Y-123679016D01*
X104430648Y-123681790D01*
X104430650Y-123681790D01*
X104440842Y-123685500D01*
X104559158Y-123685500D01*
X104569350Y-123681790D01*
X104569352Y-123681790D01*
X104576974Y-123679016D01*
X104597848Y-123673423D01*
X104605834Y-123672015D01*
X104605835Y-123672015D01*
X104616518Y-123670131D01*
X104625916Y-123664705D01*
X104632935Y-123660653D01*
X104652531Y-123651515D01*
X104660141Y-123648745D01*
X104660140Y-123648745D01*
X104670338Y-123645034D01*
X104678648Y-123638061D01*
X104678650Y-123638060D01*
X104684862Y-123632847D01*
X104702557Y-123620456D01*
X104718982Y-123610973D01*
X104731172Y-123596446D01*
X104746448Y-123581170D01*
X104746701Y-123580958D01*
X104760973Y-123568982D01*
X104770456Y-123552557D01*
X104782847Y-123534862D01*
X104788060Y-123528650D01*
X104788061Y-123528648D01*
X104795034Y-123520338D01*
X104801515Y-123502531D01*
X104810653Y-123482935D01*
X104814705Y-123475916D01*
X104814705Y-123475915D01*
X104820131Y-123466518D01*
X104823423Y-123447848D01*
X104829016Y-123426974D01*
X104831790Y-123419352D01*
X104831790Y-123419350D01*
X104835500Y-123409158D01*
X104835500Y-123390202D01*
X104837384Y-123368670D01*
X104838792Y-123360685D01*
X104840676Y-123350000D01*
X104837384Y-123331330D01*
X104835500Y-123309798D01*
X104835500Y-123290842D01*
X104831790Y-123280648D01*
X104829016Y-123273026D01*
X104823423Y-123252152D01*
X104822015Y-123244166D01*
X104822015Y-123244165D01*
X104820131Y-123233482D01*
X104814705Y-123224084D01*
X104810653Y-123217065D01*
X104801515Y-123197469D01*
X104798745Y-123189859D01*
X104795034Y-123179662D01*
X104782846Y-123165137D01*
X104770456Y-123147443D01*
X104760973Y-123131018D01*
X104746446Y-123118828D01*
X104731170Y-123103552D01*
X104718982Y-123089027D01*
X104702557Y-123079544D01*
X104684862Y-123067153D01*
X104678650Y-123061940D01*
X104678648Y-123061939D01*
X104670338Y-123054966D01*
X104657254Y-123050204D01*
X104652531Y-123048485D01*
X104632935Y-123039347D01*
X104625916Y-123035295D01*
X104625915Y-123035295D01*
X104616518Y-123029869D01*
X104605835Y-123027985D01*
X104605834Y-123027985D01*
X104597848Y-123026577D01*
X104576974Y-123020984D01*
X104569352Y-123018210D01*
X104569350Y-123018210D01*
X104559158Y-123014500D01*
X104440842Y-123014500D01*
X104430650Y-123018210D01*
X104430648Y-123018210D01*
X104423026Y-123020984D01*
X104402152Y-123026577D01*
X104394166Y-123027985D01*
X104394165Y-123027985D01*
X104383482Y-123029869D01*
X104374085Y-123035295D01*
X104374084Y-123035295D01*
X104367065Y-123039347D01*
X104347469Y-123048485D01*
X104342746Y-123050204D01*
X104329662Y-123054966D01*
X104321352Y-123061939D01*
X104321350Y-123061940D01*
X104315138Y-123067153D01*
X104297443Y-123079544D01*
X104281018Y-123089027D01*
X104268830Y-123103552D01*
X104253554Y-123118828D01*
X104239027Y-123131018D01*
X104229544Y-123147443D01*
X104217154Y-123165137D01*
X104204966Y-123179662D01*
X104201255Y-123189859D01*
X104198485Y-123197469D01*
X104189347Y-123217065D01*
X104185295Y-123224084D01*
X104179869Y-123233482D01*
X104177985Y-123244165D01*
X104177985Y-123244166D01*
X104176577Y-123252152D01*
X104170984Y-123273026D01*
X104168210Y-123280648D01*
X104164500Y-123290842D01*
X104164500Y-123309798D01*
X104162616Y-123331330D01*
X104159324Y-123350000D01*
X99040676Y-123350000D01*
X99037384Y-123331330D01*
X99035500Y-123309798D01*
X99035500Y-123290842D01*
X99031790Y-123280648D01*
X99029016Y-123273026D01*
X99023423Y-123252152D01*
X99022015Y-123244166D01*
X99022015Y-123244165D01*
X99020131Y-123233482D01*
X99014705Y-123224084D01*
X99010653Y-123217065D01*
X99001515Y-123197469D01*
X98998745Y-123189859D01*
X98995034Y-123179662D01*
X98982846Y-123165137D01*
X98970456Y-123147443D01*
X98960973Y-123131018D01*
X98946446Y-123118828D01*
X98931170Y-123103552D01*
X98918982Y-123089027D01*
X98902557Y-123079544D01*
X98884862Y-123067153D01*
X98878650Y-123061940D01*
X98878648Y-123061939D01*
X98870338Y-123054966D01*
X98857254Y-123050204D01*
X98852531Y-123048485D01*
X98832935Y-123039347D01*
X98825916Y-123035295D01*
X98825915Y-123035295D01*
X98816518Y-123029869D01*
X98805835Y-123027985D01*
X98805834Y-123027985D01*
X98797848Y-123026577D01*
X98776974Y-123020984D01*
X98769352Y-123018210D01*
X98769350Y-123018210D01*
X98759158Y-123014500D01*
X98640842Y-123014500D01*
X98630650Y-123018210D01*
X98630648Y-123018210D01*
X98623026Y-123020984D01*
X98602152Y-123026577D01*
X98594166Y-123027985D01*
X98594165Y-123027985D01*
X98583482Y-123029869D01*
X98574085Y-123035295D01*
X98574084Y-123035295D01*
X98567065Y-123039347D01*
X98547469Y-123048485D01*
X98542746Y-123050204D01*
X98529662Y-123054966D01*
X98521352Y-123061939D01*
X98521350Y-123061940D01*
X98515138Y-123067153D01*
X98497443Y-123079544D01*
X98481018Y-123089027D01*
X98468830Y-123103552D01*
X98453554Y-123118828D01*
X98439027Y-123131018D01*
X98429544Y-123147443D01*
X98417154Y-123165137D01*
X98404966Y-123179662D01*
X98401255Y-123189859D01*
X98398485Y-123197469D01*
X98389347Y-123217065D01*
X98385295Y-123224084D01*
X98379869Y-123233482D01*
X98377985Y-123244165D01*
X98377985Y-123244166D01*
X98376577Y-123252152D01*
X98370984Y-123273026D01*
X98368210Y-123280648D01*
X98364500Y-123290842D01*
X98364500Y-123309798D01*
X98362616Y-123331330D01*
X98359324Y-123350000D01*
X98030500Y-123350000D01*
X98030500Y-122170134D01*
X98019641Y-122065481D01*
X97999910Y-122006338D01*
X97966536Y-121906305D01*
X97964256Y-121899471D01*
X97932855Y-121848727D01*
X97875957Y-121756780D01*
X97875954Y-121756776D01*
X97872166Y-121750655D01*
X97748311Y-121627016D01*
X97599334Y-121535186D01*
X97433228Y-121480090D01*
X97378684Y-121474502D01*
X97333013Y-121469822D01*
X97333005Y-121469822D01*
X97329866Y-121469500D01*
X97230134Y-121469500D01*
X97125481Y-121480359D01*
X97119044Y-121482507D01*
X97119042Y-121482507D01*
X96967936Y-121532920D01*
X96959471Y-121535744D01*
X96936650Y-121549866D01*
X96816780Y-121624043D01*
X96816776Y-121624046D01*
X96810655Y-121627834D01*
X96805566Y-121632931D01*
X96805567Y-121632931D01*
X96699280Y-121739404D01*
X96687016Y-121751689D01*
X96595186Y-121900666D01*
X96540090Y-122066772D01*
X96539400Y-122073511D01*
X96529826Y-122166956D01*
X96529500Y-122170134D01*
X96529500Y-123469866D01*
X95250000Y-123469866D01*
X95250000Y-122330685D01*
X95271198Y-122261347D01*
X95271395Y-122261055D01*
X95277322Y-122254507D01*
X95316652Y-122173331D01*
X95329737Y-122146324D01*
X95329738Y-122146322D01*
X95333588Y-122138375D01*
X95344716Y-122072230D01*
X95354204Y-122015835D01*
X95354204Y-122015832D01*
X95354997Y-122011120D01*
X95355133Y-122000000D01*
X95354337Y-121994440D01*
X95338092Y-121881005D01*
X95338091Y-121881002D01*
X95336839Y-121872259D01*
X95283428Y-121754788D01*
X95277662Y-121748097D01*
X95272903Y-121740655D01*
X95274860Y-121739404D01*
X95251215Y-121687253D01*
X95250000Y-121669940D01*
X95250000Y-110064000D01*
X95269685Y-109996961D01*
X95322489Y-109951206D01*
X95374000Y-109940000D01*
X98301000Y-109940000D01*
X98368039Y-109959685D01*
G37*
%TD.AperFunction*%
%TD*%
M02*
